<svg width="16" height="16" viewBox="0 0 16 16" fill="none" xmlns="http://www.w3.org/2000/svg">
<g clip-path="url(#clip0_33_8774)">
<path d="M6.93196 2.91251L1.63821 11.75C1.52907 11.939 1.47132 12.1533 1.47071 12.3716C1.4701 12.5898 1.52665 12.8045 1.63473 12.9941C1.74282 13.1837 1.89867 13.3417 2.08678 13.4524C2.2749 13.5631 2.48871 13.6226 2.70696 13.625H13.2945C13.5127 13.6226 13.7265 13.5631 13.9146 13.4524C14.1028 13.3417 14.2586 13.1837 14.3667 12.9941C14.4748 12.8045 14.5313 12.5898 14.5307 12.3716C14.5301 12.1533 14.4724 11.939 14.3632 11.75L9.06946 2.91251C8.95804 2.72882 8.80116 2.57696 8.61396 2.47156C8.42676 2.36616 8.21555 2.31079 8.00071 2.31079C7.78588 2.31079 7.57467 2.36616 7.38747 2.47156C7.20026 2.57696 7.04338 2.72882 6.93196 2.91251V2.91251Z" stroke="#F44336" stroke-width="1.5" stroke-linecap="round" stroke-linejoin="round"/>
<path d="M8 6.125V8.625" stroke="#F44336" stroke-width="1.5" stroke-linecap="round" stroke-linejoin="round"/>
<path d="M8 11.125H8.00425" stroke="#F44336" stroke-width="1.5" stroke-linecap="round" stroke-linejoin="round"/>
</g>
<defs>
<clipPath id="clip0_33_8774">
<rect width="15" height="15" fill="white" transform="translate(0.5 0.5)"/>
</clipPath>
</defs>
</svg>
