<svg width="188" height="23" viewBox="0 0 188 23" fill="none" xmlns="http://www.w3.org/2000/svg">
<g clip-path="url(#clip0_486_1663)">
<path d="M31.6802 17.2846V8.07759H28.6074V5.91531H37.2938V8.07759H34.221V17.2846H31.6802ZM38.8673 17.2846V5.91531H45.8713V8.07759H41.3908V10.3619H45.2018V12.5067H41.3908V15.1224H46.043V17.2846H38.8673ZM52.7698 17.4939C52.0602 17.4939 51.3907 17.3718 50.7613 17.1277C50.1319 16.872 49.5768 16.4999 49.0961 16.0117C48.6269 15.5234 48.255 14.9189 47.9803 14.1982C47.7056 13.4658 47.5683 12.623 47.5683 11.6697C47.5683 10.7281 47.7114 9.89109 47.9975 9.1587C48.2836 8.41467 48.667 7.78692 49.1476 7.27545C49.6283 6.76392 50.1891 6.37447 50.83 6.10714C51.4709 5.83974 52.1461 5.70605 52.8556 5.70605C53.5767 5.70605 54.2233 5.85718 54.7954 6.15941C55.3675 6.45007 55.8424 6.793 56.2201 7.18825L54.8815 8.82736C54.5952 8.56003 54.292 8.34492 53.9713 8.18217C53.6623 8.00783 53.3077 7.92064 52.9071 7.92064C52.5295 7.92064 52.169 8.00783 51.8256 8.18217C51.4937 8.34492 51.2019 8.58327 50.9501 8.89712C50.7098 9.21102 50.5153 9.59462 50.3665 10.048C50.2291 10.5014 50.1605 11.0129 50.1605 11.5825C50.1605 12.7567 50.4066 13.6692 50.8986 14.3202C51.3907 14.9596 52.0488 15.2793 52.8728 15.2793C53.3306 15.2793 53.7368 15.1805 54.0918 14.9829C54.4579 14.7736 54.7785 14.5178 55.0532 14.2156L56.3918 15.8199C55.4536 16.9359 54.246 17.4939 52.7698 17.4939ZM57.9205 17.2846V5.91531H60.444V10.2921H64.3065V5.91531H66.8469V17.2846H64.3065V12.5416H60.444V17.2846H57.9205ZM74.7611 17.2846V8.07759H71.6883V5.91531H80.3748V8.07759H77.302V17.2846H74.7611ZM86.0112 17.4939C85.2558 17.4939 84.5638 17.3602 83.9341 17.0928C83.3161 16.8138 82.7841 16.4185 82.3378 15.9071C81.8914 15.3955 81.5422 14.7736 81.2908 14.0413C81.0504 13.3089 80.93 12.4776 80.93 11.5476C80.93 10.6176 81.0504 9.79225 81.2908 9.07151C81.5422 8.33912 81.8914 7.72881 82.3378 7.24057C82.7841 6.74069 83.3161 6.36288 83.9341 6.10714C84.5638 5.83974 85.2558 5.70605 86.0112 5.70605C86.7666 5.70605 87.4533 5.83974 88.0714 6.10714C88.701 6.36288 89.2388 6.74069 89.6852 7.24057C90.1315 7.74045 90.4749 8.35656 90.7153 9.08895C90.9667 9.80969 91.0929 10.6293 91.0929 11.5476C91.0929 12.4776 90.9667 13.3089 90.7153 14.0413C90.4749 14.7736 90.1315 15.3955 89.6852 15.9071C89.2388 16.4185 88.701 16.8138 88.0714 17.0928C87.4533 17.3602 86.7666 17.4939 86.0112 17.4939ZM86.0112 15.2793C86.7782 15.2793 87.3847 14.948 87.831 14.2853C88.2774 13.6111 88.5003 12.6986 88.5003 11.5476C88.5003 10.4084 88.2774 9.51907 87.831 8.87968C87.3847 8.24034 86.7782 7.92064 86.0112 7.92064C85.2447 7.92064 84.6378 8.24034 84.1919 8.87968C83.7455 9.51907 83.5221 10.4084 83.5221 11.5476C83.5221 12.6986 83.7455 13.6111 84.1919 14.2853C84.6378 14.948 85.2447 15.2793 86.0112 15.2793ZM98.471 17.2846V8.07759H95.3977V5.91531H104.084V8.07759H101.011V17.2846H98.471ZM105.658 17.2846V5.91531H108.181V10.2921H112.044V5.91531H114.585V17.2846H112.044V12.5416H108.181V17.2846H105.658ZM117.054 17.2846V5.91531H124.058V8.07759H119.577V10.3619H123.388V12.5067H119.577V15.1224H124.229V17.2846H117.054ZM129.552 17.2846V5.91531H133.586C134.181 5.91531 134.736 5.97342 135.251 6.0897C135.778 6.20593 136.236 6.40355 136.624 6.68258C137.014 6.94996 137.323 7.31033 137.551 7.76369C137.78 8.21705 137.895 8.78089 137.895 9.45511C137.895 10.2921 137.711 10.9838 137.345 11.5302C136.99 12.065 136.51 12.4661 135.903 12.7334L138.444 17.2846H135.612L133.466 13.1868H132.075V17.2846H129.552ZM132.075 11.1466H133.38C134.044 11.1466 134.547 11.0071 134.891 10.7281C135.246 10.4374 135.423 10.0132 135.423 9.45511C135.423 8.89712 135.246 8.50772 134.891 8.2868C134.547 8.06595 134.044 7.95552 133.38 7.95552H132.075V11.1466ZM139.908 17.2846V5.91531H146.912V8.07759H142.431V10.3619H146.243V12.5067H142.431V15.1224H147.084V17.2846H139.908ZM152.557 17.4939C151.825 17.4939 151.092 17.3602 150.36 17.0928C149.639 16.8138 148.992 16.4011 148.42 15.8548L149.862 14.0935C150.263 14.4423 150.703 14.7271 151.184 14.948C151.676 15.1688 152.157 15.2793 152.626 15.2793C153.153 15.2793 153.541 15.1805 153.793 14.9829C154.056 14.7852 154.188 14.5178 154.188 14.1807C154.188 14.0064 154.148 13.8552 154.068 13.7274C153.999 13.5995 153.891 13.4891 153.742 13.3961C153.604 13.2914 153.433 13.1984 153.227 13.117C153.032 13.024 152.815 12.9252 152.575 12.8206L151.115 12.1928C150.829 12.0766 150.549 11.9254 150.274 11.7395C150.011 11.5535 149.771 11.3384 149.553 11.0943C149.347 10.8385 149.181 10.5479 149.056 10.2224C148.929 9.88524 148.866 9.50743 148.866 9.08895C148.866 8.62394 148.964 8.18802 149.159 7.78113C149.353 7.36264 149.628 7.00227 149.982 6.70001C150.337 6.38611 150.755 6.14202 151.236 5.96763C151.727 5.79324 152.266 5.70605 152.849 5.70605C153.501 5.70605 154.143 5.83393 154.772 6.0897C155.413 6.34544 155.974 6.71745 156.454 7.20569L155.167 8.82736C154.8 8.53675 154.434 8.31589 154.068 8.16473C153.702 8.00199 153.295 7.92064 152.849 7.92064C152.414 7.92064 152.065 8.01363 151.802 8.19961C151.55 8.374 151.424 8.62394 151.424 8.94943C151.424 9.12382 151.464 9.27493 151.545 9.40285C151.636 9.51907 151.756 9.6295 151.905 9.73414C152.065 9.82713 152.248 9.92012 152.454 10.0132C152.66 10.0945 152.883 10.1875 153.124 10.2921L154.566 10.885C155.252 11.164 155.79 11.5476 156.18 12.0359C156.58 12.5242 156.78 13.1694 156.78 13.9715C156.78 14.4481 156.683 14.9015 156.489 15.3316C156.305 15.7501 156.031 16.1221 155.664 16.4476C155.31 16.7615 154.869 17.0173 154.343 17.2149C153.816 17.4009 153.221 17.4939 152.557 17.4939ZM163.178 17.4939C162.468 17.4939 161.799 17.3718 161.169 17.1277C160.54 16.872 159.984 16.4999 159.504 16.0117C159.035 15.5234 158.663 14.9189 158.388 14.1982C158.113 13.4658 157.976 12.623 157.976 11.6697C157.976 10.7281 158.119 9.89109 158.406 9.1587C158.691 8.41467 159.075 7.78692 159.556 7.27545C160.036 6.76392 160.597 6.37447 161.238 6.10714C161.879 5.83974 162.554 5.70605 163.263 5.70605C163.984 5.70605 164.631 5.85718 165.204 6.15941C165.776 6.45007 166.251 6.793 166.628 7.18825L165.289 8.82736C165.003 8.56003 164.7 8.34492 164.38 8.18217C164.071 8.00783 163.716 7.92064 163.315 7.92064C162.937 7.92064 162.577 8.00783 162.234 8.18217C161.902 8.34492 161.61 8.58327 161.358 8.89712C161.118 9.21102 160.923 9.59462 160.774 10.048C160.637 10.5014 160.568 11.0129 160.568 11.5825C160.568 12.7567 160.814 13.6692 161.307 14.3202C161.799 14.9596 162.457 15.2793 163.281 15.2793C163.739 15.2793 164.145 15.1805 164.499 14.9829C164.866 14.7736 165.186 14.5178 165.461 14.2156L166.8 15.8199C165.861 16.9359 164.654 17.4939 163.178 17.4939ZM172.439 17.4939C170.985 17.4939 169.875 17.0579 169.108 16.186C168.341 15.3142 167.958 13.925 167.958 12.0185V5.91531H170.499V12.28C170.499 13.3961 170.665 14.1749 170.996 14.6167C171.328 15.0584 171.809 15.2793 172.439 15.2793C173.068 15.2793 173.554 15.0584 173.898 14.6167C174.241 14.1749 174.413 13.3961 174.413 12.28V5.91531H176.85V12.0185C176.85 13.925 176.473 15.3142 175.717 16.186C174.974 17.0579 173.881 17.4939 172.439 17.4939ZM179.271 17.2846V5.91531H186.275V8.07759H181.795V10.3619H185.606V12.5067H181.795V15.1224H186.447V17.2846H179.271Z" fill="#333333"/>
<path d="M19.6438 5.54687C22.1395 9.25873 22.1436 14.1343 19.6564 17.8362C19.382 18.2446 18.8193 18.2917 18.453 17.9658L15.3684 15.2219C15.0279 14.919 14.9839 14.4023 15.2242 14.0127C16.2472 12.3541 16.2508 10.869 15.2351 9.21162C14.9915 8.81406 15.043 8.28655 15.3973 7.98703L18.4541 5.40264C18.8224 5.0913 19.3736 5.14497 19.6438 5.54687Z" fill="#9A67FF"/>
<path d="M2.37492 5.54693C-0.120767 9.25879 -0.124956 14.1344 2.36229 17.8362C2.63674 18.2447 3.19937 18.2917 3.56563 17.9659L6.65028 15.2219C6.99079 14.919 7.03479 14.4024 6.79449 14.0128C5.77152 12.3542 5.7679 10.869 6.78361 9.21168C7.02723 8.81413 6.97573 8.28661 6.62138 7.98709L3.56458 5.4027C3.19632 5.09136 2.64514 5.14503 2.37492 5.54693Z" fill="#9A67FF"/>
<path d="M17.0656 20.4659C13.4114 23.001 8.61162 23.0052 4.96726 20.4787C4.56514 20.1999 4.51883 19.6284 4.83958 19.2564L7.54091 16.1231C7.83911 15.7772 8.34771 15.7325 8.73132 15.9766C10.3641 17.0157 11.8262 17.0194 13.4578 15.9876C13.8492 15.7401 14.3685 15.7925 14.6634 16.1524L17.2076 19.2575C17.5141 19.6315 17.4613 20.1914 17.0656 20.4659Z" fill="#9A67FF"/>
<path d="M17.0656 2.92775C13.4114 0.392675 8.61162 0.388419 4.96726 2.91492C4.56514 3.1937 4.51883 3.76521 4.83958 4.13726L7.54091 7.27058C7.83911 7.61646 8.34771 7.66116 8.73132 7.41707C10.3641 6.37797 11.8262 6.37427 13.4578 7.40602C13.8492 7.65349 14.3685 7.60117 14.6634 7.24123L17.2076 4.13619C17.5141 3.76212 17.4613 3.20223 17.0656 2.92775Z" fill="#9A67FF"/>
</g>
<defs>
<clipPath id="clip0_486_1663">
<rect width="187" height="22" fill="white" transform="translate(0.5 0.5)"/>
</clipPath>
</defs>
</svg>
