<svg width="150" height="63" viewBox="0 0 150 63" fill="none" xmlns="http://www.w3.org/2000/svg">
<g clip-path="url(#clip0_486_1619)">
<path d="M34.3308 0.5V25.4316C34.3308 30.2623 30.3752 34.1777 25.5009 34.1777C20.6242 34.1777 16.6692 30.2623 16.6692 25.4316V0.5H0V25.5732C0 39.5218 11.4176 50.8321 25.5009 50.8321C39.5825 50.8321 51 39.5218 51 25.5732V0.5H34.3308Z" fill="url(#paint0_linear_486_1619)"/>
<path d="M67.3848 1.21445C67.3848 1.07913 67.5091 0.95752 67.646 0.95752H69.3375C69.4885 0.95752 69.602 1.07913 69.602 1.21445V6.6949C69.602 7.64281 70.3155 8.39926 71.2928 8.39926C72.2842 8.39926 73.0137 7.64281 73.0137 6.6949V1.21445C73.0137 1.07913 73.1247 0.95752 73.2749 0.95752H74.9665C75.104 0.95752 75.2309 1.07913 75.2309 1.21445V6.80403C75.2309 8.85888 73.4683 10.5664 71.2928 10.5664C69.1315 10.5664 67.3848 8.85888 67.3848 6.80403V1.21445Z" fill="#003D80"/>
<path d="M77.769 0.969828C77.769 0.836379 77.8902 0.72876 78.0245 0.72876H78.3589L83.7127 5.85328H83.7259V1.11557C83.7259 0.98274 83.8339 0.862208 83.9804 0.862208H85.5905C85.7248 0.862208 85.846 0.98274 85.846 1.11557V10.0965C85.846 10.23 85.7248 10.3376 85.5905 10.3376H85.3766C85.336 10.3376 85.23 10.2964 85.2017 10.2712L79.9023 4.97203H79.8868V9.94834C79.8868 10.0842 79.7811 10.2042 79.6346 10.2042H78.0374C77.9008 10.2042 77.7797 10.0842 77.7797 9.94834L77.769 0.969828Z" fill="#003D80"/>
<path d="M88.8462 1.21203C88.8462 1.07862 88.9648 0.957565 89.0957 0.957565H90.676C90.8045 0.957565 90.9231 1.07862 90.9231 1.21203V10.0832C90.9231 10.2197 90.8045 10.3376 90.676 10.3376H89.0957C88.9648 10.3376 88.8462 10.2197 88.8462 10.0832V1.21203Z" fill="#003D80"/>
<path d="M97.9645 7.08977L96.9233 4.85781H96.9101L95.882 7.08977H97.9645ZM92.3346 9.98716L96.6235 0.879694C96.6627 0.799245 96.7599 0.728775 96.8545 0.728775H96.9913C97.0885 0.728775 97.1833 0.799245 97.2256 0.879694L101.511 9.98716C101.593 10.1636 101.482 10.3376 101.278 10.3376H99.7573C99.5099 10.3376 99.4029 10.2572 99.2792 10.0002L98.7849 8.92948H95.0616L94.5669 10.0134C94.4986 10.1742 94.3483 10.3376 94.0751 10.3376H92.5689C92.363 10.3376 92.2532 10.1636 92.3346 9.98716Z" fill="#003D80"/>
<path d="M68.4688 17.1852C68.4821 17.0647 68.6054 16.9724 68.7155 16.9724H68.9324C69.0009 16.9724 69.1244 17.0259 69.1634 17.1052L72.3293 22.8706H72.3582L75.5248 17.1052C75.5663 17.0259 75.6895 16.9724 75.7576 16.9724H75.9752C76.0853 16.9724 76.2085 17.0647 76.2217 17.1852L77.7655 26.1532C77.7918 26.3248 77.6686 26.4454 77.5032 26.4454H75.894C75.7708 26.4454 75.6475 26.3401 75.6349 26.2326L75.0215 22.1074H74.9926L72.6992 26.4326C72.6595 26.5142 72.5338 26.5813 72.4682 26.5813H72.2222C72.138 26.5813 72.0305 26.5142 71.9889 26.4326L69.6821 22.1074H69.6558L69.0558 26.2326C69.0399 26.3401 68.9324 26.4454 68.7965 26.4454H67.1843C67.0221 26.4454 66.8963 26.3248 66.9277 26.1532L68.4688 17.1852Z" fill="#003D80"/>
<path d="M79.8462 17.2268C79.8462 17.0934 79.9574 16.9723 80.1111 16.9723H85.8171C85.9683 16.9723 86.077 17.0934 86.077 17.2268V18.6863C86.077 18.8228 85.9683 18.9438 85.8171 18.9438H81.9983V20.6034H85.14C85.2771 20.6034 85.4017 20.7245 85.4017 20.8585V22.3198C85.4017 22.4668 85.2771 22.5749 85.14 22.5749H81.9983V24.384H85.8171C85.9683 24.384 86.077 24.505 86.077 24.6384V26.1005C86.077 26.2343 85.9683 26.3524 85.8171 26.3524H80.1111C79.9574 26.3524 79.8462 26.2343 79.8462 26.1005V17.2268Z" fill="#003D80"/>
<path d="M89.6339 18.943H87.7195C87.5699 18.943 87.4619 18.822 87.4619 18.688V17.2266C87.4619 17.0932 87.5699 16.9722 87.7195 16.9722H93.6684C93.8154 16.9722 93.9234 17.0932 93.9234 17.2266V18.688C93.9234 18.822 93.8154 18.943 93.6684 18.943H91.7514V26.0971C91.7514 26.2312 91.6305 26.3522 91.4971 26.3522H89.8889C89.7548 26.3522 89.6339 26.2312 89.6339 26.0971V18.943Z" fill="#003D80"/>
<path d="M99.7411 20.9792C100.305 20.9792 100.786 20.4696 100.786 19.9058C100.786 19.345 100.305 18.8892 99.7411 18.8892H97.7025V20.9792H99.7411ZM95.5386 17.2272C95.5386 17.0932 95.6496 16.9722 95.8007 16.9722H99.9183C101.571 16.9722 102.923 18.2716 102.923 19.8675C102.923 21.0996 102.082 22.0933 100.884 22.5614L102.772 25.9631C102.867 26.1386 102.772 26.3522 102.537 26.3522H100.707C100.593 26.3522 100.511 26.2875 100.484 26.2337L98.6514 22.68H97.7025V26.0997C97.7025 26.2337 97.5806 26.3522 97.4403 26.3522H95.8007C95.6496 26.3522 95.5386 26.2337 95.5386 26.0997V17.2272Z" fill="#003D80"/>
<path d="M109.378 24.4465C110.861 24.4465 112.075 23.2448 112.075 21.7917C112.075 20.3237 110.861 19.1092 109.378 19.1092C107.908 19.1092 106.695 20.3237 106.695 21.7917C106.695 23.2448 107.908 24.4465 109.378 24.4465ZM109.378 16.9722C112.075 16.9722 114.231 19.1215 114.231 21.7917C114.231 24.4593 112.075 26.581 109.378 26.581C106.681 26.581 104.539 24.4593 104.539 21.7917C104.539 19.1215 106.681 16.9722 109.378 16.9722Z" fill="#003D80"/>
<path d="M119.66 20.9923C120.234 20.9923 120.716 20.5365 120.716 19.9318C120.716 19.3711 120.234 18.9412 119.66 18.9412H118.391V20.9923H119.66ZM116.308 17.2274C116.308 17.0909 116.418 16.9723 116.564 16.9723H119.781C121.421 16.9723 122.769 18.3107 122.769 19.9318C122.769 21.5944 121.421 22.9476 119.793 22.9476H118.391V26.0973C118.391 26.2314 118.271 26.3524 118.138 26.3524H116.564C116.418 26.3524 116.308 26.2314 116.308 26.0973V17.2274Z" fill="#003D80"/>
<path d="M128.762 24.4467C130.245 24.4467 131.459 23.2451 131.459 21.7919C131.459 20.324 130.245 19.1094 128.762 19.1094C127.293 19.1094 126.078 20.324 126.078 21.7919C126.078 23.2451 127.293 24.4467 128.762 24.4467ZM128.762 16.9724C131.459 16.9724 133.615 19.1217 133.615 21.7919C133.615 24.4595 131.459 26.5813 128.762 26.5813C126.066 26.5813 123.923 24.4595 123.923 21.7919C123.923 19.1217 126.066 16.9724 128.762 16.9724Z" fill="#003D80"/>
<path d="M135.692 17.2268C135.692 17.0934 135.8 16.9723 135.947 16.9723H137.539C137.673 16.9723 137.791 17.0934 137.791 17.2268V24.384H140.979C141.126 24.384 141.231 24.505 141.231 24.6384V26.1005C141.231 26.2343 141.126 26.3524 140.979 26.3524H135.947C135.8 26.3524 135.692 26.2343 135.692 26.1005V17.2268Z" fill="#003D80"/>
<path d="M143.077 17.2269C143.077 17.0935 143.196 16.9724 143.327 16.9724H144.907C145.036 16.9724 145.154 17.0935 145.154 17.2269V26.1006C145.154 26.2344 145.036 26.3525 144.907 26.3525H143.327C143.196 26.3525 143.077 26.2344 143.077 26.1006V17.2269Z" fill="#003D80"/>
<path d="M147.923 17.2269C147.923 17.0935 148.041 16.9724 148.172 16.9724H149.752C149.881 16.9724 150 17.0935 150 17.2269V26.1006C150 26.2344 149.881 26.3525 149.752 26.3525H148.172C148.041 26.3525 147.923 26.2344 147.923 26.1006V17.2269Z" fill="#003D80"/>
<path d="M70.9653 37.2342C71.5392 37.2342 72.0209 36.7791 72.0209 36.177C72.0209 35.6132 71.5392 35.1836 70.9653 35.1836H69.6989V37.2342H70.9653ZM67.6152 33.4702C67.6152 33.3368 67.7228 33.2158 67.8686 33.2158H71.0853C72.7284 33.2158 74.0768 34.5563 74.0768 36.177C74.0768 37.8361 72.7284 39.1921 71.1008 39.1921H69.6989V42.3385C69.6989 42.4749 69.5782 42.5959 69.4429 42.5959H67.8686C67.7228 42.5959 67.6152 42.4749 67.6152 42.3385V33.4702Z" fill="#003D80"/>
<path d="M80.3014 40.4614C81.7841 40.4614 82.9977 39.2598 82.9977 37.8041C82.9977 36.3387 81.7841 35.1216 80.3014 35.1216C78.8311 35.1216 77.6175 36.3387 77.6175 37.8041C77.6175 39.2598 78.8311 40.4614 80.3014 40.4614ZM80.3014 32.9871C82.9977 32.9871 85.1538 35.1369 85.1538 37.8041C85.1538 40.4742 82.9977 42.5959 80.3014 42.5959C77.6044 42.5959 75.4614 40.4742 75.4614 37.8041C75.4614 35.1369 77.6044 32.9871 80.3014 32.9871Z" fill="#003D80"/>
<path d="M87.231 33.4732C87.231 33.3394 87.339 33.2158 87.4855 33.2158H89.078C89.2117 33.2158 89.3296 33.3394 89.3296 33.4732V40.6256H92.5172C92.664 40.6256 92.7694 40.7467 92.7694 40.8805V42.3385C92.7694 42.4749 92.664 42.5959 92.5172 42.5959H87.4855C87.339 42.5959 87.231 42.4749 87.231 42.3385V33.4732Z" fill="#003D80"/>
<path d="M93.9886 41.1944L94.6343 40.085C94.7451 39.9134 95.0063 39.9418 95.1012 40.0056C95.1561 40.034 96.1445 40.7412 97.0509 40.7412C97.5992 40.7412 97.9971 40.4053 97.9971 39.9418C97.9971 39.3802 97.5175 38.9523 96.5815 38.5913C95.4039 38.1404 93.9229 37.2456 93.9229 35.6419C93.9229 34.3197 94.977 32.9871 97.0932 32.9871C98.5186 32.9871 99.6148 33.6942 100.028 33.9864C100.192 34.0841 100.166 34.3197 100.11 34.4144L99.4092 35.4444C99.3143 35.5883 99.0669 35.7082 98.943 35.616C98.8191 35.5497 97.818 34.8166 96.9801 34.8166C96.4899 34.8166 96.1179 35.1369 96.1179 35.4961C96.1179 35.9905 96.5292 36.3621 97.6124 36.7901C98.6843 37.2051 100.384 38.02 100.384 39.8341C100.384 41.2097 99.1645 42.5959 97.1458 42.5959C95.3617 42.5959 94.3738 41.8764 94.0576 41.5689C93.9229 41.4355 93.8779 41.3813 93.9886 41.1944Z" fill="#003D80"/>
<path d="M102.231 33.5398C102.231 33.3652 102.367 33.2158 102.558 33.2158H104.153C104.334 33.2158 104.483 33.3652 104.483 33.5398V37.0614L107.51 33.3522C107.564 33.2831 107.685 33.2158 107.768 33.2158H109.487C109.745 33.2158 109.882 33.5121 109.73 33.7127L106.541 37.6373L110.018 42.0841C110.167 42.2848 110.018 42.5806 109.759 42.5806H107.876C107.782 42.5806 107.659 42.5268 107.633 42.4879L104.483 38.2806V42.2719C104.483 42.4472 104.334 42.5959 104.153 42.5959H102.558C102.367 42.5959 102.231 42.4472 102.231 42.2719V33.5398Z" fill="#003D80"/>
<path d="M111.923 33.4732C111.923 33.3394 112.041 33.2158 112.173 33.2158H113.75C113.881 33.2158 114 33.3394 114 33.4732V42.3385C114 42.4749 113.881 42.5959 113.75 42.5959H112.173C112.041 42.5959 111.923 42.4749 111.923 42.3385V33.4732Z" fill="#003D80"/>
<path d="M120.995 32.9871C122.355 32.9871 123.365 33.4021 124.291 34.2275C124.414 34.335 124.414 34.4961 124.304 34.6039L123.242 35.6826C123.148 35.7771 122.996 35.7771 122.902 35.6826C122.397 35.2447 121.73 35.001 121.063 35.001C119.524 35.001 118.392 36.2568 118.392 37.7505C118.392 39.234 119.538 40.4614 121.076 40.4614C121.717 40.4614 122.412 40.2333 122.902 39.8206C122.996 39.7412 123.174 39.7412 123.255 39.8336L124.32 40.9405C124.414 41.0352 124.401 41.2097 124.304 41.3019C123.378 42.1809 122.206 42.5959 120.995 42.5959C118.269 42.5959 116.077 40.4742 116.077 37.8041C116.077 35.1369 118.269 32.9871 120.995 32.9871Z" fill="#003D80"/>
<path d="M126.231 33.4732C126.231 33.3394 126.353 33.2158 126.49 33.2158H128.089C128.236 33.2158 128.345 33.3394 128.345 33.4732V36.8473H132.196V33.4732C132.196 33.3394 132.303 33.2158 132.452 33.2158H134.052C134.186 33.2158 134.308 33.3394 134.308 33.4732V42.3385C134.308 42.4749 134.186 42.5959 134.052 42.5959H132.452C132.303 42.5959 132.196 42.4749 132.196 42.3385V38.8176H128.345V42.3385C128.345 42.4749 128.236 42.5959 128.089 42.5959H126.49C126.353 42.5959 126.231 42.4749 126.231 42.3385V33.4732Z" fill="#003D80"/>
<path d="M67.3848 57.8184C67.3848 57.7546 67.4425 57.6956 67.5101 57.6956H67.9518C68.0175 57.6956 68.0771 57.7546 68.0771 57.8184V62.1461C68.0771 62.2122 68.0175 62.2712 67.9518 62.2712H67.5101C67.4425 62.2712 67.3848 62.2122 67.3848 62.1461V57.8184Z" fill="#003D80"/>
<path d="M70.2813 57.7946C70.2943 57.7395 70.3455 57.6956 70.3974 57.6956H70.5027C70.5417 57.6956 70.6035 57.7294 70.6164 57.7683L71.9927 61.1788H72.0181L73.3896 57.7683C73.4025 57.7294 73.4537 57.6956 73.5001 57.6956H73.6086C73.6605 57.6956 73.7117 57.7395 73.7247 57.7946L74.5337 62.2806C74.5543 62.3721 74.5109 62.4323 74.4181 62.4323H73.9877C73.9307 62.4323 73.877 62.3879 73.864 62.3382L73.3764 59.3588H73.3561L72.1704 62.4243C72.1573 62.4661 72.1164 62.5 72.0571 62.5H71.9383C71.8896 62.5 71.8407 62.4661 71.8277 62.4243L70.637 59.3588H70.6083L70.1371 62.3382C70.1265 62.3879 70.0697 62.4323 70.016 62.4323H69.5879C69.4951 62.4323 69.451 62.3721 69.4642 62.2806L70.2813 57.7946Z" fill="#003D80"/>
<path d="M75.6904 61.585C75.9507 61.585 76.154 61.7916 76.154 62.0489C76.154 62.2965 75.9507 62.5001 75.6904 62.5001C75.4343 62.5001 75.231 62.2965 75.231 62.0489C75.231 61.7916 75.4343 61.585 75.6904 61.585Z" fill="#003D80"/>
<path d="M80.5772 59.9717C81.0496 59.9717 81.4472 59.6034 81.4472 59.1357C81.4472 58.6905 81.0496 58.3499 80.5772 58.3499H79.6292V59.9717H80.5772ZM78.9229 57.8184C78.9229 57.7546 78.9771 57.6956 79.0544 57.6956H80.6172C81.4609 57.6956 82.1536 58.3499 82.1536 59.1405C82.1536 59.9514 81.4608 60.6114 80.6255 60.6114H79.6292V62.1483C79.6292 62.2122 79.5674 62.2712 79.4977 62.2712H79.0544C78.9771 62.2712 78.9229 62.2122 78.9229 62.1483V57.8184Z" fill="#003D80"/>
<path d="M85.4073 60.7377L84.5913 58.9717H84.5576L83.7467 60.7377H85.4073ZM82.3977 62.1046L84.4379 57.7658C84.4584 57.7283 84.5159 57.6956 84.5496 57.6956H84.6177C84.6488 57.6956 84.7081 57.7283 84.7293 57.7658L86.7564 62.1046C86.7952 62.1877 86.7435 62.2712 86.6417 62.2712H86.2238C86.1458 62.2712 86.096 62.233 86.0703 62.1756L85.6593 61.2922H83.4867C83.3544 61.5876 83.2167 61.8802 83.0812 62.1756C83.0632 62.2209 83.0083 62.2712 82.9277 62.2712H82.5124C82.4106 62.2712 82.3589 62.1877 82.3977 62.1046Z" fill="#003D80"/>
<path d="M87.0076 57.923C86.979 57.829 87.0337 57.7608 87.1246 57.7608H87.57C87.6224 57.7608 87.6764 57.8077 87.6896 57.8548L88.4903 60.9177H88.5164L89.5976 57.7688C89.61 57.7294 89.6543 57.6956 89.709 57.6956H89.8309C89.88 57.6956 89.9269 57.7294 89.9423 57.7688L91.0362 60.9177H91.0597L91.8499 57.8548C91.8628 57.8077 91.9177 57.7608 91.9694 57.7608H92.4129C92.5062 57.7608 92.5579 57.829 92.5318 57.923L91.2799 62.406C91.2669 62.4604 91.2153 62.5 91.1606 62.5H91.0542C91.0076 62.5 90.9533 62.4661 90.9427 62.4268L89.7762 59.1111H89.7427L88.5967 62.4268C88.5836 62.4661 88.5293 62.5 88.4827 62.5H88.3763C88.3246 62.5 88.2725 62.4604 88.26 62.406L87.0076 57.923Z" fill="#003D80"/>
<path d="M93.5977 60.2584L93.4507 60.335C93.3962 60.3682 93.3178 60.3506 93.2806 60.2915L93.2492 60.2325C93.2153 60.1792 93.2287 60.1001 93.2889 60.0639L93.5977 59.898V57.8184C93.5977 57.7546 93.6524 57.6956 93.7232 57.6956H94.1651C94.2304 57.6956 94.2932 57.7546 94.2932 57.8184V59.499L94.9523 59.1277C95.0201 59.0895 95.0935 59.1227 95.1274 59.1712L95.1614 59.2327C95.1953 59.289 95.1745 59.3634 95.1143 59.4014L94.2932 59.8674V61.6654H96.1029C96.1763 61.6654 96.231 61.7212 96.231 61.788V62.1461C96.231 62.2122 96.1763 62.2712 96.1029 62.2712H93.7232C93.6524 62.2712 93.5977 62.2122 93.5977 62.1461V60.2584Z" fill="#003D80"/>
<path d="M99.7167 60.7377L98.9007 58.9717H98.8663L98.0528 60.7377H99.7167ZM96.7065 62.1046L98.7447 57.7658C98.7652 57.7283 98.8252 57.6956 98.8589 57.6956H98.9237C98.9574 57.6956 99.0172 57.7283 99.038 57.7658L101.063 62.1046C101.105 62.1877 101.05 62.2712 100.951 62.2712H100.533C100.455 62.2712 100.408 62.233 100.379 62.1756L99.9661 61.2922H97.7957C97.6605 61.5876 97.5225 61.8802 97.3903 62.1756C97.369 62.2209 97.3174 62.2712 97.2368 62.2712H96.8182C96.7197 62.2712 96.6647 62.1877 96.7065 62.1046Z" fill="#003D80"/>
<path d="M105.947 60.7377L105.131 58.9717H105.097L104.283 60.7377H105.947ZM102.937 62.1046L104.975 57.7658C104.996 57.7283 105.056 57.6956 105.089 57.6956H105.154C105.188 57.6956 105.248 57.7283 105.268 57.7658L107.293 62.1046C107.335 62.1877 107.28 62.2712 107.182 62.2712H106.763C106.685 62.2712 106.638 62.233 106.61 62.1756L106.199 61.2922H104.026C103.891 61.5876 103.753 61.8802 103.621 62.1756C103.6 62.2209 103.548 62.2712 103.467 62.2712H103.049C102.95 62.2712 102.895 62.1877 102.937 62.1046Z" fill="#003D80"/>
<path d="M109.764 61.6494C110.726 61.6494 111.426 60.9466 111.426 59.9765C111.426 59.0177 110.726 58.3167 109.764 58.3167H108.898V61.6494H109.764ZM108.231 57.8184C108.231 57.7546 108.283 57.6956 108.347 57.6956H109.857C111.118 57.6956 112.154 58.7214 112.154 59.9765C112.154 61.2456 111.118 62.2712 109.857 62.2712H108.347C108.283 62.2712 108.231 62.2122 108.231 62.1461V57.8184Z" fill="#003D80"/>
<path d="M115.638 60.7377L114.822 58.9717H114.788L113.974 60.7377H115.638ZM112.628 62.1046L114.666 57.7658C114.687 57.7283 114.747 57.6956 114.78 57.6956H114.848C114.879 57.6956 114.939 57.7283 114.959 57.7658L116.987 62.1046C117.026 62.1877 116.974 62.2712 116.872 62.2712H116.454C116.376 62.2712 116.327 62.233 116.301 62.1756L115.89 61.2922H113.717C113.584 61.5876 113.447 61.8802 113.312 62.1756C113.294 62.2209 113.239 62.2712 113.158 62.2712H112.742C112.641 62.2712 112.589 62.1877 112.628 62.1046Z" fill="#003D80"/>
<path d="M118.511 57.7946C118.524 57.7395 118.578 57.6956 118.627 57.6956H118.735C118.774 57.6956 118.834 57.7294 118.846 57.7683L120.222 61.1788H120.248L121.618 57.7683C121.631 57.7294 121.685 57.6956 121.731 57.6956H121.837C121.888 57.6956 121.943 57.7395 121.953 57.7946L122.764 62.2806C122.785 62.3721 122.739 62.4323 122.646 62.4323H122.219C122.159 62.4323 122.107 62.3879 122.094 62.3382L121.605 59.3588H121.584L120.4 62.4243C120.389 62.4661 120.345 62.5 120.289 62.5H120.17C120.119 62.5 120.07 62.4661 120.057 62.4243L118.867 59.3588H118.838L118.367 62.3382C118.359 62.3879 118.3 62.4323 118.246 62.4323H117.818C117.728 62.4323 117.682 62.3721 117.695 62.2806L118.511 57.7946Z" fill="#003D80"/>
<path d="M125.881 61.8313C126.846 61.8313 127.635 61.0587 127.635 60.1055C127.635 59.1582 126.846 58.3643 125.881 58.3643C124.925 58.3643 124.137 59.1582 124.137 60.1055C124.137 61.0587 124.925 61.8313 125.881 61.8313ZM125.881 57.6956C127.231 57.6956 128.308 58.769 128.308 60.1055C128.308 61.4398 127.231 62.5 125.881 62.5C124.535 62.5 123.461 61.4398 123.461 60.1055C123.461 58.769 124.535 57.6956 125.881 57.6956Z" fill="#003D80"/>
<path d="M129.008 57.923C128.979 57.829 129.034 57.7608 129.125 57.7608H129.57C129.622 57.7608 129.676 57.8077 129.69 57.8548L130.49 60.9177H130.519L131.598 57.7688C131.61 57.7294 131.657 57.6956 131.709 57.6956H131.831C131.88 57.6956 131.927 57.7294 131.942 57.7688L133.036 60.9177H133.062L133.85 57.8548C133.863 57.8077 133.918 57.7608 133.969 57.7608H134.413C134.506 57.7608 134.558 57.829 134.532 57.923L133.28 62.406C133.267 62.4604 133.215 62.5 133.161 62.5H133.054C133.008 62.5 132.953 62.4661 132.943 62.4268L131.776 59.1111H131.743L130.597 62.4268C130.584 62.4661 130.529 62.5 130.483 62.5H130.379C130.325 62.5 130.272 62.4604 130.26 62.406L129.008 57.923Z" fill="#003D80"/>
<path d="M135.461 57.8184C135.461 57.7546 135.522 57.6956 135.587 57.6956H136.028C136.096 57.6956 136.154 57.7546 136.154 57.8184V62.1461C136.154 62.2122 136.096 62.2712 136.028 62.2712H135.587C135.522 62.2712 135.461 62.2122 135.461 62.1461V57.8184Z" fill="#003D80"/>
<path d="M139.765 57.6956C140.452 57.6956 140.948 57.923 141.411 58.3147C141.475 58.3691 141.475 58.4476 141.419 58.5052L141.121 58.8029C141.073 58.863 141.009 58.863 140.948 58.8029C140.628 58.5283 140.194 58.3561 139.771 58.3561C138.799 58.3561 138.064 59.1582 138.064 60.09C138.064 61.0223 138.807 61.8182 139.779 61.8182C140.274 61.8182 140.62 61.6251 140.948 61.3771C141.009 61.3325 141.073 61.3408 141.113 61.3721L141.427 61.6723C141.48 61.7192 141.467 61.8056 141.419 61.8528C140.956 62.2939 140.37 62.5 139.765 62.5C138.405 62.5 137.308 61.4398 137.308 60.1056C137.308 58.769 138.405 57.6956 139.765 57.6956Z" fill="#003D80"/>
<path d="M142.154 62.028L144.385 58.3499V58.3222H142.482C142.413 58.3222 142.349 58.2634 142.349 58.1964V57.8184C142.349 57.7514 142.413 57.6956 142.482 57.6956H145.258C145.324 57.6956 145.385 57.7514 145.385 57.8184V57.9049L143.145 61.6446V61.6494H145.123C145.194 61.6494 145.249 61.7084 145.249 61.7722V62.1461C145.249 62.2099 145.194 62.2712 145.123 62.2712H142.281C142.215 62.2712 142.154 62.2099 142.154 62.1461V62.028Z" fill="#003D80"/>
<path d="M148.639 60.7377L147.822 58.9717H147.789L146.975 60.7377H148.639ZM145.629 62.1047L147.666 57.7658C147.688 57.7283 147.747 57.6956 147.781 57.6956H147.846C147.88 57.6956 147.94 57.7283 147.96 57.7658L149.987 62.1047C150.026 62.1877 149.972 62.2712 149.873 62.2712H149.455C149.377 62.2712 149.327 62.233 149.301 62.1756L148.891 61.2923H146.718C146.586 61.5876 146.448 61.8802 146.312 62.1756C146.292 62.2209 146.24 62.2712 146.16 62.2712H145.744C145.642 62.2712 145.588 62.1877 145.629 62.1047Z" fill="#003D80"/>
<path d="M84.2309 48.7729H67.3848V50.6032H84.2309V48.7729Z" fill="#EB1944"/>
</g>
<defs>
<linearGradient id="paint0_linear_486_1619" x1="-15.4816" y1="26.4624" x2="79.1814" y2="23.7418" gradientUnits="userSpaceOnUse">
<stop stop-color="#003D80"/>
<stop offset="0.25" stop-color="#003D80"/>
<stop offset="0.52" stop-color="#9A1767"/>
<stop offset="0.74" stop-color="#EB1944"/>
<stop offset="1" stop-color="#EB1944"/>
</linearGradient>
<clipPath id="clip0_486_1619">
<rect width="150" height="62" fill="white" transform="translate(0 0.5)"/>
</clipPath>
</defs>
</svg>
