<svg width="106" height="120" viewBox="0 0 106 120" fill="none" xmlns="http://www.w3.org/2000/svg">
<path d="M48.6347 92.9258C47.9632 93.6197 47.2991 94.32 46.6525 95.0388C45.9875 95.7743 45.6398 96.8091 45.3749 97.2945C45.5083 99.6742 46.4281 100.953 48.0377 101.697C49.6289 102.414 51.1061 102.098 52.3331 100.87C54.364 98.8405 56.3811 96.7924 58.3632 94.7044C59.0347 93.9939 59.4247 93.1926 59.5323 92.3923C59.6896 91.188 59.2499 89.969 58.2225 88.9593C56.4979 87.2715 54.2665 87.2715 52.5152 89.0167C51.2137 90.3108 49.9113 91.5975 48.6347 92.9258ZM45.8219 92.3163C47.8703 90.2534 49.8948 88.1654 51.8852 86.0348C52.5658 85.3178 52.8887 84.2646 53.1793 83.7384C52.988 81.4244 52.0673 80.1461 50.4751 79.3948C49.0154 78.701 47.381 79.028 46.1871 80.2387C43.4333 83.0288 40.6969 85.818 37.9762 88.6415C37.944 88.6749 37.909 88.7064 37.8759 88.7416C36.1927 90.4868 36.2506 92.7508 37.9844 94.471C39.6759 96.1495 41.9147 96.2255 43.5988 94.5469C44.3466 93.8022 45.0843 93.0602 45.8219 92.3163ZM39.4947 71.8507C36.5183 74.8668 33.5566 77.8987 30.6041 80.9483C30.1819 81.3735 29.7661 81.8088 29.3522 82.234C28.4481 83.1706 27.8843 84.3062 27.8585 84.9991C27.8263 88.0477 29.7413 89.768 32.1134 89.5002C33.449 89.3492 34.4929 88.6573 35.398 87.7291C35.5976 87.5308 35.7972 87.3289 35.9949 87.1297C39.0054 84.0635 42.0324 80.9983 44.9932 77.8747C45.7152 77.1141 46.3122 76.1109 46.636 75.1095C47.3819 72.8048 45.798 70.5492 43.4084 70.2981C41.8411 70.1314 40.5562 70.7835 39.4947 71.8507ZM29.3182 78.6426C31.923 76.0776 34.4856 73.4625 36.9819 70.7909C38.5087 69.1624 38.2843 66.8744 36.6498 65.3107C36.5257 65.1949 36.4024 65.0865 36.2773 64.9772C37.3976 65.2283 38.5087 65.5284 39.5941 65.8628C39.7026 65.8962 39.8102 65.9295 39.9178 65.9712C40.191 66.6974 40.3989 67.457 40.6564 68.2268C42.5641 67.4654 44.3052 67.5997 45.8734 68.4779C46.395 68.7697 46.9018 69.1541 47.3828 69.6043C49.3898 71.4922 49.5967 73.8979 48.9501 76.437C54.0182 77.5727 55.843 80.0451 55.4457 85.1325C59.5829 86.0348 60.728 87.1464 62.047 91.4733C62.0553 91.5067 62.0718 91.5391 62.0792 91.5725C62.1951 91.8494 62.4618 92.106 62.7019 92.2904C64.4016 93.6363 66.8317 93.376 68.4156 91.7235C69.5773 90.51 69.7851 89.1167 68.9721 87.6633C68.789 87.3298 68.549 86.9871 68.2509 86.6443C65.0906 83.0279 61.8639 79.4606 58.6714 75.8691C58.2979 75.443 57.884 75.0252 57.5428 74.5741C58.6539 74.8844 59.857 75.1253 61.1088 75.2855C61.2661 75.3106 61.4326 75.3254 61.5898 75.3439C64.7162 78.877 67.8426 82.4026 70.9864 85.9273C71.0361 85.9764 71.0774 86.0348 71.1271 86.0867C72.4378 87.5568 74.1302 87.8995 75.8456 87.0714C77.504 86.2784 78.5084 84.6647 78.1009 82.8936C77.8692 81.8829 77.297 80.8649 76.633 80.0451C76.426 79.7866 76.2108 79.5282 75.9864 79.2781C74.8256 77.8913 73.5728 76.5796 72.3624 75.2355C73.3171 75.1262 74.2369 74.9937 75.0997 74.8502C75.1917 74.8335 75.2827 74.8261 75.3728 74.8094C75.9624 75.4439 76.5345 76.0878 77.1149 76.7214C77.1315 76.738 77.148 76.7547 77.1563 76.7714C77.745 77.4069 78.3668 77.8839 79.0888 78.1164C79.6867 78.3091 80.3415 78.3341 81.0718 78.134C83.4679 77.4819 84.6544 75.1429 83.9821 72.9808C90.4776 71.3014 97.5673 68.8623 105.629 65.5293V66.8169V69.8238H105.546C105.355 73.1994 104.858 76.4731 104.078 79.6468C98.3795 102.827 77.5877 120 52.8151 120C28.0406 120 7.24884 102.827 1.55076 79.6468C0.771698 76.4731 0.2741 73.1994 0.0827845 69.8238H0V66.8169V65.622C0.0248342 65.6127 0.0496692 65.6127 0.0754232 65.6044C5.91423 64.477 11.5461 63.7748 16.8119 63.5238C16.9038 63.5238 16.9949 63.5164 17.086 63.5164C18.2385 65.1375 19.516 66.6817 20.8672 68.1944C21.3565 68.7447 21.879 69.2625 22.4097 69.8229H23.0811C23.2467 69.6395 23.404 69.4718 23.5539 69.3134C24.5574 68.3028 25.5434 67.2662 26.5395 66.2482C27.36 65.4209 28.174 64.5946 29.0193 63.7998C29.1352 63.8091 29.252 63.8249 29.3679 63.8332C30.4376 63.9416 31.5156 64.0926 32.5936 64.2593C32.1125 64.4437 31.648 64.7429 31.2166 65.1699C29.6907 66.6641 28.1813 68.1675 26.6885 69.6877C26.6389 69.7386 26.58 69.7886 26.5386 69.847C25.2288 71.1652 23.9347 72.4936 22.6488 73.8312C21.454 75.0679 21.1551 76.5787 21.9194 78.1665C22.2 78.7593 22.5495 79.2512 22.9965 79.644C23.759 80.3221 24.8048 80.7056 26.2553 80.7556C26.6609 80.5546 27.6157 80.3295 28.2126 79.7366C28.5879 79.3772 28.954 79.0094 29.3182 78.6426Z" fill="#FDC30E"/>
<path d="M104.078 40.3533C98.3795 17.1744 77.5877 0 52.8151 0C28.0406 0 7.24884 17.1734 1.55076 40.3533C0.696276 43.827 0.173838 47.4361 0.0413887 51.1442H0V53.1821V64.7679V65.1931V65.6192C0.0248342 65.6099 0.0496692 65.6099 0.0754232 65.6016C5.91423 64.4742 11.5461 63.7721 16.8119 63.521C16.9038 63.521 16.9949 63.5136 17.086 63.5136C16.9857 63.3802 16.8946 63.2459 16.7953 63.1042C16.7043 62.9699 16.6123 62.8365 16.5221 62.7031C15.4193 61.0996 14.4563 59.4118 13.6607 57.6323C12.9239 55.9862 12.3343 54.2576 11.9278 52.4198C11.8367 51.9946 11.754 51.5675 11.6868 51.1423C11.0733 47.3332 11.5139 43.6334 12.8154 40.3514C15.3117 33.9856 21.018 29.1668 28.4987 28.0561C33.2273 27.3539 37.7297 27.6883 42.0021 29.0751C44.8304 29.9856 47.5502 31.3631 50.1541 33.2093C50.3041 33.3094 50.4365 33.427 50.7106 33.6438C48.9851 34.8971 47.3267 36.0995 45.6674 37.2945C39.7955 41.5538 33.5253 45.0618 27.0233 48.1447C26.8661 48.2281 26.7079 48.3031 26.5423 48.3781C24.5105 49.3388 22.4621 50.2494 20.3963 51.1423C19.9401 51.335 19.493 51.5268 19.0359 51.7185C18.0738 52.1196 17.0869 52.5374 16.2158 53.1053C14.6237 54.1576 14.1675 55.6777 14.873 57.0978C15.0882 57.5322 15.411 57.9491 15.8433 58.3428C17.51 59.8629 19.5915 60.5225 21.7474 60.9236C23.3653 61.2246 24.9667 61.3247 26.5414 61.2422C28.9218 61.1079 31.2525 60.5475 33.5336 59.5452C37.5972 57.7666 41.7611 56.3048 46.1236 55.4609C50.5772 54.592 54.9067 55.0515 59.1864 56.4716C63.159 57.8 67.2153 58.3761 71.3948 57.7166C71.7351 57.6582 72.2575 57.875 72.4728 58.1418C74.6867 60.8652 76.9015 63.597 79.0906 66.3362C80.0279 67.4886 80.9486 68.6493 81.8693 69.8192C82.3172 70.3787 82.7569 70.9382 83.2039 71.5061C83.3778 71.7321 83.536 71.9656 83.661 72.199C83.7264 72.3259 83.7935 72.4593 83.8432 72.5843C83.9011 72.7094 83.9425 72.8428 83.9839 72.9771C90.4794 71.2977 97.5691 68.8586 105.631 65.5256V65.0754V64.6243V53.1831V51.1451H105.59C105.454 47.4361 104.932 43.828 104.078 40.3533ZM79.0879 62.3872C77.6622 60.617 76.2522 58.8634 74.8173 57.0839C75.257 56.9496 75.5881 56.8412 75.9284 56.7411C76.6753 56.5151 77.1894 56.0723 76.9825 55.2294C76.7672 54.3771 76.162 54.1678 75.2984 54.3354C73.1672 54.7616 71.0361 55.2118 68.8883 55.4378C66.0011 55.7463 63.1489 55.2377 60.4447 54.2604C53.5031 51.7463 46.636 52.1632 39.7937 54.5448C37.1318 55.4721 34.5021 56.516 31.8807 57.56C30.0982 58.2539 28.3221 58.6707 26.5395 58.7791C24.3661 58.9292 22.177 58.6364 19.9796 57.8935C19.3992 57.6925 18.8106 57.4591 18.313 57.1163C17.8393 56.7828 17.4833 56.2733 17.0768 55.8389C17.5238 55.4461 17.9138 54.92 18.4289 54.6856C21.0824 53.4832 23.7443 52.3225 26.3988 51.1442H26.5395V51.0858C26.5726 51.0775 26.5975 51.0608 26.6232 51.0442C28.265 50.3262 29.9078 49.5907 31.533 48.8395C38.2181 45.7575 44.3714 41.7891 50.1854 37.2797C53.8094 34.4812 57.4425 31.667 61.7306 29.9375C62.4268 29.6531 63.1241 29.3946 63.8286 29.1686C69.6012 27.2557 75.5228 27.039 81.3864 29.0852C87.2013 31.1065 91.299 35.2417 93.2305 40.3542C94.475 43.6445 94.8227 47.3453 94.1503 51.1451C93.9176 52.4735 93.5524 53.8185 93.0714 55.1543C91.5372 59.3812 89.2322 63.1477 86.2631 66.5057C85.6248 67.232 85.0104 67.9758 84.281 68.828C82.5141 66.6391 80.7968 64.5011 79.0879 62.3872Z" fill="#1A3764"/>
</svg>
