<?xml version="1.0" standalone="no"?>
<!DOCTYPE svg PUBLIC "-//W3C//DTD SVG 20010904//EN"
 "http://www.w3.org/TR/2001/REC-SVG-20010904/DTD/svg10.dtd">
<svg version="1.0" xmlns="http://www.w3.org/2000/svg"
 width="256.000000pt" height="256.000000pt" viewBox="0 0 256.000000 256.000000"
 preserveAspectRatio="xMidYMid meet">
<metadata>
Created by potrace 1.14, written by Peter Selinger 2001-2017
</metadata>
<g transform="translate(0.000000,256.000000) scale(0.100000,-0.100000)"
fill="#000000" stroke="none">
<path d="M48 2543 c-14 -9 -31 -27 -37 -40 -8 -17 -11 -389 -11 -1224 0 -1112
1 -1203 17 -1230 9 -15 30 -33 46 -39 43 -14 2407 -14 2440 1 13 6 31 23 40
39 16 26 17 127 17 1230 0 1103 -1 1204 -17 1230 -9 16 -27 33 -40 39 -17 8
-382 11 -1226 11 -1102 -1 -1204 -2 -1229 -17z"/>
</g>
</svg>
