<svg
  viewBox="0 0 13 14"
  fill="none"
  xmlns="http://www.w3.org/2000/svg"
>
  <path
    fillRule="evenodd"
    clipRule="evenodd"
    d="M6.04133 0.506381C5.99234 0.51213 5.84347 0.528613 5.7105 0.543037C4.87086 0.634103 3.94107 0.949021 3.19079 1.39649C2.2359 1.96597 1.45979 2.74174 0.890067 3.69621C0.446062 4.44003 0.151162 5.30443 0.0308401 6.21481C-0.0103614 6.5265 -0.0103614 7.48026 0.0308401 7.79194C0.151162 8.70233 0.446062 9.56673 0.890067 10.3105C1.45979 11.265 2.2359 12.0408 3.19079 12.6103C3.93494 13.0541 4.79971 13.3488 5.7105 13.4691C6.02232 13.5103 6.9765 13.5103 7.28832 13.4691C8.87296 13.2598 10.2162 12.5641 11.3124 11.385C11.9189 10.7326 12.3933 9.92115 12.6845 9.03839C12.914 8.34254 12.9999 7.78846 12.9999 7.00338C12.9999 6.42259 12.9754 6.166 12.8711 5.65518C12.5135 3.90378 11.3878 2.33863 9.80803 1.39649C9.07146 0.957212 8.19312 0.656208 7.31377 0.541688C7.09058 0.512639 6.19911 0.487888 6.04133 0.506381ZM7.02111 1.28017C8.50452 1.41608 9.93708 2.16153 10.8825 3.28949C12.1211 4.76723 12.5416 6.68971 12.0327 8.54716C11.8368 9.26176 11.4895 9.94638 11.0187 10.5455C10.9335 10.6539 10.8578 10.7426 10.8503 10.7427C10.8428 10.7427 10.8035 10.6323 10.7629 10.4973C10.546 9.77539 10.0427 9.00102 9.45836 8.4898C9.09177 8.16908 8.59208 7.86111 8.14136 7.67814L8.0401 7.63703L8.12864 7.57082C8.28749 7.452 8.67887 7.04064 8.77303 6.89349C9.13274 6.33142 9.28505 5.72379 9.22189 5.10291C9.12717 4.17215 8.58445 3.37033 7.75876 2.94127C6.04283 2.04958 3.97334 3.17306 3.77692 5.10291C3.72595 5.60383 3.82255 6.13199 4.04648 6.57679C4.22673 6.93485 4.52838 7.30522 4.8221 7.5291C4.89082 7.58147 4.94688 7.63057 4.94673 7.63817C4.94655 7.64581 4.86351 7.68536 4.76222 7.72611C4.07539 8.00231 3.38644 8.54167 2.90724 9.1783C2.6298 9.54691 2.3651 10.0673 2.23508 10.5C2.19495 10.6335 2.15602 10.7427 2.14853 10.7427C2.12688 10.7426 1.83773 10.367 1.69188 10.1496C1.53247 9.91194 1.24879 9.36241 1.13384 9.06863C0.936943 8.56538 0.812779 7.98313 0.767531 7.35098C0.637157 5.52876 1.45689 3.67598 2.90327 2.52366C4.07132 1.59308 5.55294 1.14565 7.02111 1.28017ZM7.03383 3.46717C7.68771 3.6535 8.19989 4.1651 8.39669 4.82846C8.48629 5.13051 8.49309 5.56425 8.41293 5.86235C8.17607 6.74297 7.40755 7.33407 6.49941 7.33407C5.59127 7.33407 4.82274 6.74297 4.58589 5.86235C4.50573 5.56425 4.51252 5.13051 4.60213 4.82846C4.82564 4.075 5.40615 3.56487 6.21947 3.40721C6.36707 3.37859 6.84704 3.41393 7.03383 3.46717ZM7.02111 8.17636C7.80961 8.27712 8.50828 8.62907 9.10953 9.22838C9.56463 9.68201 9.84859 10.1405 10.0324 10.7184C10.0977 10.9237 10.2016 11.4067 10.1827 11.4166C10.1794 11.4183 10.1023 11.4776 10.0113 11.5485C9.22647 12.16 8.28235 12.5516 7.2247 12.7042C6.92944 12.7468 6.06937 12.7468 5.77412 12.7042C4.71647 12.5516 3.77234 12.16 2.98748 11.5485C2.8965 11.4776 2.81936 11.4182 2.81608 11.4165C2.81277 11.4147 2.82677 11.3184 2.84718 11.2025C3.07833 9.88826 4.02138 8.7861 5.29342 8.34351C5.8566 8.14759 6.39117 8.09585 7.02111 8.17636Z"
    fill="#003566"
  />
</svg>