<svg width="30" height="31" viewBox="0 0 30 31" fill="none" xmlns="http://www.w3.org/2000/svg">
<g clip-path="url(#clip0_1202_17326)">
<path d="M11.2356 0.5C9.16506 0.5 7.48535 2.17856 7.48535 4.24994C7.48535 6.32047 9.16506 7.99989 11.2356 7.99989C13.3058 7.99989 14.9855 6.32047 14.9855 4.24994C14.9855 2.17856 13.3058 0.5 11.2356 0.5ZM11.2356 5.49992C10.5444 5.49992 9.9856 4.93974 9.9856 4.24994C9.9856 3.55929 10.5444 3.00025 11.2356 3.00025C11.9265 3.00025 12.4853 3.55929 12.4853 4.24994C12.4853 4.93974 11.9265 5.49992 11.2356 5.49992Z" fill="currentColor"/>
<path d="M8.11031 24.2499V15.5H5.61035V30.5001H8.11031V26.7498H12.4851V30.5001H14.9854V24.2499H8.11031Z" fill="currentColor"/>
<path d="M20.6103 8C18.5398 8 16.8601 9.67971 16.8601 11.7502H19.3603C19.3603 11.0593 19.9191 10.5002 20.6103 10.5002C21.3013 10.5002 21.86 11.0593 21.86 11.7502V14.2502H16.235L12.485 10.5002H9.98535V22.3755H16.8601V30.5002H19.3603V22.3749C19.3603 21.0005 18.2345 19.8753 16.8601 19.8753H12.485V14.0353L15.2001 16.7499H21.86V30.5002H24.3603V11.7502C24.3603 9.67971 22.6806 8 20.6103 8Z" fill="currentColor"/>
</g>
<defs>
<clipPath id="clip0_1202_17326">
<rect width="30" height="30" fill="white" transform="translate(0 0.5)"/>
</clipPath>
</defs>
</svg>
