<svg width="25" height="24" viewBox="0 0 25 24" fill="none" xmlns="http://www.w3.org/2000/svg">
<path d="M12.5 16C14.7091 16 16.5 14.2091 16.5 12C16.5 9.79086 14.7091 8 12.5 8C10.2909 8 8.5 9.79086 8.5 12C8.5 14.2091 10.2909 16 12.5 16Z" stroke="#F44336" stroke-width="2" stroke-linecap="round" stroke-linejoin="round"/>
<path d="M16.5 8.00011V13.0001C16.5 13.7958 16.8161 14.5588 17.3787 15.1214C17.9413 15.684 18.7044 16.0001 19.5 16.0001C20.2957 16.0001 21.0587 15.684 21.6213 15.1214C22.1839 14.5588 22.5 13.7958 22.5 13.0001V12.0001C22.4999 9.74314 21.7362 7.55259 20.3333 5.78464C18.9303 4.0167 16.9706 2.77534 14.7726 2.26241C12.5747 1.74948 10.2679 1.99515 8.22736 2.95948C6.18677 3.9238 4.53241 5.55007 3.53327 7.57383C2.53413 9.5976 2.24898 11.8998 2.72418 14.1062C3.19938 16.3126 4.40699 18.2933 6.15064 19.7264C7.89429 21.1594 10.0714 21.9605 12.3281 21.9993C14.5847 22.0381 16.7881 21.3124 18.58 19.9401" stroke="#F44336" stroke-width="2" stroke-linecap="round" stroke-linejoin="round"/>
</svg>
