<svg width="161" height="105" viewBox="0 0 161 105" fill="none" xmlns="http://www.w3.org/2000/svg">
<path d="M29.0731 38.9771H86.712C88.5014 38.9771 90.2175 39.6879 91.4828 40.9532C92.7481 42.2185 93.4589 43.9346 93.4589 45.7239V86.9186H22.3262V45.7239C22.3262 43.9346 23.037 42.2185 24.3023 40.9532C25.5676 39.6879 27.2837 38.9771 29.0731 38.9771V38.9771Z" fill="#728BC9"/>
<path d="M120.159 36.4432C120.144 35.6 119.897 34.777 119.447 34.0641C118.996 33.3511 118.359 32.7754 117.603 32.3998C116.848 32.0241 116.005 31.8629 115.164 31.9336C114.324 32.0043 113.519 32.3043 112.837 32.8008C112.837 32.6527 112.851 32.5027 112.851 32.3526C112.851 31.1535 112.573 29.9707 112.038 28.8973C111.504 27.8239 110.727 26.8893 109.77 26.167C108.813 25.4447 107.701 24.9545 106.522 24.735C105.344 24.5154 104.13 24.5725 102.977 24.9018C101.824 25.2311 100.763 25.8235 99.8779 26.6325C98.9927 27.4415 98.3075 28.4449 97.8761 29.5637C97.4447 30.6825 97.2789 31.8862 97.3918 33.08C97.5047 34.2738 97.8932 35.4251 98.5267 36.4432H120.159Z" fill="#DADADA"/>
<path d="M88.9866 26.5044C89.6683 24.9282 89.75 23.1572 89.2164 21.525C88.6827 19.8928 87.5704 18.5121 86.0892 17.6432C84.6081 16.7742 82.8602 16.4771 81.1751 16.8077C79.4899 17.1382 77.9839 18.0737 76.9408 19.4379C76.0257 17.4509 74.4973 15.81 72.5802 14.7562C70.6632 13.7025 68.4587 13.2916 66.2907 13.5839C64.1228 13.8761 62.1058 14.8562 60.5363 16.38C58.9667 17.9038 57.9275 19.891 57.5712 22.0493C56.7926 21.6401 55.9223 21.4364 55.0429 21.4575C54.1635 21.4786 53.304 21.7238 52.5459 22.1699C51.7877 22.616 51.156 23.2483 50.7105 24.0068C50.265 24.7653 50.0204 25.6249 50 26.5044H88.9866Z" fill="#DADADA"/>
<path d="M93.4589 79.123H22.3262V86.9184H93.4589V79.123Z" fill="#607AA8"/>
<path d="M38.8927 28.0635H29.1484V40.1463H38.8927V28.0635Z" fill="#728BC9"/>
<path d="M32.709 59.4399H45.0783C46.0223 59.4405 46.9274 59.8158 47.5947 60.4835C48.262 61.1512 48.6369 62.0565 48.6369 63.0005V86.9186H29.1484V63.0005C29.1484 62.0562 29.5236 61.1505 30.1913 60.4828C30.859 59.8151 31.7647 59.4399 32.709 59.4399Z" fill="#2C3965"/>
<path d="M53.5079 34.4946H43.7637V46.5775H53.5079V34.4946Z" fill="#728BC9"/>
<path d="M56.7682 48.1362H65.3958V70.1582H56.7682C55.9035 70.1582 55.0742 69.8146 54.4628 69.2032C53.8513 68.5918 53.5078 67.7625 53.5078 66.8977V51.3966C53.5078 50.9685 53.5921 50.5445 53.756 50.1489C53.9198 49.7534 54.16 49.3939 54.4628 49.0912C54.7655 48.7884 55.1249 48.5483 55.5205 48.3844C55.9161 48.2206 56.3401 48.1362 56.7682 48.1362Z" fill="#2C3965"/>
<path d="M76.1673 70.1582H67.5398V48.1363H76.1673C77.032 48.1363 77.8613 48.4798 78.4728 49.0912C79.0842 49.7027 79.4277 50.532 79.4277 51.3967V66.8978C79.4277 67.326 79.3434 67.7499 79.1795 68.1455C79.0157 68.5411 78.7755 68.9005 78.4728 69.2033C78.17 69.506 77.8106 69.7462 77.415 69.91C77.0195 70.0739 76.5955 70.1582 76.1673 70.1582Z" fill="#2C3965"/>
<path d="M44.5441 76.0047C45.7281 76.0047 46.6878 75.045 46.6878 73.861C46.6878 72.6771 45.7281 71.7173 44.5441 71.7173C43.3602 71.7173 42.4004 72.6771 42.4004 73.861C42.4004 75.045 43.3602 76.0047 44.5441 76.0047Z" fill="#728BC9"/>
<path d="M119.068 44.4336H77.4015C75.7225 44.4336 74.3613 45.7947 74.3613 47.4738V70.0414C74.3613 71.7204 75.7225 73.0816 77.4015 73.0816H119.068C120.747 73.0816 122.108 71.7204 122.108 70.0414V47.4738C122.108 45.7947 120.747 44.4336 119.068 44.4336Z" fill="#DADADA"/>
<path fill-rule="evenodd" clip-rule="evenodd" d="M78.2129 62.9478C78.2129 62.5996 78.4952 62.3174 78.8433 62.3174H103.594C103.942 62.3174 104.224 62.5996 104.224 62.9478C104.224 63.296 103.942 63.5783 103.594 63.5783H78.8433C78.4952 63.5783 78.2129 63.296 78.2129 62.9478Z" fill="#2C3965"/>
<path fill-rule="evenodd" clip-rule="evenodd" d="M78.2129 66.4556C78.2129 66.1075 78.4952 65.8252 78.8433 65.8252H92.3936C92.7418 65.8252 93.0241 66.1075 93.0241 66.4556C93.0241 66.8038 92.7418 67.0861 92.3936 67.0861H78.8433C78.4952 67.0861 78.2129 66.8038 78.2129 66.4556Z" fill="#2C3965"/>
<path fill-rule="evenodd" clip-rule="evenodd" d="M78.2129 50.4752C78.2129 50.127 78.4952 49.8447 78.8433 49.8447H103.594C103.942 49.8447 104.224 50.127 104.224 50.4752C104.224 50.8234 103.942 51.1056 103.594 51.1056H78.8433C78.4952 51.1056 78.2129 50.8234 78.2129 50.4752Z" fill="#2C3965"/>
<path fill-rule="evenodd" clip-rule="evenodd" d="M78.2129 53.983C78.2129 53.6348 78.4952 53.3525 78.8433 53.3525H97.2696C97.6178 53.3525 97.9001 53.6348 97.9001 53.983C97.9001 54.3312 97.6178 54.6134 97.2696 54.6134H78.8433C78.4952 54.6134 78.2129 54.3312 78.2129 53.983Z" fill="#2C3965"/>
<path d="M115.115 48.1362H109.222C108.589 48.1362 108.076 48.6493 108.076 49.2822V55.1754C108.076 55.8083 108.589 56.3214 109.222 56.3214H115.115C115.748 56.3214 116.261 55.8083 116.261 55.1754V49.2822C116.261 48.6493 115.748 48.1362 115.115 48.1362Z" fill="#2C3965"/>
<path d="M115.115 60.6089H109.222C108.589 60.6089 108.076 61.1219 108.076 61.7548V67.6481C108.076 68.2809 108.589 68.794 109.222 68.794H115.115C115.748 68.794 116.261 68.2809 116.261 67.6481V61.7548C116.261 61.1219 115.748 60.6089 115.115 60.6089Z" fill="#2C3965"/>
<path fill-rule="evenodd" clip-rule="evenodd" d="M113.93 49.1712C114.26 49.2837 114.436 49.642 114.323 49.9715L112.622 54.9547C112.542 55.1904 112.33 55.3566 112.082 55.3789C111.834 55.4013 111.596 55.2756 111.475 55.0581L109.863 52.1679C109.694 51.8638 109.803 51.4798 110.107 51.3103C110.411 51.1407 110.795 51.2497 110.964 51.5538L111.886 53.2072L113.13 49.5641C113.243 49.2346 113.601 49.0587 113.93 49.1712Z" fill="#DADADA"/>
<path fill-rule="evenodd" clip-rule="evenodd" d="M114.028 61.6126C114.358 61.725 114.534 62.0833 114.421 62.4129L112.72 67.398C112.639 67.6337 112.428 67.7999 112.18 67.8223C111.932 67.8446 111.694 67.7189 111.573 67.5014L109.961 64.6113C109.791 64.3072 109.9 63.9232 110.204 63.7536C110.508 63.584 110.892 63.6931 111.062 63.9972L111.984 65.6503L113.228 62.0056C113.34 61.6761 113.699 61.5001 114.028 61.6126Z" fill="#DADADA"/>
<path d="M142.571 66.6505C145.262 66.6505 147.443 64.4691 147.443 61.7784C147.443 59.0876 145.262 56.9062 142.571 56.9062C139.881 56.9062 137.699 59.0876 137.699 61.7784C137.699 64.4691 139.881 66.6505 142.571 66.6505Z" fill="#2C3965"/>
<path d="M136.333 35.8586C136.333 31.1228 132.494 27.2837 127.759 27.2837C123.023 27.2837 119.184 31.1228 119.184 35.8586V56.1266C119.184 60.8624 123.023 64.7015 127.759 64.7015C132.494 64.7015 136.333 60.8624 136.333 56.1266V35.8586Z" fill="#2C3965"/>
<path fill-rule="evenodd" clip-rule="evenodd" d="M127.76 38.1973C128.191 38.1973 128.54 38.5463 128.54 38.9768V86.9183C128.54 87.3489 128.191 87.6979 127.76 87.6979C127.329 87.6979 126.98 87.3489 126.98 86.9183V38.9768C126.98 38.5463 127.329 38.1973 127.76 38.1973Z" fill="#728BC9"/>
<path fill-rule="evenodd" clip-rule="evenodd" d="M142.571 61.4297C143.002 61.4297 143.351 61.7787 143.351 62.2092V66.7186C143.351 66.7187 143.351 66.7188 143.351 66.7189C143.351 67.5801 143.182 68.4329 142.852 69.2286C142.523 70.0244 142.04 70.7475 141.431 71.3565C140.822 71.9656 140.098 72.4486 139.303 72.7781C138.507 73.1075 137.654 73.277 136.793 73.2767C136.793 73.2767 136.793 73.2767 136.793 73.2767H127.76C127.329 73.2767 126.98 72.9277 126.98 72.4972C126.98 72.0666 127.329 71.7176 127.76 71.7176H136.793C137.45 71.7179 138.1 71.5887 138.706 71.3376C139.313 71.0865 139.864 70.7183 140.328 70.2541C140.792 69.7899 141.161 69.2388 141.412 68.6322C141.663 68.0257 141.792 67.3756 141.792 66.7191V62.2092C141.792 61.7787 142.141 61.4297 142.571 61.4297Z" fill="#728BC9"/>
</svg>
