<svg width="161" height="105" viewBox="0 0 161 105" fill="none" xmlns="http://www.w3.org/2000/svg">
<path d="M29.0731 38.9768H86.712C88.5014 38.9768 90.2175 39.6876 91.4828 40.9529C92.7481 42.2182 93.4589 43.9343 93.4589 45.7237V86.9183H22.3262V45.7237C22.3262 43.9343 23.037 42.2182 24.3023 40.9529C25.5676 39.6876 27.2837 38.9768 29.0731 38.9768Z" fill="#728BC9"/>
<path d="M120.159 36.4433C120.144 35.6001 119.897 34.7771 119.447 34.0642C118.996 33.3512 118.359 32.7756 117.603 32.3999C116.848 32.0243 116.005 31.863 115.164 31.9337C114.324 32.0044 113.519 32.3044 112.837 32.801C112.837 32.6528 112.851 32.5028 112.851 32.3527C112.851 31.1536 112.573 29.9708 112.038 28.8974C111.504 27.824 110.727 26.8894 109.77 26.1671C108.813 25.4448 107.701 24.9546 106.522 24.7351C105.344 24.5155 104.13 24.5726 102.977 24.9019C101.824 25.2312 100.763 25.8236 99.8779 26.6326C98.9927 27.4416 98.3075 28.445 97.8761 29.5638C97.4447 30.6827 97.2789 31.8864 97.3918 33.0802C97.5047 34.2739 97.8932 35.4252 98.5267 36.4433H120.159Z" fill="#DADADA"/>
<path d="M88.9866 26.5042C89.6683 24.9281 89.75 23.1571 89.2164 21.5248C88.6827 19.8926 87.5704 18.512 86.0892 17.643C84.6081 16.7741 82.8602 16.477 81.1751 16.8075C79.4899 17.1381 77.9839 18.0736 76.9408 19.4377C76.0257 17.4508 74.4973 15.8098 72.5802 14.7561C70.6632 13.7024 68.4587 13.2914 66.2907 13.5837C64.1228 13.876 62.1058 14.8561 60.5363 16.3799C58.9667 17.9037 57.9275 19.8908 57.5712 22.0492C56.7926 21.64 55.9223 21.4363 55.0429 21.4574C54.1635 21.4785 53.304 21.7237 52.5459 22.1698C51.7877 22.6159 51.156 23.2482 50.7105 24.0067C50.265 24.7652 50.0204 25.6248 50 26.5042H88.9866Z" fill="#DADADA"/>
<path d="M93.4589 79.123H22.3262V86.9184H93.4589V79.123Z" fill="#607AA8"/>
<path d="M38.8927 28.0634H29.1484V40.1462H38.8927V28.0634Z" fill="#728BC9"/>
<path d="M32.709 59.4397H45.0783C46.0223 59.4402 46.9274 59.8156 47.5947 60.4832C48.262 61.1509 48.6369 62.0563 48.6369 63.0002V86.9184H29.1484V63.0002C29.1484 62.0559 29.5236 61.1503 30.1913 60.4826C30.859 59.8148 31.7647 59.4397 32.709 59.4397Z" fill="#2C3965"/>
<path d="M53.5079 34.4945H43.7637V46.5773H53.5079V34.4945Z" fill="#728BC9"/>
<path d="M56.7682 48.1365H65.3958V70.1584H56.7682C55.9035 70.1584 55.0742 69.8149 54.4628 69.2034C53.8513 68.592 53.5078 67.7627 53.5078 66.898V51.3969C53.5078 50.9687 53.5921 50.5448 53.756 50.1492C53.9198 49.7536 54.16 49.3942 54.4628 49.0914C54.7655 48.7887 55.1249 48.5485 55.5205 48.3847C55.9161 48.2208 56.3401 48.1365 56.7682 48.1365Z" fill="#2C3965"/>
<path d="M76.1673 70.1583H67.5398V48.1364H76.1673C77.032 48.1364 77.8613 48.4799 78.4728 49.0914C79.0842 49.7028 79.4277 50.5321 79.4277 51.3968V66.8979C79.4277 67.3261 79.3434 67.75 79.1795 68.1456C79.0157 68.5412 78.7755 68.9006 78.4728 69.2034C78.17 69.5061 77.8106 69.7463 77.415 69.9101C77.0195 70.074 76.5955 70.1583 76.1673 70.1583Z" fill="#2C3965"/>
<path d="M44.5441 76.0049C45.7281 76.0049 46.6878 75.0451 46.6878 73.8611C46.6878 72.6772 45.7281 71.7174 44.5441 71.7174C43.3602 71.7174 42.4004 72.6772 42.4004 73.8611C42.4004 75.0451 43.3602 76.0049 44.5441 76.0049Z" fill="#728BC9"/>
<path d="M119.068 44.4336H77.4015C75.7225 44.4336 74.3613 45.7947 74.3613 47.4738V70.0414C74.3613 71.7204 75.7225 73.0816 77.4015 73.0816H119.068C120.747 73.0816 122.108 71.7204 122.108 70.0414V47.4738C122.108 45.7947 120.747 44.4336 119.068 44.4336Z" fill="#DADADA"/>
<path fill-rule="evenodd" clip-rule="evenodd" d="M78.2129 62.9476C78.2129 62.5994 78.4952 62.3171 78.8433 62.3171H103.594C103.942 62.3171 104.224 62.5994 104.224 62.9476C104.224 63.2958 103.942 63.578 103.594 63.578H78.8433C78.4952 63.578 78.2129 63.2958 78.2129 62.9476Z" fill="#2C3965"/>
<path fill-rule="evenodd" clip-rule="evenodd" d="M78.2129 66.4555C78.2129 66.1073 78.4952 65.8251 78.8433 65.8251H92.3937C92.7418 65.8251 93.0241 66.1073 93.0241 66.4555C93.0241 66.8037 92.7418 67.086 92.3937 67.086H78.8433C78.4952 67.086 78.2129 66.8037 78.2129 66.4555Z" fill="#2C3965"/>
<path fill-rule="evenodd" clip-rule="evenodd" d="M78.2129 50.475C78.2129 50.1269 78.4952 49.8446 78.8433 49.8446H103.594C103.942 49.8446 104.224 50.1269 104.224 50.475C104.224 50.8232 103.942 51.1055 103.594 51.1055H78.8433C78.4952 51.1055 78.2129 50.8232 78.2129 50.475Z" fill="#2C3965"/>
<path fill-rule="evenodd" clip-rule="evenodd" d="M78.2129 53.983C78.2129 53.6348 78.4952 53.3525 78.8433 53.3525H97.2696C97.6178 53.3525 97.9001 53.6348 97.9001 53.983C97.9001 54.3312 97.6178 54.6134 97.2696 54.6134H78.8433C78.4952 54.6134 78.2129 54.3312 78.2129 53.983Z" fill="#2C3965"/>
<path d="M115.115 48.1365H109.222C108.589 48.1365 108.076 48.6495 108.076 49.2824V55.1757C108.076 55.8086 108.589 56.3216 109.222 56.3216H115.115C115.748 56.3216 116.261 55.8086 116.261 55.1757V49.2824C116.261 48.6495 115.748 48.1365 115.115 48.1365Z" fill="#2C3965"/>
<path d="M115.115 60.609H109.222C108.589 60.609 108.076 61.1221 108.076 61.7549V67.6482C108.076 68.2811 108.589 68.7941 109.222 68.7941H115.115C115.748 68.7941 116.261 68.2811 116.261 67.6482V61.7549C116.261 61.1221 115.748 60.609 115.115 60.609Z" fill="#2C3965"/>
<path fill-rule="evenodd" clip-rule="evenodd" d="M113.93 49.1709C114.26 49.2834 114.436 49.6418 114.323 49.9713L112.622 54.9545C112.542 55.1901 112.33 55.3563 112.082 55.3787C111.834 55.401 111.596 55.2753 111.475 55.0578L109.863 52.1677C109.694 51.8636 109.803 51.4796 110.107 51.31C110.411 51.1404 110.795 51.2495 110.964 51.5536L111.886 53.2069L113.13 49.5639C113.243 49.2344 113.601 49.0584 113.93 49.1709Z" fill="#DADADA"/>
<path fill-rule="evenodd" clip-rule="evenodd" d="M114.028 61.6123C114.358 61.7248 114.534 62.0831 114.421 62.4126L112.72 67.3977C112.639 67.6334 112.428 67.7997 112.18 67.822C111.932 67.8444 111.694 67.7187 111.573 67.5012L109.961 64.611C109.791 64.3069 109.9 63.923 110.204 63.7534C110.508 63.5838 110.892 63.6928 111.062 63.9969L111.984 65.6501L113.228 62.0054C113.34 61.6758 113.699 61.4999 114.028 61.6123Z" fill="#DADADA"/>
<path d="M142.571 66.6505C145.262 66.6505 147.443 64.4691 147.443 61.7784C147.443 59.0876 145.262 56.9062 142.571 56.9062C139.881 56.9062 137.699 59.0876 137.699 61.7784C137.699 64.4691 139.881 66.6505 142.571 66.6505Z" fill="#2C3965"/>
<path d="M136.333 35.8587C136.333 31.1229 132.494 27.2838 127.759 27.2838C123.023 27.2838 119.184 31.1229 119.184 35.8587V56.1267C119.184 60.8625 123.023 64.7016 127.759 64.7016C132.494 64.7016 136.333 60.8625 136.333 56.1267V35.8587Z" fill="#2C3965"/>
<path fill-rule="evenodd" clip-rule="evenodd" d="M127.76 38.1973C128.191 38.1973 128.54 38.5463 128.54 38.9768V86.9183C128.54 87.3489 128.191 87.6979 127.76 87.6979C127.329 87.6979 126.98 87.3489 126.98 86.9183V38.9768C126.98 38.5463 127.329 38.1973 127.76 38.1973Z" fill="#728BC9"/>
<path fill-rule="evenodd" clip-rule="evenodd" d="M142.571 61.4294C143.002 61.4294 143.351 61.7785 143.351 62.209V66.7183C143.351 66.7184 143.351 66.7185 143.351 66.7186C143.351 67.5798 143.182 68.4326 142.852 69.2284C142.523 70.0242 142.04 70.7472 141.431 71.3563C140.822 71.9653 140.098 72.4484 139.303 72.7778C138.507 73.1073 137.654 73.2767 136.793 73.2765C136.793 73.2765 136.793 73.2765 136.793 73.2765H127.76C127.329 73.2765 126.98 72.9275 126.98 72.4969C126.98 72.0664 127.329 71.7174 127.76 71.7174H136.793C137.45 71.7176 138.1 71.5885 138.706 71.3373C139.313 71.0862 139.864 70.718 140.328 70.2538C140.792 69.7896 141.161 69.2385 141.412 68.632C141.663 68.0254 141.792 67.3753 141.792 66.7189V62.209C141.792 61.7785 142.141 61.4294 142.571 61.4294Z" fill="#728BC9"/>
<circle cx="137" cy="83.5" r="19.5" fill="#38B000"/>
<path d="M124.5 84.5294L132.454 92.3153C132.843 92.6958 133.465 92.6958 133.853 92.3153L149.5 77" stroke="white" stroke-width="3" stroke-linecap="round"/>
</svg>
