<svg width="25" height="24" viewBox="0 0 25 24" fill="none" xmlns="http://www.w3.org/2000/svg">
<path d="M22.5004 16.9201V19.9201C22.5016 20.1986 22.4445 20.4743 22.3329 20.7294C22.2214 20.9846 22.0577 21.2137 21.8525 21.402C21.6473 21.5902 21.405 21.7336 21.1412 21.8228C20.8773 21.912 20.5978 21.9452 20.3204 21.9201C17.2433 21.5857 14.2874 20.5342 11.6904 18.8501C9.27425 17.3148 7.22576 15.2663 5.69042 12.8501C4.0004 10.2413 2.94866 7.27109 2.62042 4.1801C2.59543 3.90356 2.6283 3.62486 2.71692 3.36172C2.80555 3.09859 2.94799 2.85679 3.13519 2.65172C3.32238 2.44665 3.55023 2.28281 3.80421 2.17062C4.0582 2.05843 4.33276 2.00036 4.61042 2.0001H7.61042C8.09573 1.99532 8.56621 2.16718 8.93418 2.48363C9.30215 2.80008 9.5425 3.23954 9.61042 3.7201C9.73704 4.68016 9.97187 5.62282 10.3104 6.5301C10.445 6.88802 10.4741 7.27701 10.3943 7.65098C10.3146 8.02494 10.1293 8.36821 9.86042 8.6401L8.59042 9.9101C10.014 12.4136 12.0869 14.4865 14.5904 15.9101L15.8604 14.6401C16.1323 14.3712 16.4756 14.1859 16.8495 14.1062C17.2235 14.0264 17.6125 14.0556 17.9704 14.1901C18.8777 14.5286 19.8204 14.7635 20.7804 14.8901C21.2662 14.9586 21.7098 15.2033 22.027 15.5776C22.3441 15.9519 22.5126 16.4297 22.5004 16.9201Z" stroke="#F44336" stroke-width="2" stroke-linecap="round" stroke-linejoin="round"/>
</svg>
