<svg viewBox="0 0 30 31" fill="none" xmlns="http://www.w3.org/2000/svg">
  <path d="M15 10.8125C14.0729 10.8125 13.1666 10.5376 12.3958 10.0225C11.6249 9.50744 11.0241 8.77536 10.6693 7.91883C10.3145 7.0623 10.2217 6.1198 10.4026 5.21051C10.5834 4.30123 11.0299 3.466 11.6854 2.81044C12.341 2.15488 13.1762 1.70844 14.0855 1.52757C14.9948 1.3467 15.9373 1.43953 16.7938 1.79432C17.6504 2.1491 18.3824 2.74991 18.8975 3.52077C19.4126 4.29162 19.6875 5.1979 19.6875 6.125C19.6861 7.36778 19.1918 8.55927 18.3131 9.43805C17.4343 10.3168 16.2428 10.8111 15 10.8125ZM15 3.3125C14.4437 3.3125 13.9 3.47745 13.4375 3.78649C12.9749 4.09553 12.6145 4.53479 12.4016 5.0487C12.1887 5.56262 12.133 6.12812 12.2415 6.67369C12.3501 7.21926 12.6179 7.7204 13.0113 8.11374C13.4046 8.50707 13.9057 8.77494 14.4513 8.88346C14.9969 8.99198 15.5624 8.93628 16.0763 8.72341C16.5902 8.51054 17.0295 8.15005 17.3385 7.68754C17.6476 7.22503 17.8125 6.68126 17.8125 6.125C17.8118 5.37931 17.5152 4.66437 16.9879 4.13709C16.4606 3.6098 15.7457 3.31325 15 3.3125Z" fill="currentColor" stroke="currentColor" stroke-width="0.3"/>
  <path d="M16.8751 29.5629H13.1251C12.8765 29.5629 12.638 29.4641 12.4622 29.2883C12.2864 29.1125 12.1876 28.8741 12.1876 28.6254V24.8754H8.90637C8.76418 24.8754 8.62386 24.843 8.49604 24.7807C8.36822 24.7184 8.25624 24.6278 8.16858 24.5159C8.08093 24.4039 8.01988 24.2735 7.99007 24.1345C7.96026 23.9954 7.96247 23.8514 7.99652 23.7134L10.7786 12.4493C10.9611 11.463 11.4833 10.5717 12.2545 9.93023C13.0256 9.28873 13.997 8.9375 15.0001 8.9375C16.0032 8.9375 16.9746 9.28873 17.7458 9.93023C18.5169 10.5717 19.0391 11.463 19.2217 12.4493L19.3965 13.1609C20.4127 13.1998 21.3887 13.5681 22.1773 14.2102C22.9659 14.8524 23.5242 15.7335 23.7681 16.7208C24.012 17.7081 23.9282 18.7479 23.5293 19.6834C23.1305 20.6188 22.4382 21.3992 21.557 21.9068L22.0037 23.7139C22.0377 23.8519 22.0398 23.9958 22.01 24.1348C21.9801 24.2738 21.9191 24.4041 21.8314 24.516C21.7438 24.6279 21.6318 24.7184 21.5041 24.7807C21.3763 24.843 21.236 24.8753 21.0939 24.8754H17.8126V28.6254C17.8126 28.8741 17.7139 29.1125 17.538 29.2883C17.3622 29.4641 17.1238 29.5629 16.8751 29.5629ZM14.0626 27.6879H15.9376V23.9379C15.9376 23.6893 16.0364 23.4508 16.2122 23.275C16.388 23.0992 16.6265 23.0004 16.8751 23.0004H19.8962L19.5508 21.6035C19.4947 21.3762 19.5258 21.1361 19.6379 20.9305C19.75 20.7249 19.9349 20.5687 20.1564 20.4926C20.7796 20.2699 21.3044 19.8345 21.6383 19.263C21.9722 18.6915 22.0938 18.0206 21.9818 17.3683C21.8698 16.716 21.5314 16.124 21.026 15.6966C20.5206 15.2693 19.8807 15.0338 19.2189 15.0317C19.0767 15.0321 18.9346 15.042 18.7937 15.0612C18.5651 15.0917 18.3333 15.0368 18.1426 14.9071C17.9519 14.7773 17.8158 14.5819 17.7601 14.3581L17.3945 12.8721C17.3898 12.8534 17.3856 12.8342 17.3823 12.8154C17.2824 12.2535 16.9893 11.7441 16.5536 11.3754C16.2281 11.1033 15.8368 10.9216 15.419 10.8484C15.0011 10.7752 14.5713 10.8131 14.1728 10.9583C13.7742 11.1036 13.4208 11.351 13.148 11.6759C12.8751 12.0008 12.6925 12.3916 12.6184 12.8093C12.6151 12.8295 12.6104 12.8496 12.6057 12.8698L10.1036 23.0004H13.1251C13.3738 23.0004 13.6122 23.0992 13.788 23.275C13.9639 23.4508 14.0626 23.6893 14.0626 23.9379V27.6879Z" fill="currentColor" stroke="currentColor" stroke-width="0.3"/>
  <path d="M19.219 18.7808C19.1184 18.7813 19.0183 18.7654 18.9227 18.7339L16.1102 17.7964C15.9774 17.7521 15.8562 17.6785 15.7556 17.5812C15.6549 17.4838 15.5773 17.3652 15.5285 17.2339L14.1223 13.4839C14.0414 13.2525 14.0545 12.9986 14.1585 12.7767C14.2626 12.5548 14.4495 12.3824 14.6791 12.2966C14.9087 12.2108 15.1628 12.2183 15.387 12.3176C15.6111 12.4169 15.7874 12.6 15.8782 12.8277L17.1274 16.1558L19.5152 16.9527C19.7273 17.0224 19.9076 17.1655 20.0236 17.3563C20.1396 17.547 20.1837 17.7729 20.148 17.9933C20.1122 18.2137 19.9991 18.4141 19.8288 18.5584C19.6585 18.7028 19.4422 18.7817 19.219 18.7808Z" fill="currentColor" stroke="currentColor" stroke-width="0.3"/>
</svg>
