<svg width="68" height="22" viewBox="0 0 68 22" fill="none" xmlns="http://www.w3.org/2000/svg">
<path d="M47.2837 16.3701C47.1738 16.4832 47.0651 16.5974 46.9595 16.7147C46.8507 16.8346 46.7936 17.0034 46.7503 17.0826C46.7721 17.4707 46.9228 17.6792 47.1862 17.8006C47.4466 17.9176 47.6883 17.8661 47.8891 17.6657C48.2216 17.3347 48.5514 17.0007 48.8759 16.6601C48.9858 16.5443 49.0494 16.4136 49.0672 16.283C49.0931 16.0866 49.021 15.8878 48.8528 15.7231C48.5706 15.4479 48.2055 15.4479 47.9189 15.7325C47.7057 15.9436 47.4926 16.1534 47.2837 16.3701ZM46.8236 16.2707C47.1588 15.9342 47.4901 15.5937 47.8158 15.2462C47.927 15.1293 47.9798 14.9575 48.0274 14.8717C47.9962 14.4943 47.8454 14.2858 47.585 14.1633C47.3462 14.0501 47.0788 14.1034 46.8833 14.3009C46.4328 14.7559 45.9849 15.2108 45.5396 15.6713C45.5344 15.6768 45.5287 15.6819 45.5234 15.6876C45.2479 15.9723 45.2573 16.3415 45.541 16.6221C45.8179 16.8958 46.1842 16.9082 46.4598 16.6345C46.582 16.513 46.7027 16.392 46.8236 16.2707ZM45.7878 12.9329C45.3008 13.4248 44.8162 13.9193 44.3329 14.4166C44.2638 14.486 44.196 14.557 44.1281 14.6263C43.9803 14.7791 43.8879 14.9643 43.8838 15.0773C43.8785 15.5745 44.1919 15.855 44.5801 15.8114C44.7986 15.7868 44.9695 15.6739 45.1176 15.5225C45.1503 15.4902 45.1829 15.4572 45.2151 15.4248C45.7078 14.9247 46.2031 14.4248 46.6876 13.9153C46.8058 13.7913 46.9035 13.6277 46.9565 13.4644C47.0787 13.0885 46.8193 12.7206 46.4283 12.6797C46.172 12.6525 45.9615 12.7588 45.7878 12.9329ZM44.1227 14.0406C44.5488 13.6222 44.9683 13.1957 45.3766 12.76C45.6265 12.4944 45.5898 12.1213 45.3224 11.8662C45.3021 11.8474 45.282 11.8297 45.2615 11.8119C45.4448 11.8528 45.6266 11.9018 45.8043 11.9563C45.822 11.9617 45.8396 11.9672 45.8572 11.974C45.9021 12.0924 45.936 12.2163 45.9782 12.3418C46.2903 12.2177 46.5754 12.2396 46.832 12.3828C46.9172 12.4304 47.0001 12.4931 47.079 12.5665C47.4074 12.8744 47.4411 13.2668 47.3353 13.6809C48.1647 13.8661 48.4633 14.2693 48.3983 15.099C49.0753 15.2462 49.2627 15.4275 49.4786 16.1332C49.4801 16.1386 49.4826 16.1439 49.4838 16.1493C49.5029 16.1945 49.5464 16.2364 49.5859 16.2664C49.864 16.4859 50.2617 16.4435 50.5209 16.174C50.711 15.9761 50.745 15.7488 50.6118 15.5118C50.582 15.4574 50.5427 15.4015 50.4939 15.3456C49.9766 14.7558 49.4488 14.174 48.9262 13.5882C48.865 13.5188 48.7975 13.4506 48.7415 13.377C48.9234 13.4277 49.1202 13.4669 49.3252 13.4931C49.3509 13.4971 49.3782 13.4996 49.4037 13.5026C49.9154 14.0788 50.4271 14.6538 50.9416 15.2287C50.9497 15.2367 50.9565 15.2462 50.9646 15.2547C51.1791 15.4944 51.4561 15.5503 51.7368 15.4152C52.0083 15.2859 52.1725 15.0227 52.106 14.7339C52.0681 14.5691 51.9743 14.403 51.8658 14.2693C51.8319 14.2272 51.7965 14.185 51.76 14.1442C51.5699 13.9181 51.3648 13.7041 51.1668 13.4849C51.323 13.4671 51.4737 13.4455 51.6149 13.4221C51.6299 13.4193 51.6447 13.4181 51.6596 13.4154C51.756 13.5189 51.8497 13.6239 51.9448 13.7272C51.9475 13.73 51.9501 13.7327 51.9516 13.7354C52.0479 13.839 52.1496 13.9168 52.2677 13.9548C52.3655 13.9862 52.4727 13.9903 52.5922 13.9576C52.9843 13.8513 53.1784 13.4698 53.0684 13.1172C54.1314 12.8433 55.2916 12.4455 56.6109 11.9019V12.1119V12.6023H56.5973C56.566 13.1528 56.4846 13.6868 56.3569 14.2043C55.4246 17.9848 52.022 20.7857 47.9681 20.7857C43.9139 20.7857 40.5114 17.9848 39.5791 14.2043C39.4515 13.6868 39.3701 13.1528 39.3389 12.6023H39.3252V12.1119V11.917C39.3291 11.9155 39.3333 11.9155 39.3374 11.9141C40.2929 11.7303 41.2145 11.6158 42.0762 11.5748C42.0913 11.5748 42.106 11.5736 42.1211 11.5736C42.3098 11.838 42.5189 12.0898 42.7399 12.3366C42.8201 12.4263 42.9054 12.5108 42.9924 12.6022H43.1023C43.1294 12.5722 43.1553 12.5449 43.1797 12.5191C43.344 12.3542 43.5054 12.1852 43.6682 12.0191C43.8027 11.8842 43.9357 11.7495 44.074 11.6198C44.093 11.6213 44.1121 11.6239 44.1311 11.6253C44.3061 11.643 44.4826 11.6676 44.659 11.6948C44.5804 11.7248 44.5044 11.7736 44.4338 11.8433C44.1841 12.087 43.9371 12.3322 43.6928 12.5801C43.6847 12.5884 43.675 12.5966 43.6682 12.6061C43.4539 12.8211 43.2421 13.0377 43.0317 13.2559C42.8362 13.4576 42.7874 13.704 42.9123 13.9629C42.9583 14.0596 43.0155 14.1398 43.0888 14.2039C43.2134 14.3145 43.3847 14.377 43.622 14.3852C43.6884 14.3524 43.8447 14.3157 43.9423 14.219C44.0031 14.1604 44.0631 14.1004 44.1227 14.0406Z" fill="white"/>
<path d="M66.0034 12.0794C66.1596 12.4407 66.2382 12.8765 66.2382 13.386C66.2382 13.9515 66.1407 14.4801 65.945 14.9718C65.7496 15.465 65.4676 15.8939 65.0967 16.2604C64.725 16.6269 64.2675 16.9159 63.7247 17.1255C63.1804 17.3353 62.5629 17.4402 61.872 17.4402C61.4921 17.4402 61.1067 17.4007 60.713 17.3231C60.3207 17.2442 59.9393 17.1338 59.5716 16.9909C59.2039 16.8492 58.8578 16.6801 58.5345 16.4841C58.2115 16.2879 57.9293 16.0699 57.6904 15.8289L58.5266 14.502C58.5929 14.4079 58.6813 14.3275 58.7898 14.2637C58.8985 14.1982 59.0165 14.1667 59.1453 14.1667C59.3123 14.1667 59.4808 14.2201 59.6515 14.3264C59.8212 14.4325 60.014 14.5497 60.2283 14.6789C60.4428 14.8072 60.6898 14.9256 60.9681 15.032C61.2475 15.138 61.5761 15.1912 61.9561 15.1912C62.4677 15.1912 62.8669 15.0767 63.1518 14.8507C63.4356 14.6245 63.578 14.2651 63.578 13.7717C63.578 13.487 63.4994 13.2542 63.3431 13.0757C63.1872 12.8959 62.9822 12.7474 62.7296 12.6303C62.4757 12.5129 62.1867 12.4094 61.8638 12.3195C61.5393 12.2296 61.2083 12.1302 60.8676 12.0211C60.5283 11.912 60.1955 11.7786 59.8728 11.6179C59.6434 11.5049 59.4318 11.3674 59.2375 11.2024C60.4956 10.9572 61.7254 10.8169 62.8519 10.8768C63.7909 10.9272 64.6555 11.0471 65.4266 11.2024C65.6641 11.4461 65.8554 11.7375 66.0034 12.0794Z" fill="white"/>
<path d="M37.4707 12.2157C37.5915 12.5482 37.6513 12.9391 37.6513 13.386C37.6513 13.9514 37.5536 14.4801 37.3596 14.9718C37.1641 15.465 36.8803 15.8939 36.5099 16.2604C36.1393 16.6269 35.6819 16.9159 35.1378 17.1255C34.5949 17.3353 33.9774 17.4402 33.2851 17.4402C32.9064 17.4402 32.521 17.4007 32.1274 17.3231C31.7338 17.2442 31.3538 17.1338 30.986 16.9909C30.6182 16.8491 30.2721 16.6801 29.9491 16.4841C29.6246 16.2879 29.3439 16.0699 29.1035 15.8289L29.9408 14.502C30.0074 14.4079 30.0942 14.3275 30.2041 14.2637C30.3128 14.1982 30.4308 14.1667 30.5596 14.1667C30.7267 14.1667 30.8948 14.2201 31.0645 14.3264C31.2355 14.4325 31.4269 14.5497 31.6426 14.6789C31.8571 14.8072 32.1027 14.9256 32.3824 15.032C32.6607 15.138 32.9905 15.1912 33.3691 15.1912C33.882 15.1912 34.2812 15.0767 34.5648 14.8507C34.8499 14.6245 34.9924 14.2651 34.9924 13.7717C34.9924 13.487 34.9137 13.2542 34.7576 13.0756C34.6775 12.9844 34.5852 12.8999 34.4808 12.825C35.336 12.638 36.3865 12.4186 37.4707 12.2157Z" fill="white"/>
<path d="M51.5506 13.2955C51.1093 12.8106 50.6684 12.3269 50.2274 11.8406C50.1404 11.7439 50.059 11.6649 49.9313 11.7699C49.8093 11.8705 49.812 11.9742 49.9164 12.0901C50.2963 12.5123 50.675 12.9361 51.0525 13.3599C51.0714 13.3801 51.0905 13.402 51.1093 13.4223C51.1162 13.4291 51.1231 13.4374 51.1298 13.4442C51.1419 13.4579 51.1541 13.4714 51.1663 13.4851C51.3226 13.4673 51.4732 13.4457 51.6144 13.4223C51.6295 13.4196 51.6442 13.4183 51.6591 13.4156C51.6415 13.3952 51.6239 13.376 51.6051 13.3556C51.5873 13.3351 51.5682 13.3159 51.5506 13.2955Z" fill="white"/>
<path d="M49.2643 13.3446C49.2086 13.2847 49.1546 13.2233 49.1016 13.1633C49.0622 13.1183 49.0241 13.0733 48.9807 13.0311C48.8925 12.9481 48.7813 12.9438 48.7146 13.0325C48.682 13.0748 48.6645 13.151 48.6699 13.215C48.6699 13.2408 48.6752 13.264 48.6847 13.2832C48.6862 13.2859 48.6875 13.2886 48.6887 13.2913C48.7038 13.3212 48.7229 13.3501 48.7417 13.377C48.9237 13.4276 49.1204 13.4669 49.3254 13.493C49.3511 13.4971 49.3784 13.4995 49.404 13.5025C49.381 13.4767 49.3578 13.4507 49.3349 13.4249C49.3105 13.3978 49.2861 13.3718 49.2643 13.3446Z" fill="white"/>
<path d="M45.7843 11.8078C45.4709 11.2316 44.7136 11.0708 44.2086 11.496C44.1964 11.5055 44.1856 11.5149 44.1748 11.5245C44.1626 11.5354 44.1502 11.5463 44.1394 11.5572C44.1176 11.5777 44.0959 11.5981 44.0742 11.6199C44.0932 11.6214 44.1123 11.6239 44.1313 11.6253C44.3063 11.643 44.4827 11.6676 44.6591 11.6948C44.6606 11.6948 44.6606 11.6948 44.6606 11.6948C44.7202 11.7043 44.78 11.7153 44.8386 11.7249C44.9103 11.7383 44.9823 11.7519 45.0542 11.7669C45.1235 11.7806 45.1929 11.7954 45.262 11.8119C45.4453 11.8528 45.6271 11.9018 45.8047 11.9563C45.8225 11.9618 45.8401 11.9672 45.8577 11.974C45.8482 11.9453 45.8374 11.9181 45.8252 11.891C45.8127 11.8625 45.7992 11.835 45.7843 11.8078Z" fill="white"/>
<path d="M56.3569 7.79591C55.4246 4.01561 52.022 1.2146 47.9681 1.2146C43.9139 1.2146 40.5114 4.01546 39.5791 7.79591C39.4391 8.36246 39.3538 8.95106 39.3321 9.55583H39.3252V9.88821V11.7778V11.8471V11.9166C39.3291 11.9151 39.3333 11.9151 39.3374 11.9137C40.2929 11.7299 41.2145 11.6153 42.0762 11.5744C42.0913 11.5744 42.106 11.5732 42.1211 11.5732C42.1048 11.5514 42.0899 11.5295 42.0735 11.5064C42.0588 11.4845 42.0437 11.4628 42.0288 11.441C41.8483 11.1795 41.6907 10.9042 41.5605 10.614C41.44 10.3455 41.3435 10.0636 41.277 9.76387C41.2621 9.69452 41.2485 9.62488 41.2374 9.55553C41.1371 8.93429 41.2091 8.33088 41.4221 7.79561C41.8307 6.75739 42.7644 5.97148 43.9886 5.79033C44.7624 5.67582 45.4993 5.73036 46.1985 5.95652C46.6611 6.10503 47.1062 6.32969 47.5325 6.63079C47.5569 6.64711 47.5787 6.66629 47.6234 6.70164C47.341 6.90605 47.0697 7.10216 46.7981 7.29705C45.8372 7.99171 44.8111 8.56385 43.7471 9.06664C43.7212 9.08024 43.6953 9.09247 43.6684 9.10471C43.3359 9.26138 43.0007 9.40989 42.6626 9.55553C42.588 9.58696 42.5148 9.61823 42.44 9.6495C42.2824 9.71492 42.1211 9.78306 41.9785 9.87567C41.7181 10.0473 41.6433 10.2952 41.7588 10.5268C41.7938 10.5977 41.8468 10.6657 41.9177 10.7299C42.1905 10.9778 42.5309 11.0854 42.8839 11.1508C43.1487 11.1999 43.4106 11.2162 43.6684 11.2027C44.0579 11.1808 44.4393 11.0894 44.8126 10.926C45.4776 10.6359 46.159 10.3975 46.8729 10.2599C47.6017 10.1181 48.3102 10.1931 49.0104 10.4247C49.6605 10.6413 50.3243 10.7353 51.0083 10.6277C51.064 10.6182 51.1495 10.6536 51.1847 10.6971C51.547 11.1413 51.9094 11.5868 52.2677 12.0335C52.4212 12.2215 52.5719 12.4108 52.7224 12.6016C52.7955 12.6928 52.8676 12.7841 52.9408 12.8767C52.9692 12.9136 52.9951 12.9516 53.0156 12.9897C53.0263 13.0104 53.0373 13.0322 53.0454 13.0526C53.0549 13.073 53.0615 13.0947 53.0683 13.1166C54.1312 12.8427 55.2914 12.4449 56.6107 11.9013V11.8279V11.7543V9.88836V9.55598H56.6039C56.5823 8.95106 56.4968 8.36261 56.3569 7.79591ZM52.2675 11.3895C52.0342 11.1008 51.8036 10.8148 51.5686 10.5246C51.6406 10.5026 51.6948 10.485 51.7503 10.4687C51.8727 10.4318 51.9567 10.3596 51.9228 10.2221C51.8876 10.0831 51.7884 10.049 51.6471 10.0763C51.2985 10.1458 50.9496 10.2192 50.5981 10.2561C50.1256 10.3064 49.6589 10.2235 49.2164 10.0641C48.0804 9.65403 46.9566 9.72202 45.8369 10.1104C45.4013 10.2617 44.971 10.4319 44.542 10.6022C44.2503 10.7154 43.9597 10.7834 43.6679 10.801C43.3123 10.8255 42.954 10.7778 42.5943 10.6566C42.4993 10.6238 42.403 10.5857 42.3216 10.5298C42.244 10.4755 42.1859 10.3924 42.1193 10.3215C42.1924 10.2574 42.2562 10.1716 42.3405 10.1334C42.7748 9.93731 43.2104 9.74801 43.6448 9.55583H43.6678V9.54632C43.6732 9.54496 43.6773 9.54224 43.6815 9.53952C43.95 9.42243 44.219 9.30247 44.485 9.17995C45.5791 8.67731 46.5859 8.03008 47.5372 7.29463C48.1304 6.83822 48.7249 6.37924 49.4266 6.09718C49.5404 6.0508 49.6547 6.00864 49.7698 5.97178C50.7145 5.6598 51.6835 5.62445 52.643 5.95818C53.5946 6.28784 54.2652 6.96226 54.5813 7.79606C54.7851 8.3327 54.842 8.93626 54.7319 9.55598C54.6939 9.77263 54.6343 9.992 54.5554 10.2099C54.3043 10.8992 53.9271 11.5135 53.4412 12.0612C53.3368 12.1796 53.2364 12.3009 53.117 12.4399C52.8282 12.0829 52.5472 11.7342 52.2675 11.3895Z" fill="white"/>
<path d="M61.1912 7.51327C61.4507 7.28711 61.8443 7.17259 62.3747 7.17259C62.6817 7.17259 62.9544 7.21353 63.1948 7.29527C63.4336 7.37564 63.6465 7.46704 63.8339 7.56781C64.0213 7.66858 64.188 7.75983 64.336 7.84021C64.484 7.92194 64.6212 7.96288 64.7501 7.96288C64.8955 7.96288 65.0132 7.92874 65.1054 7.86211C65.1965 7.79549 65.2846 7.69457 65.3689 7.55965L66.0706 6.24088C65.8534 6.0407 65.6062 5.85956 65.3306 5.70002C65.0553 5.54063 64.7579 5.40315 64.4405 5.28863C64.123 5.17426 63.7865 5.08709 63.4321 5.02847C63.0778 4.97001 62.714 4.93994 62.3409 4.93994C61.6718 4.93994 61.0771 5.04207 60.5587 5.24648C60.0402 5.45089 59.6033 5.72329 59.2464 6.06518C58.8895 6.40722 58.6193 6.79534 58.4346 7.23272C58.2513 7.66858 58.1592 8.11683 58.1592 8.57581C58.1592 9.14674 58.2365 9.62627 58.3928 10.0144C58.5487 10.404 58.7536 10.7282 59.0075 10.9884C59.0414 11.0225 59.0752 11.0565 59.1091 11.0878C59.1514 11.1272 59.1946 11.1656 59.2381 11.2023C60.4963 10.9571 61.726 10.8168 62.8525 10.8767C63.7916 10.9271 64.6561 11.047 65.4273 11.2023C65.4161 11.1889 65.4026 11.175 65.389 11.1614C65.343 11.1152 65.2952 11.0715 65.2466 11.028C65.0279 10.836 64.7865 10.6725 64.519 10.5403C64.1935 10.3768 63.8595 10.2365 63.5202 10.1153C63.1794 9.9955 62.8471 9.88657 62.52 9.78837C62.1943 9.69032 61.9035 9.58275 61.6514 9.46552C61.3974 9.34843 61.1924 9.20808 61.0363 9.04597C60.8806 8.88386 60.8015 8.6796 60.8015 8.43304C60.8018 8.04583 60.932 7.73929 61.1912 7.51327Z" fill="white"/>
<path d="M32.6045 7.51327C32.8637 7.28711 33.2585 7.17259 33.7878 7.17259C34.0946 7.17259 34.3675 7.21353 34.6077 7.29527C34.8479 7.37564 35.0611 7.46704 35.2483 7.56781C35.4342 7.66858 35.6013 7.75983 35.7491 7.84021C35.8969 7.92194 36.0354 7.96288 36.163 7.96288C36.3083 7.96288 36.4278 7.92874 36.5185 7.86211C36.611 7.79549 36.6989 7.69457 36.7818 7.55965L37.485 6.24088C37.2678 6.0407 37.0208 5.85956 36.7452 5.70002C36.4684 5.54063 36.1725 5.40315 35.8534 5.28863C35.536 5.17426 35.2006 5.08709 34.8466 5.02847C34.4923 4.97001 34.1285 4.93994 33.7553 4.93994C33.0861 4.93994 32.4917 5.04207 31.9732 5.24648C31.4548 5.45089 31.0163 5.72329 30.6593 6.06518C30.3038 6.40722 30.0323 6.79534 29.8491 7.23272C29.6645 7.66858 29.5723 8.11683 29.5723 8.57581C29.5723 9.14674 29.651 9.62627 29.8072 10.0144C29.9633 10.404 30.168 10.7282 30.4221 10.9884C30.6759 11.2486 30.9635 11.4583 31.2879 11.6178C31.6109 11.7785 31.9422 11.9121 32.2828 12.021C32.6236 12.1301 32.9547 12.2294 33.2777 12.3194C33.6021 12.4091 33.8897 12.5126 34.1435 12.6302C34.2046 12.6586 34.2642 12.6886 34.3199 12.7214C34.377 12.7542 34.4298 12.7881 34.4814 12.8251C35.3365 12.6383 36.387 12.419 37.4712 12.2161C37.4564 12.171 37.4388 12.1287 37.4211 12.0867C37.4197 12.0839 37.4197 12.0825 37.4182 12.0798C37.2624 11.7189 37.0574 11.4137 36.8035 11.1617C36.5497 10.9098 36.2592 10.7027 35.9335 10.5406C35.6078 10.3771 35.2741 10.2368 34.9346 10.1156C34.5939 9.9958 34.26 9.88688 33.9343 9.78868C33.6086 9.69062 33.3181 9.58306 33.0643 9.46582C32.8107 9.34873 32.6055 9.20838 32.4494 9.04627C32.2933 8.88416 32.2161 8.67991 32.2161 8.43334C32.2163 8.04583 32.3451 7.73929 32.6045 7.51327Z" fill="white"/>
<path d="M22.2774 10.5947L24.8658 17.3067H22.675C22.4294 17.3067 22.2313 17.2481 22.0806 17.1336C21.9298 17.0191 21.8159 16.8721 21.7385 16.6936L21.0196 14.5604H16.3859L15.6666 16.6936C15.6041 16.8503 15.4941 16.9907 15.3355 17.1174C15.1765 17.2427 14.9801 17.3067 14.7462 17.3067H12.5381L14.8427 11.333C15.752 11.1888 16.6817 11.0483 17.6101 10.9285L17.0374 12.6301H20.375L19.7249 10.7023C20.5943 10.6301 21.4512 10.5893 22.2774 10.5947Z" fill="white"/>
<path d="M12.0435 11.7799V12.3194C12.0435 13.0699 11.9227 13.7578 11.6797 14.3845C11.4383 15.011 11.0909 15.552 10.6387 16.0046C10.1869 16.4579 9.63854 16.8111 8.99131 17.0628C8.34378 17.3148 7.61648 17.4402 6.80864 17.4402C5.99434 17.4402 5.26433 17.3148 4.61695 17.0628C3.96927 16.8111 3.42123 16.4579 2.96923 16.0046C2.51722 15.552 2.17268 15.0111 1.93231 14.3845C1.69208 13.7579 1.57227 13.0699 1.57227 12.3194V11.5741C2.47899 11.7661 3.40753 11.9542 4.39975 12.0876V12.3111C4.39975 12.7416 4.45364 13.127 4.56246 13.4649C4.67083 13.8042 4.82843 14.0917 5.03479 14.3299C5.24115 14.5683 5.49357 14.7496 5.7922 14.8762C6.09082 15.0015 6.42874 15.0642 6.80849 15.0642C7.1875 15.0642 7.52662 15.0015 7.82374 14.8762C8.12237 14.7496 8.37494 14.5698 8.5813 14.3342C8.78736 14.0997 8.9448 13.8123 9.05362 13.4732C9.16215 13.1352 9.21633 12.7496 9.21633 12.3192V12.1625C10.0973 12.0727 11.0499 11.935 12.0435 11.7799Z" fill="white"/>
<path d="M22.2237 10.4571L20.1488 5.07471H17.2549L14.8975 11.1859L14.8418 11.333C15.7511 11.1887 16.6808 11.0482 17.6092 10.9284L17.6565 10.7867L18.1576 9.29782C18.2417 9.0839 18.3301 8.83325 18.4247 8.54182C18.52 8.25039 18.6097 7.93418 18.6922 7.59365C18.7873 7.92874 18.8825 8.24072 18.9773 8.52943C19.0721 8.81709 19.162 9.06773 19.2448 9.28015L19.6788 10.569L19.7239 10.7024C20.5935 10.6302 21.4504 10.5892 22.2766 10.5948L22.2237 10.4571Z" fill="white"/>
<path d="M9.2168 12.0265V12.1626C10.0978 12.0727 11.0504 11.9351 12.0438 11.7798V11.6409V5.07471H9.2168V12.0265Z" fill="white"/>
<path d="M1.57227 11.4353V11.5741C2.47899 11.7662 3.40753 11.9542 4.39975 12.0877V11.95V5.07471H1.57227V11.4353Z" fill="white"/>
</svg>
