<svg width="363" height="245" viewBox="0 0 363 245" fill="none" xmlns="http://www.w3.org/2000/svg">
<path d="M55.7914 91.0781H190.522C194.705 91.0781 198.717 92.7391 201.674 95.6958C204.632 98.6524 206.293 102.662 206.293 106.844V203.104H40.0205V106.844C40.0205 102.662 41.6821 98.6524 44.6397 95.6958C47.5973 92.7391 51.6087 91.0781 55.7914 91.0781Z" fill="#728BC9"/>
<path d="M268.703 85.1581C268.667 83.1876 268.091 81.2647 267.038 79.5987C265.985 77.9327 264.494 76.5876 262.729 75.7098C260.964 74.832 258.992 74.4552 257.028 74.6204C255.063 74.7856 253.182 75.4866 251.588 76.6469C251.588 76.3008 251.62 75.9501 251.62 75.5995C251.621 72.7975 250.971 70.0336 249.721 67.5254C248.472 65.0172 246.657 62.8332 244.419 61.1455C242.182 59.4577 239.583 58.3122 236.827 57.7992C234.072 57.2861 231.235 57.4196 228.54 58.189C225.844 58.9585 223.365 60.3428 221.296 62.2332C219.227 64.1235 217.625 66.4682 216.617 69.0826C215.608 71.697 215.221 74.5097 215.485 77.2993C215.749 80.0888 216.657 82.7791 218.138 85.1581H268.703Z" fill="#DADADA"/>
<path d="M195.839 61.9332C197.433 58.2502 197.624 54.1118 196.376 50.2977C195.129 46.4837 192.529 43.2575 189.067 41.227C185.604 39.1966 181.519 38.5022 177.58 39.2747C173.641 40.0471 170.12 42.2332 167.682 45.4207C165.543 40.7778 161.97 36.9434 157.489 34.4811C153.008 32.0188 147.855 31.0585 142.788 31.7415C137.72 32.4245 133.005 34.7147 129.337 38.2754C125.668 41.8361 123.239 46.4795 122.406 51.523C120.586 50.5667 118.551 50.0907 116.496 50.1401C114.44 50.1894 112.431 50.7624 110.659 51.8048C108.887 52.8473 107.41 54.3246 106.369 56.097C105.327 57.8694 104.756 59.8782 104.708 61.9332H195.839Z" fill="#DADADA"/>
<path d="M206.293 184.889H40.0205V203.104H206.293V184.889Z" fill="#607AA8"/>
<path d="M78.742 65.5762H55.9648V93.8104H78.742V65.5762Z" fill="#728BC9"/>
<path d="M64.2876 138.894H93.2009C95.4074 138.895 97.5231 139.772 99.083 141.333C100.643 142.893 101.519 145.008 101.519 147.214V203.104H55.9648V147.214C55.9648 145.007 56.8417 142.891 58.4025 141.331C59.9633 139.771 62.0803 138.894 64.2876 138.894Z" fill="#2C3965"/>
<path d="M112.907 80.604H90.1299V108.838H112.907V80.604Z" fill="#728BC9"/>
<path d="M120.528 112.481H140.695V163.941H120.528C118.507 163.941 116.569 163.138 115.139 161.709C113.71 160.28 112.907 158.342 112.907 156.322V120.1C112.907 119.1 113.104 118.109 113.487 117.185C113.87 116.26 114.432 115.42 115.139 114.713C115.847 114.005 116.687 113.444 117.612 113.061C118.537 112.679 119.528 112.481 120.528 112.481Z" fill="#2C3965"/>
<path d="M165.873 163.94H145.706V112.481H165.873C167.894 112.481 169.833 113.284 171.262 114.713C172.691 116.142 173.494 118.079 173.494 120.1V156.322C173.494 157.322 173.297 158.313 172.914 159.237C172.531 160.162 171.97 161.002 171.262 161.709C170.554 162.416 169.714 162.978 168.789 163.36C167.865 163.743 166.874 163.94 165.873 163.94Z" fill="#2C3965"/>
<path d="M91.9524 177.602C94.7198 177.602 96.9633 175.359 96.9633 172.593C96.9633 169.826 94.7198 167.583 91.9524 167.583C89.1849 167.583 86.9414 169.826 86.9414 172.593C86.9414 175.359 89.1849 177.602 91.9524 177.602Z" fill="#728BC9"/>
<path d="M266.152 103.829H168.757C164.832 103.829 161.65 107.01 161.65 110.933V163.667C161.65 167.591 164.832 170.771 168.757 170.771H266.152C270.077 170.771 273.258 167.591 273.258 163.667V110.933C273.258 107.01 270.077 103.829 266.152 103.829Z" fill="#DADADA"/>
<path fill-rule="evenodd" clip-rule="evenodd" d="M170.654 147.091C170.654 146.277 171.314 145.618 172.128 145.618H229.982C230.796 145.618 231.456 146.277 231.456 147.091C231.456 147.904 230.796 148.564 229.982 148.564H172.128C171.314 148.564 170.654 147.904 170.654 147.091Z" fill="#2C3965"/>
<path fill-rule="evenodd" clip-rule="evenodd" d="M170.654 155.288C170.654 154.475 171.314 153.815 172.128 153.815H203.802C204.616 153.815 205.275 154.475 205.275 155.288C205.275 156.102 204.616 156.761 203.802 156.761H172.128C171.314 156.761 170.654 156.102 170.654 155.288Z" fill="#2C3965"/>
<path fill-rule="evenodd" clip-rule="evenodd" d="M170.654 117.946C170.654 117.133 171.314 116.473 172.128 116.473H229.982C230.796 116.473 231.456 117.133 231.456 117.946C231.456 118.76 230.796 119.419 229.982 119.419H172.128C171.314 119.419 170.654 118.76 170.654 117.946Z" fill="#2C3965"/>
<path fill-rule="evenodd" clip-rule="evenodd" d="M170.654 126.143C170.654 125.329 171.314 124.67 172.128 124.67H215.199C216.013 124.67 216.673 125.329 216.673 126.143C216.673 126.957 216.013 127.616 215.199 127.616H172.128C171.314 127.616 170.654 126.957 170.654 126.143Z" fill="#2C3965"/>
<path d="M256.913 112.481H243.138C241.658 112.481 240.459 113.68 240.459 115.159V128.93C240.459 130.409 241.658 131.608 243.138 131.608H256.913C258.393 131.608 259.592 130.409 259.592 128.93V115.159C259.592 113.68 258.393 112.481 256.913 112.481Z" fill="#2C3965"/>
<path d="M256.913 141.626H243.138C241.658 141.626 240.459 142.825 240.459 144.304V158.075C240.459 159.554 241.658 160.753 243.138 160.753H256.913C258.393 160.753 259.592 159.554 259.592 158.075V144.304C259.592 142.825 258.393 141.626 256.913 141.626Z" fill="#2C3965"/>
<path fill-rule="evenodd" clip-rule="evenodd" d="M254.146 114.899C254.917 115.162 255.328 115.999 255.065 116.769L251.088 128.413C250.9 128.964 250.405 129.352 249.826 129.404C249.246 129.457 248.69 129.163 248.406 128.655L244.639 121.901C244.243 121.191 244.498 120.293 245.208 119.897C245.919 119.501 246.817 119.756 247.213 120.466L249.368 124.33L252.276 115.817C252.539 115.047 253.376 114.636 254.146 114.899Z" fill="#DADADA"/>
<path fill-rule="evenodd" clip-rule="evenodd" d="M254.374 143.971C255.144 144.234 255.556 145.071 255.293 145.841L251.316 157.49C251.128 158.041 250.633 158.429 250.053 158.481C249.474 158.534 248.917 158.24 248.634 157.732L244.867 150.978C244.47 150.268 244.725 149.37 245.436 148.974C246.147 148.578 247.044 148.833 247.441 149.543L249.596 153.406L252.503 144.889C252.766 144.119 253.604 143.708 254.374 143.971Z" fill="#DADADA"/>
<path d="M321.09 155.744C327.379 155.744 332.478 150.646 332.478 144.359C332.478 138.071 327.379 132.974 321.09 132.974C314.8 132.974 309.701 138.071 309.701 144.359C309.701 150.646 314.8 155.744 321.09 155.744Z" fill="#2C3965"/>
<path d="M306.513 83.7921C306.513 72.7258 297.539 63.7549 286.469 63.7549C275.399 63.7549 266.425 72.7258 266.425 83.7921V131.153C266.425 142.219 275.399 151.19 286.469 151.19C297.539 151.19 306.513 142.219 306.513 131.153V83.7921Z" fill="#2C3965"/>
<path fill-rule="evenodd" clip-rule="evenodd" d="M286.469 89.2563C287.475 89.2563 288.291 90.0719 288.291 91.0779V203.104C288.291 204.11 287.475 204.925 286.469 204.925C285.462 204.925 284.646 204.11 284.646 203.104V91.0779C284.646 90.0719 285.462 89.2563 286.469 89.2563Z" fill="#728BC9"/>
<path fill-rule="evenodd" clip-rule="evenodd" d="M321.09 143.543C322.096 143.543 322.912 144.359 322.912 145.365V155.902C322.912 155.902 322.912 155.903 322.912 155.903C322.913 157.915 322.517 159.908 321.746 161.767C320.976 163.627 319.847 165.317 318.424 166.74C317 168.163 315.31 169.292 313.45 170.062C311.59 170.831 309.596 171.227 307.583 171.227C307.583 171.227 307.583 171.227 307.582 171.227H286.469C285.462 171.227 284.646 170.411 284.646 169.405C284.646 168.399 285.462 167.584 286.469 167.584H307.584C309.118 167.584 310.638 167.282 312.056 166.695C313.473 166.109 314.762 165.248 315.847 164.164C316.932 163.079 317.792 161.791 318.379 160.374C318.966 158.956 319.268 157.437 319.268 155.903V145.365C319.268 144.359 320.083 143.543 321.09 143.543Z" fill="#728BC9"/>
<ellipse cx="308.069" cy="195.116" rx="45.5813" ry="45.5661" fill="#F44336"/>
<rect width="7.01133" height="53.7536" rx="3.50567" transform="matrix(0.707225 -0.706989 0.707225 0.706989 285.862 180.21)" fill="white"/>
<rect width="7.01133" height="53.7535" rx="3.50566" transform="matrix(0.707225 0.706989 -0.707225 0.706989 323.879 175.254)" fill="white"/>
</svg>
