<svg
  xmlns="http://www.w3.org/2000/svg"
  width="30"
  height="25"
  fill="none"
  viewBox="0 0 30 25"
>
  {" "}
  <path
    fill="#1C1B1F80"
    fillRule="evenodd"
    d="M11.118.08C9.723.39 8.573 1.416 8.024 2.846a5.546 5.546 0 00-.066 3.715c.247.712.565 1.214 1.121 1.772.583.583.952.829 1.574 1.046.54.188 1.46.237 2.014.107 1.608-.378 2.847-1.733 3.264-3.573.15-.656.125-1.782-.053-2.457C15.26 1.118 13.16-.371 11.117.08zm1.642 1.826c.69.34 1.26 1.088 1.488 1.951.127.482.128 1.364 0 1.847-.234.893-.805 1.645-1.51 1.99-.303.147-.39.163-.894.163s-.59-.016-.893-.164c-.662-.323-1.242-1.074-1.486-1.922-.14-.483-.149-1.368-.02-1.866.274-1.068 1.059-1.97 1.89-2.169.426-.102 1.014-.032 1.425.17zm7.512.382c-1.655.262-3.062 1.63-3.547 3.444-.167.623-.17 1.72-.005 2.329.474 1.76 1.824 2.86 3.5 2.851 1.748-.008 3.28-1.243 3.946-3.181.183-.533.187-.565.186-1.468-.001-.842-.014-.96-.145-1.352-.419-1.248-1.351-2.192-2.499-2.53-.371-.11-1.055-.154-1.436-.093zm1.192 1.795c.762.331 1.244 1.169 1.244 2.162 0 .563-.085.923-.343 1.453-.29.595-.756 1.083-1.269 1.326-.335.159-.422.176-.902.176-.603 0-.785-.065-1.198-.43-.335-.295-.625-.888-.705-1.446-.217-1.493.86-3.154 2.171-3.351.389-.059.69-.026 1.002.11zM3.315 5.623c-2.062.5-3.143 2.889-2.328 5.14.465 1.284 1.48 2.287 2.703 2.673.548.174 1.404.173 1.964 0 .813-.253 1.541-.887 1.949-1.697.324-.646.434-1.19.402-2.006-.022-.595-.053-.78-.203-1.224-.259-.767-.557-1.242-1.146-1.829-.41-.406-.603-.552-.987-.742-.774-.382-1.615-.495-2.354-.316zm1.56 1.79c.177.086.461.297.63.469 1.175 1.186 1.104 3.2-.135 3.852-.24.127-.352.15-.731.147-.377-.002-.495-.027-.754-.16a2.43 2.43 0 01-.991-.87c-.345-.514-.485-.98-.487-1.623-.002-.589.088-.911.374-1.33.444-.655 1.328-.86 2.093-.485zM25.192 9.65c-.215.047-.645.21-.956.36-1.48.719-2.48 2.299-2.477 3.916 0 1.052.312 1.837.998 2.52.715.71 1.44.982 2.491.931.694-.033 1.18-.173 1.808-.522.485-.27 1.31-1.094 1.615-1.615.723-1.232.813-2.704.239-3.86-.278-.558-.563-.891-1.05-1.224a3.496 3.496 0 00-2.668-.506zm-12.402.636a6.916 6.916 0 00-3.237 1.476c-.746.607-1.135 1.129-2.945 3.954-.955 1.492-1.808 2.864-1.894 3.049-.525 1.123-.523 2.573.006 3.705.57 1.22 1.632 2.09 2.962 2.427.398.1.582.115 1.199.093.632-.022.79-.048 1.203-.197 2.153-.776 2.379-.823 3.882-.822.94.001 1.207.021 1.686.125.546.119.767.189 2.084.659.53.189.653.211 1.284.233 1.003.036 1.69-.132 2.5-.61.45-.264 1.175-1.003 1.464-1.49.394-.666.569-1.261.602-2.053.033-.772-.055-1.315-.31-1.923-.142-.34-2.591-4.238-3.535-5.63-.34-.5-1.017-1.24-1.475-1.61-1.453-1.178-3.59-1.719-5.476-1.386zm13.697 1.038c.164.05.387.178.537.31 1.14 1.005.549 3.147-1.078 3.906-.26.122-.388.144-.837.146-.458.002-.569-.017-.804-.137a1.627 1.627 0 01-.766-.892c-.152-.404-.126-1.162.056-1.617.512-1.278 1.797-2.041 2.892-1.716zm-11.256.694c1.197.31 2.243 1.004 2.943 1.953.48.653 3.311 5.112 3.514 5.537.163.34.2.488.223.895.049.858-.146 1.434-.68 2.01-.64.694-1.237.944-2.146.898-.475-.023-.619-.058-1.2-.287-1.356-.532-2.422-.734-3.891-.734-1.542-.001-2.593.195-3.966.74-.564.223-.708.257-1.181.281-.445.023-.608.007-.934-.093a2.834 2.834 0 01-1.746-1.61c-.11-.277-.13-.427-.131-.997-.001-.598.014-.708.142-1.007.148-.347 3.18-5.127 3.606-5.685.802-1.051 2.065-1.796 3.4-2.005.5-.078 1.55-.025 2.046.104z"
    clipRule="evenodd"
  ></path>{" "}
</svg>
