<svg width="15" height="15" viewBox="0 0 15 15" fill="none" xmlns="http://www.w3.org/2000/svg">
<g clip-path="url(#clip0_682_48243)">
<path d="M7.50066 0C5.51219 0.00215068 3.60579 0.793017 2.19973 2.19907C0.793672 3.60513 0.00280443 5.51154 0.000653749 7.5C-0.0780963 13.4831 6.97503 17.1431 11.8132 13.6356C11.8827 13.5894 11.9422 13.5297 11.9883 13.46C12.0344 13.3904 12.066 13.3122 12.0814 13.2301C12.0967 13.148 12.0955 13.0637 12.0777 12.9821C12.0599 12.9005 12.0259 12.8233 11.9778 12.7551C11.9297 12.6869 11.8684 12.6289 11.7975 12.5848C11.7267 12.5406 11.6477 12.5111 11.5652 12.498C11.4827 12.4849 11.3985 12.4884 11.3174 12.5084C11.2363 12.5284 11.1601 12.5644 11.0932 12.6144C7.06316 15.535 1.18815 12.4862 1.25065 7.5C1.59378 -0.79125 13.4088 -0.789375 13.7507 7.5V8.75C13.7507 9.08152 13.619 9.39946 13.3845 9.63388C13.1501 9.8683 12.8322 10 12.5007 10C12.1691 10 11.8512 9.8683 11.6168 9.63388C11.3824 9.39946 11.2507 9.08152 11.2507 8.75V7.5C11.0932 2.54437 3.90753 2.545 3.75066 7.5C3.75793 8.26 3.99531 8.99995 4.43152 9.62235C4.86773 10.2447 5.48228 10.7204 6.19419 10.9865C6.9061 11.2527 7.68194 11.2969 8.41947 11.1133C9.157 10.9297 9.82159 10.5269 10.3257 9.95812C10.5968 10.4366 11.0181 10.8124 11.5245 11.0272C12.0308 11.242 12.5938 11.2838 13.1263 11.1462C13.6588 11.0086 14.131 10.6992 14.4699 10.266C14.8088 9.83281 14.9953 9.29996 15.0007 8.75V7.5C14.9985 5.51154 14.2076 3.60513 12.8016 2.19907C11.3955 0.793017 9.48912 0.00215068 7.50066 0V0ZM7.50066 10C6.83762 10 6.20173 9.73661 5.73289 9.26777C5.26405 8.79892 5.00066 8.16304 5.00066 7.5C5.00066 6.83696 5.26405 6.20107 5.73289 5.73223C6.20173 5.26339 6.83762 5 7.50066 5C8.1637 5 8.79959 5.26339 9.26843 5.73223C9.73727 6.20107 10.0007 6.83696 10.0007 7.5C10.0007 8.16304 9.73727 8.79892 9.26843 9.26777C8.79959 9.73661 8.1637 10 7.50066 10Z" fill="#0057B8"/>
</g>
<defs>
<clipPath id="clip0_682_48243">
<rect width="15" height="15" fill="white"/>
</clipPath>
</defs>
</svg>
