<svg width="16" height="16" viewBox="0 0 16 16" fill="none" xmlns="http://www.w3.org/2000/svg">
<path d="M2.375 4.25H3.625H13.625" stroke="#F44336" stroke-width="1.5" stroke-linecap="round" stroke-linejoin="round"/>
<path d="M5.5 4.25V3C5.5 2.66848 5.6317 2.35054 5.86612 2.11612C6.10054 1.8817 6.41848 1.75 6.75 1.75H9.25C9.58152 1.75 9.89946 1.8817 10.1339 2.11612C10.3683 2.35054 10.5 2.66848 10.5 3V4.25M12.375 4.25V13C12.375 13.3315 12.2433 13.6495 12.0089 13.8839C11.7745 14.1183 11.4565 14.25 11.125 14.25H4.875C4.54348 14.25 4.22554 14.1183 3.99112 13.8839C3.7567 13.6495 3.625 13.3315 3.625 13V4.25H12.375Z" stroke="#F44336" stroke-width="1.5" stroke-linecap="round" stroke-linejoin="round"/>
<path d="M6.75 7.375V11.125" stroke="#F44336" stroke-width="1.5" stroke-linecap="round" stroke-linejoin="round"/>
<path d="M9.25 7.375V11.125" stroke="#F44336" stroke-width="1.5" stroke-linecap="round" stroke-linejoin="round"/>
</svg>
