<svg width="30" height="30" viewBox="0 0 30 30" fill="none" xmlns="http://www.w3.org/2000/svg">
<path d="M26.125 4.86375C25.6848 3.65902 24.8853 2.6185 23.8346 1.88279C22.7839 1.14709 21.5327 0.75168 20.25 0.75H9.75001C8.46736 0.75168 7.21614 1.14709 6.16545 1.88279C5.11477 2.6185 4.31527 3.65902 3.87501 4.86375L0.500006 14.1475C0.168068 15.0619 -0.00115592 16.0273 5.94233e-06 17V18.25C0.00223635 19.216 0.229297 20.1682 0.663212 21.0313C1.09713 21.8943 1.72599 22.6445 2.50001 23.2225C2.50001 23.2325 2.50001 23.24 2.50001 23.25V25.75C2.50001 26.7446 2.8951 27.6984 3.59836 28.4017C4.30162 29.1049 5.25545 29.5 6.25001 29.5C7.24457 29.5 8.1984 29.1049 8.90166 28.4017C9.60492 27.6984 10 26.7446 10 25.75V24.5H20V25.75C20 26.7446 20.3951 27.6984 21.0984 28.4017C21.8016 29.1049 22.7555 29.5 23.75 29.5C24.7446 29.5 25.6984 29.1049 26.4017 28.4017C27.1049 27.6984 27.5 26.7446 27.5 25.75V23.25C27.5 23.24 27.5 23.2325 27.5 23.2225C28.274 22.6445 28.9029 21.8943 29.3368 21.0313C29.7707 20.1682 29.9978 19.216 30 18.25V17C30.0013 16.0277 29.8321 15.0626 29.5 14.1488L26.125 4.86375ZM6.22751 5.71875C6.4918 4.99646 6.97118 4.37256 7.60102 3.93114C8.23086 3.48971 8.98089 3.25199 9.75001 3.25H20.25C21.0196 3.25147 21.7701 3.48896 22.4005 3.93042C23.0308 4.37188 23.5106 4.99606 23.775 5.71875L26.51 13.25H3.48876L6.22751 5.71875ZM7.50001 25.75C7.50001 26.0815 7.36831 26.3995 7.13389 26.6339C6.89947 26.8683 6.58153 27 6.25001 27C5.91849 27 5.60055 26.8683 5.36612 26.6339C5.1317 26.3995 5.00001 26.0815 5.00001 25.75V24.375C5.41142 24.4586 5.8302 24.5004 6.25001 24.5H7.50001V25.75ZM25 25.75C25 26.0815 24.8683 26.3995 24.6339 26.6339C24.3995 26.8683 24.0815 27 23.75 27C23.4185 27 23.1005 26.8683 22.8661 26.6339C22.6317 26.3995 22.5 26.0815 22.5 25.75V24.5H23.75C24.1698 24.5004 24.5886 24.4586 25 24.375V25.75ZM27.5 18.25C27.5 19.2446 27.1049 20.1984 26.4017 20.9017C25.6984 21.6049 24.7446 22 23.75 22H6.25001C5.25545 22 4.30162 21.6049 3.59836 20.9017C2.8951 20.1984 2.50001 19.2446 2.50001 18.25V17C2.5051 16.5791 2.55581 16.16 2.65126 15.75H5.00001V17C5.00001 17.3315 5.1317 17.6495 5.36612 17.8839C5.60055 18.1183 5.91849 18.25 6.25001 18.25C6.58153 18.25 6.89947 18.1183 7.13389 17.8839C7.36831 17.6495 7.50001 17.3315 7.50001 17V15.75H22.5V17C22.5 17.3315 22.6317 17.6495 22.8661 17.8839C23.1005 18.1183 23.4185 18.25 23.75 18.25C24.0815 18.25 24.3995 18.1183 24.6339 17.8839C24.8683 17.6495 25 17.3315 25 17V15.75H27.3488C27.4443 16.16 27.495 16.5791 27.5 17V18.25Z" fill="currentColor"/>
</svg>
