<svg
  xmlns="http://www.w3.org/2000/svg"
  width="24"
  height="25"
  fill="none"
  viewBox="0 0 24 25"
>
  {" "}
  <path
    fill="#1C1B1F4D"
    fillRule="evenodd"
    d="M7.433.064a2.148 2.148 0 00-.775.339C5.764.976 5.321 2.08 5.581 3.09c.18.698.683 1.323 1.296 1.61.22.102.346.192.36.255.013.054.31 1.955.66 4.225.69 4.474.673 4.401 1.02 4.635.091.062.245.134.342.16.111.032 1.538.05 3.845.05h3.668l1.139 3.655c.626 2.01 1.17 3.719 1.209 3.796.093.188.291.37.498.457.35.149.536.103 2.03-.495.774-.31 1.46-.614 1.526-.676.344-.32.407-.906.142-1.307-.155-.235-.537-.441-.813-.44-.097 0-.54.146-1.017.337-.558.223-.853.318-.867.28-.012-.031-.513-1.635-1.113-3.563-.8-2.567-1.127-3.552-1.22-3.675a1.118 1.118 0 00-.34-.27c-.21-.102-.253-.103-3.9-.103h-3.69l-.133-.893c-.075-.49-.147-.94-.16-1l-.026-.108 2.121-.014 2.122-.014.236-.147c.643-.399.616-1.361-.049-1.728-.128-.071-.427-.084-2.44-.106l-2.294-.024-.257-1.661c-.212-1.373-.245-1.668-.19-1.7.423-.236.853-.765 1.059-1.301.13-.34.174-.959.094-1.342C10.302 1.324 9.802.65 9.194.31 8.672.019 7.987-.077 7.434.064zm-2.47 8.99c-.096.036-.36.187-.586.335-2.07 1.354-3.409 3.44-3.784 5.898-.097.635-.096 1.86.002 2.48.292 1.847 1.099 3.446 2.394 4.742 1.317 1.318 2.923 2.133 4.786 2.426.61.097 2.052.083 2.638-.024a8.727 8.727 0 002.809-1.02c.738-.424 1.17-.76 1.807-1.403a7.854 7.854 0 001.524-2.094c.275-.538.306-.63.303-.88-.005-.326-.095-.525-.33-.732a.985.985 0 00-1.22-.079c-.16.113-.261.255-.472.663-.361.698-.68 1.156-1.145 1.643a6.53 6.53 0 01-3.35 1.875c-.67.148-1.9.16-2.533.025-1.339-.285-2.409-.843-3.317-1.73-1.317-1.288-1.973-2.856-1.971-4.71.001-1.306.358-2.462 1.118-3.616.36-.548 1.18-1.36 1.746-1.73.602-.394.746-.54.835-.846.09-.312.057-.524-.13-.819-.229-.361-.742-.546-1.124-.404z"
    clipRule="evenodd"
  ></path>{" "}
</svg>
