<svg width="16" height="16" viewBox="0 0 16 16" fill="none" xmlns="http://www.w3.org/2000/svg">
<g clip-path="url(#clip0_33_8768)">
<path d="M7.375 3H3C2.66848 3 2.35054 3.1317 2.11612 3.36612C1.8817 3.60054 1.75 3.91848 1.75 4.25V13C1.75 13.3315 1.8817 13.6495 2.11612 13.8839C2.35054 14.1183 2.66848 14.25 3 14.25H11.75C12.0815 14.25 12.3995 14.1183 12.6339 13.8839C12.8683 13.6495 13 13.3315 13 13V8.625" stroke="#003566" stroke-width="1.5" stroke-linecap="round" stroke-linejoin="round"/>
<path d="M12.0625 2.0624C12.3111 1.81376 12.6484 1.67407 13 1.67407C13.3516 1.67407 13.6889 1.81376 13.9375 2.0624C14.1861 2.31104 14.3258 2.64827 14.3258 2.9999C14.3258 3.35153 14.1861 3.68876 13.9375 3.9374L8 9.8749L5.5 10.4999L6.125 7.9999L12.0625 2.0624Z" stroke="#003566" stroke-width="1.5" stroke-linecap="round" stroke-linejoin="round"/>
</g>
<defs>
<clipPath id="clip0_33_8768">
<rect width="15" height="15" fill="white" transform="translate(0.5 0.5)"/>
</clipPath>
</defs>
</svg>
