<svg
  viewBox="0 0 15 26"
  xmlns="http://www.w3.org/2000/svg"
>
  <path
    fill="currentColor"
    d="M7.67019 0.555601C6.98056 0.715112 6.51273 0.985865 6.01495 1.51354C5.12828 2.45346 4.9378 3.81939 5.52571 5.02185C5.729 5.43756 6.19542 5.95937 6.60926 6.23408C7.00557 6.49712 7.60966 6.69229 8.12489 6.72376C8.67216 6.75717 9.14971 6.65736 9.69576 6.39545C10.0302 6.23506 10.1849 6.1203 10.5067 5.79425C11.1385 5.15376 11.4076 4.50248 11.4076 3.61327C11.4076 3.35586 11.3743 3.01422 11.3336 2.85407C11.0777 1.84752 10.2734 0.988649 9.27165 0.652382C8.80416 0.495461 8.11125 0.453592 7.67019 0.555601ZM8.73835 1.58526C9.35676 1.71629 9.87858 2.12682 10.1661 2.70848C10.5689 3.52353 10.3835 4.51474 9.71389 5.12674C8.66141 6.08864 7.07036 5.78433 6.43544 4.49959C6.2599 4.14447 6.25341 4.11281 6.25341 3.61327C6.25341 3.11373 6.2599 3.08207 6.43544 2.72695C6.7273 2.13634 7.24589 1.71844 7.84929 1.58746C8.25059 1.50035 8.33657 1.50016 8.73835 1.58526ZM8.39173 7.81493C7.31912 7.96491 6.37628 8.43182 5.64194 9.17665C5.43831 9.38321 5.07215 9.84938 4.81996 10.2232C4.52854 10.6551 4.29189 10.9509 4.1612 11.0464C4.04903 11.1284 3.21513 11.5672 2.30809 12.0214C0.504572 12.9247 0.364994 13.0209 0.129367 13.5236C0.0194932 13.758 0 13.8657 0 14.2392C0 14.6099 0.0197862 14.721 0.126094 14.9477C0.267871 15.2499 0.624999 15.634 0.85144 15.7278L1.00152 15.79V20.4424V25.0949L1.11311 25.2609C1.25093 25.466 1.50575 25.546 1.72789 25.454C2.04496 25.3227 2.02571 25.6265 2.03944 20.5334L2.0519 15.9044L2.93128 15.7762C3.41495 15.7057 3.9247 15.61 4.06408 15.5636C4.47377 15.4271 4.81869 15.1679 6.0445 14.0753C6.68201 13.5071 7.21511 13.0422 7.22923 13.0422C7.2434 13.0422 7.25493 15.7541 7.25493 19.0686V25.0949L7.36573 25.2593C7.55793 25.5445 7.92873 25.5728 8.16289 25.3201L8.28088 25.1928V18.9542V12.7156L8.16719 12.5003C7.99718 12.1782 7.71485 12.0009 7.33354 11.9766C7.10959 11.9624 6.9746 11.9799 6.84831 12.0399C6.75207 12.0856 6.10616 12.6257 5.41301 13.2401C4.71981 13.8545 4.04884 14.4142 3.92196 14.4837C3.73631 14.5855 3.49429 14.6392 2.68208 14.7587C2.12704 14.8404 1.60288 14.8941 1.51728 14.8781C1.43169 14.862 1.28991 14.7748 1.20217 14.6843C0.937571 14.4112 0.949101 14.0121 1.2286 13.7696C1.27833 13.7264 2.07046 13.3118 2.98883 12.8481C4.94967 11.8582 5.00116 11.8199 5.64043 10.8752C6.1768 10.0826 6.34364 9.88681 6.73047 9.59602C7.15888 9.27397 7.62754 9.05027 8.11741 8.9339C8.48729 8.84605 8.66522 8.83589 9.59414 8.84957C10.5896 8.86428 10.6625 8.8717 10.8628 8.97855C11.5005 9.31882 12.1962 10.2884 12.6547 11.4757C13.1011 12.6316 13.3546 14.0751 13.4672 16.1033C13.573 18.0069 13.3966 18.7416 12.521 20.0437C12.0034 20.8135 11.6934 21.5245 11.526 22.3261C11.4223 22.8223 11.3707 24.8741 11.4555 25.1308C11.5203 25.3273 11.7443 25.4997 11.9352 25.5C12.0932 25.5003 12.3216 25.3727 12.3949 25.2432C12.4381 25.1669 12.4661 24.7495 12.4873 23.8636C12.5101 22.9146 12.5378 22.5223 12.5971 22.3125C12.7634 21.7241 12.9826 21.2536 13.365 20.6636C14.2786 19.2542 14.5345 18.4482 14.5341 16.9809C14.5336 15.0284 14.244 12.9676 13.765 11.5066C13.1548 9.64566 12.0815 8.26219 10.9714 7.9056C10.6977 7.81771 10.5062 7.80027 9.67324 7.78742C9.13584 7.77916 8.55916 7.79153 8.39173 7.81493Z"
  />
</svg>
