<svg
  xmlns="http://www.w3.org/2000/svg"
  width="26"
  height="25"
  fill="none"
  viewBox="0 0 26 25"
>
  {" "}
  <path
    fill="#1C1B1F4D"
    fillRule="evenodd"
    d="M12.56.015c-.566.145-1.14.558-1.517 1.092-.484.685-.679 1.339-.716 2.406l-.026.743-.348.116c-1.47.491-3.181 1.697-4.459 3.145-1.73 1.96-2.994 4.611-3.578 7.503-.168.83-.345 2.187-.345 2.64v.305h-.246c-.343 0-.604.188-.737.53-.093.238-.101.337-.075.85.132 2.609 1.523 4.796 3.5 5.506l.415.149h17.046l.397-.14c1.856-.652 3.164-2.429 3.54-4.807.12-.768.119-1.253-.006-1.576a.76.76 0 00-.73-.512h-.247V17.7c0-.44-.14-1.583-.299-2.434a17.766 17.766 0 00-2.19-5.814c-1.065-1.769-2.806-3.51-4.393-4.39-.588-.328-1.36-.674-1.67-.75l-.177-.043-.025-.75c-.038-1.13-.28-1.875-.832-2.56-.499-.62-1.03-.914-1.72-.951-.242-.013-.495-.01-.562.007zm.855 1.994c.468.21.806.863.806 1.56v.293h-2.442V3.57c0-1.154.813-1.929 1.636-1.56zm1.148 3.908c3.89.85 7.065 4.588 8.085 9.516.149.716.315 1.924.315 2.283v.249H3.036v-.241c0-.386.138-1.404.293-2.174.563-2.79 1.86-5.337 3.61-7.09 1.407-1.408 3.092-2.31 4.88-2.61.653-.11 2.098-.074 2.744.067zm9.353 14.12a8.61 8.61 0 01-.226.677c-.36.976-1.07 1.788-1.904 2.17l-.41.189-8.266.017c-7.186.015-8.311.004-8.62-.08-.903-.244-1.78-1.138-2.178-2.218-.11-.3-.215-.626-.232-.723l-.031-.177h21.898l-.03.145z"
    clipRule="evenodd"
  ></path>{" "}
</svg>
