<svg width="109" height="12" viewBox="0 0 109 12" fill="none" xmlns="http://www.w3.org/2000/svg">
<path d="M2.3639 8.38125C2.58014 8.38125 2.78 8.33906 2.96348 8.25469C3.14696 8.17031 3.29767 8.05469 3.41562 7.90781C3.53357 7.75781 3.60073 7.5875 3.61712 7.39687H4.48208C4.4657 7.69687 4.35921 7.97656 4.16263 8.23594C3.96933 8.49219 3.71541 8.7 3.40087 8.85938C3.08634 9.01562 2.74069 9.09375 2.3639 9.09375C1.96419 9.09375 1.61525 9.02656 1.3171 8.89219C1.02223 8.75781 0.7765 8.57344 0.579918 8.33906C0.386612 8.10469 0.240813 7.83594 0.142522 7.53281C0.0475074 7.22656 0 6.90312 0 6.5625V6.36562C0 6.025 0.0475074 5.70312 0.142522 5.4C0.240813 5.09375 0.386612 4.82344 0.579918 4.58906C0.7765 4.35469 1.02223 4.17031 1.3171 4.03594C1.61525 3.90156 1.96419 3.83437 2.3639 3.83437C2.78 3.83437 3.14368 3.91562 3.45493 4.07812C3.76619 4.2375 4.01028 4.45625 4.1872 4.73438C4.3674 5.00937 4.4657 5.32187 4.48208 5.67188H3.61712C3.60073 5.4625 3.53848 5.27344 3.43036 5.10469C3.32552 4.93594 3.18136 4.80156 2.99788 4.70156C2.81768 4.59844 2.60635 4.54688 2.3639 4.54688C2.08541 4.54688 1.85115 4.6 1.66112 4.70625C1.47437 4.80937 1.32529 4.95 1.2139 5.12812C1.10578 5.30312 1.02714 5.49844 0.977997 5.71406C0.932128 5.92656 0.909193 6.14375 0.909193 6.36562V6.5625C0.909193 6.78437 0.932128 7.00312 0.977997 7.21875C1.02387 7.43437 1.10086 7.62969 1.20898 7.80469C1.32038 7.97969 1.46945 8.12031 1.65621 8.22656C1.84624 8.32969 2.08213 8.38125 2.3639 8.38125Z" fill="#333333"/>
<path d="M6.4135 4.725V9H5.50431V3.92812H6.38893L6.4135 4.725ZM8.07462 3.9L8.06971 4.70625C7.99435 4.69062 7.92227 4.68125 7.85346 4.67812C7.78794 4.67187 7.71258 4.66875 7.6274 4.66875C7.41771 4.66875 7.23259 4.7 7.07205 4.7625C6.91151 4.825 6.77554 4.9125 6.66414 5.025C6.55274 5.1375 6.46428 5.27187 6.39876 5.42812C6.3365 5.58125 6.29555 5.75 6.27589 5.93437L6.02033 6.075C6.02033 5.76875 6.05146 5.48125 6.11371 5.2125C6.17924 4.94375 6.27917 4.70625 6.4135 4.5C6.54783 4.29062 6.7182 4.12812 6.92461 4.0125C7.1343 3.89375 7.38331 3.83437 7.67163 3.83437C7.73715 3.83437 7.81251 3.84219 7.8977 3.85781C7.98288 3.87031 8.04186 3.88437 8.07462 3.9Z" fill="#333333"/>
<path d="M11.0234 9.09375C10.6531 9.09375 10.3173 9.03437 10.0159 8.91562C9.71772 8.79375 9.46053 8.62344 9.24428 8.40469C9.03132 8.18594 8.8675 7.92656 8.75283 7.62656C8.63816 7.32656 8.58082 6.99844 8.58082 6.64219V6.44531C8.58082 6.03281 8.64471 5.66562 8.77249 5.34375C8.90027 5.01875 9.07391 4.74375 9.29343 4.51875C9.51295 4.29375 9.76195 4.12344 10.0404 4.00781C10.3189 3.89219 10.6073 3.83437 10.9054 3.83437C11.2855 3.83437 11.6131 3.89687 11.8883 4.02187C12.1668 4.14687 12.3945 4.32187 12.5714 4.54688C12.7484 4.76875 12.8794 5.03125 12.9646 5.33437C13.0498 5.63438 13.0924 5.9625 13.0924 6.31875V6.70781H9.12142V6H12.1832V5.93437C12.1701 5.70937 12.1209 5.49062 12.0358 5.27812C11.9538 5.06562 11.8228 4.89062 11.6426 4.75312C11.4624 4.61562 11.2167 4.54688 10.9054 4.54688C10.699 4.54688 10.509 4.58906 10.3353 4.67344C10.1617 4.75469 10.0126 4.87656 9.88809 5.03906C9.76359 5.20156 9.66694 5.4 9.59813 5.63438C9.52933 5.86875 9.49493 6.13906 9.49493 6.44531V6.64219C9.49493 6.88281 9.52933 7.10938 9.59813 7.32187C9.67021 7.53125 9.77342 7.71562 9.90775 7.875C10.0454 8.03437 10.2108 8.15937 10.4041 8.25C10.6007 8.34062 10.8235 8.38594 11.0725 8.38594C11.3936 8.38594 11.6655 8.32344 11.8883 8.19844C12.1111 8.07344 12.3061 7.90625 12.4732 7.69687L13.0236 8.11406C12.9089 8.27969 12.7631 8.4375 12.5862 8.5875C12.4093 8.7375 12.1914 8.85938 11.9325 8.95312C11.677 9.04688 11.3739 9.09375 11.0234 9.09375Z" fill="#333333"/>
<path d="M17.2894 8.13281V5.52187C17.2894 5.32187 17.2468 5.14844 17.1616 5.00156C17.0797 4.85156 16.9552 4.73594 16.7881 4.65469C16.621 4.57344 16.4146 4.53281 16.1689 4.53281C15.9396 4.53281 15.7381 4.57031 15.5644 4.64531C15.394 4.72031 15.2597 4.81875 15.1614 4.94062C15.0664 5.0625 15.0189 5.19375 15.0189 5.33437H14.1097C14.1097 5.15312 14.1588 4.97344 14.2571 4.79531C14.3554 4.61719 14.4963 4.45625 14.6798 4.3125C14.8665 4.16562 15.0893 4.05 15.3482 3.96562C15.6103 3.87812 15.9019 3.83437 16.223 3.83437C16.6096 3.83437 16.9503 3.89687 17.2452 4.02187C17.5433 4.14687 17.776 4.33594 17.9431 4.58906C18.1134 4.83906 18.1986 5.15312 18.1986 5.53125V7.89375C18.1986 8.0625 18.2134 8.24219 18.2428 8.43281C18.2756 8.62344 18.3231 8.7875 18.3854 8.925V9H17.4369C17.391 8.9 17.3549 8.76719 17.3287 8.60156C17.3025 8.43281 17.2894 8.27656 17.2894 8.13281ZM17.4467 5.925L17.4565 6.53437H16.5375C16.2787 6.53437 16.0477 6.55469 15.8445 6.59531C15.6414 6.63281 15.471 6.69062 15.3334 6.76875C15.1958 6.84687 15.091 6.94531 15.0189 7.06406C14.9468 7.17969 14.9108 7.31562 14.9108 7.47187C14.9108 7.63125 14.9484 7.77656 15.0238 7.90781C15.0992 8.03906 15.2122 8.14375 15.3629 8.22187C15.5169 8.29688 15.7053 8.33437 15.9281 8.33437C16.2066 8.33437 16.4523 8.27812 16.6653 8.16562C16.8782 8.05312 17.047 7.91562 17.1715 7.75312C17.2992 7.59062 17.368 7.43281 17.3779 7.27969L17.7661 7.69687C17.7432 7.82812 17.6809 7.97344 17.5794 8.13281C17.4778 8.29219 17.3418 8.44531 17.1715 8.59219C17.0044 8.73594 16.8045 8.85625 16.5719 8.95312C16.3425 9.04688 16.0837 9.09375 15.7954 9.09375C15.435 9.09375 15.1188 9.02656 14.8469 8.89219C14.5782 8.75781 14.3685 8.57812 14.2178 8.35312C14.0704 8.125 13.9967 7.87031 13.9967 7.58906C13.9967 7.31719 14.0524 7.07812 14.1638 6.87187C14.2752 6.6625 14.4357 6.48906 14.6454 6.35156C14.8551 6.21094 15.1074 6.10469 15.4022 6.03281C15.6971 5.96094 16.0264 5.925 16.3901 5.925H17.4467Z" fill="#333333"/>
<path d="M21.855 3.92812V4.59375H18.98V3.92812H21.855ZM19.9531 2.69531H20.8623V7.74375C20.8623 7.91562 20.8902 8.04531 20.9458 8.13281C21.0015 8.22031 21.0736 8.27812 21.1621 8.30625C21.2506 8.33437 21.3456 8.34844 21.4471 8.34844C21.5225 8.34844 21.6011 8.34219 21.683 8.32969C21.7682 8.31406 21.8321 8.30156 21.8747 8.29219L21.8796 9C21.8075 9.02187 21.7125 9.04219 21.5946 9.06094C21.4799 9.08281 21.3407 9.09375 21.1768 9.09375C20.954 9.09375 20.7493 9.05156 20.5625 8.96719C20.3758 8.88281 20.2267 8.74219 20.1153 8.54531C20.0072 8.34531 19.9531 8.07656 19.9531 7.73906V2.69531Z" fill="#333333"/>
<path d="M25.1281 9.09375C24.7579 9.09375 24.4221 9.03437 24.1207 8.91562C23.8225 8.79375 23.5653 8.62344 23.3491 8.40469C23.1361 8.18594 22.9723 7.92656 22.8576 7.62656C22.7429 7.32656 22.6856 6.99844 22.6856 6.64219V6.44531C22.6856 6.03281 22.7495 5.66562 22.8773 5.34375C23.005 5.01875 23.1787 4.74375 23.3982 4.51875C23.6177 4.29375 23.8667 4.12344 24.1452 4.00781C24.4237 3.89219 24.712 3.83437 25.0102 3.83437C25.3902 3.83437 25.7179 3.89687 25.9931 4.02187C26.2716 4.14687 26.4993 4.32187 26.6762 4.54688C26.8531 4.76875 26.9842 5.03125 27.0694 5.33437C27.1546 5.63438 27.1972 5.9625 27.1972 6.31875V6.70781H23.2262V6H26.288V5.93437C26.2749 5.70937 26.2257 5.49062 26.1405 5.27812C26.0586 5.06562 25.9276 4.89062 25.7474 4.75312C25.5672 4.61562 25.3214 4.54688 25.0102 4.54688C24.8038 4.54688 24.6137 4.58906 24.4401 4.67344C24.2665 4.75469 24.1174 4.87656 23.9929 5.03906C23.8684 5.20156 23.7717 5.4 23.7029 5.63438C23.6341 5.86875 23.5997 6.13906 23.5997 6.44531V6.64219C23.5997 6.88281 23.6341 7.10938 23.7029 7.32187C23.775 7.53125 23.8782 7.71562 24.0125 7.875C24.1501 8.03437 24.3156 8.15937 24.5089 8.25C24.7055 8.34062 24.9283 8.38594 25.1773 8.38594C25.4984 8.38594 25.7703 8.32344 25.9931 8.19844C26.2159 8.07344 26.4108 7.90625 26.5779 7.69687L27.1284 8.11406C27.0137 8.27969 26.8679 8.4375 26.691 8.5875C26.514 8.7375 26.2962 8.85938 26.0373 8.95312C25.7818 9.04688 25.4787 9.09375 25.1281 9.09375Z" fill="#333333"/>
<path d="M31.6104 8.01562V1.8H32.5245V9H31.6891L31.6104 8.01562ZM28.0326 6.52031V6.42187C28.0326 6.03437 28.0818 5.68281 28.1801 5.36719C28.2816 5.04844 28.4242 4.775 28.6076 4.54688C28.7944 4.31875 29.0156 4.14375 29.2711 4.02187C29.5299 3.89687 29.8183 3.83437 30.1361 3.83437C30.4703 3.83437 30.7619 3.89062 31.0109 4.00312C31.2631 4.1125 31.4761 4.27344 31.6498 4.48594C31.8267 4.69531 31.9659 4.94844 32.0675 5.24531C32.1691 5.54219 32.2395 5.87812 32.2788 6.25312V6.68437C32.2428 7.05625 32.1723 7.39062 32.0675 7.6875C31.9659 7.98437 31.8267 8.2375 31.6498 8.44687C31.4761 8.65625 31.2631 8.81719 31.0109 8.92969C30.7586 9.03906 30.4637 9.09375 30.1262 9.09375C29.815 9.09375 29.5299 9.02969 29.2711 8.90156C29.0156 8.77344 28.7944 8.59375 28.6076 8.3625C28.4242 8.13125 28.2816 7.85937 28.1801 7.54687C28.0818 7.23125 28.0326 6.88906 28.0326 6.52031ZM28.9468 6.42187V6.52031C28.9468 6.77344 28.973 7.01094 29.0254 7.23281C29.0811 7.45469 29.1663 7.65 29.2809 7.81875C29.3956 7.9875 29.5414 8.12031 29.7183 8.21719C29.8953 8.31094 30.1066 8.35781 30.3523 8.35781C30.6537 8.35781 30.9011 8.29688 31.0944 8.175C31.291 8.05312 31.4483 7.89219 31.5662 7.69219C31.6842 7.49219 31.7759 7.275 31.8414 7.04062V5.91094C31.8021 5.73906 31.7448 5.57344 31.6694 5.41406C31.5973 5.25156 31.5023 5.10781 31.3844 4.98281C31.2697 4.85469 31.1272 4.75312 30.9568 4.67812C30.7897 4.60312 30.5915 4.56562 30.3621 4.56562C30.1131 4.56562 29.8985 4.61562 29.7183 4.71562C29.5414 4.8125 29.3956 4.94687 29.2809 5.11875C29.1663 5.2875 29.0811 5.48438 29.0254 5.70937C28.973 5.93125 28.9468 6.16875 28.9468 6.42187Z" fill="#333333"/>
<path d="M39.3263 8.1L40.6925 3.92812H41.2921L41.1742 4.75781L39.7834 9H39.1985L39.3263 8.1ZM38.4073 3.92812L39.572 8.14687L39.6556 9H39.0413L37.4981 3.92812H38.4073ZM42.5994 8.11406L43.7101 3.92812H44.6144L43.0712 9H42.4618L42.5994 8.11406ZM41.4248 3.92812L42.7616 8.02969L42.9139 9H42.334L40.9039 4.74844L40.7859 3.92812H41.4248Z" fill="#333333"/>
<path d="M46.536 3.92812V9H45.6218V3.92812H46.536ZM45.553 2.58281C45.553 2.44219 45.5973 2.32344 45.6857 2.22656C45.7775 2.12969 45.9118 2.08125 46.0887 2.08125C46.2624 2.08125 46.3951 2.12969 46.4868 2.22656C46.5818 2.32344 46.6293 2.44219 46.6293 2.58281C46.6293 2.71719 46.5818 2.83281 46.4868 2.92969C46.3951 3.02344 46.2624 3.07031 46.0887 3.07031C45.9118 3.07031 45.7775 3.02344 45.6857 2.92969C45.5973 2.83281 45.553 2.71719 45.553 2.58281Z" fill="#333333"/>
<path d="M50.2219 3.92812V4.59375H47.3469V3.92812H50.2219ZM48.3199 2.69531H49.2291V7.74375C49.2291 7.91562 49.257 8.04531 49.3127 8.13281C49.3684 8.22031 49.4405 8.27812 49.5289 8.30625C49.6174 8.33437 49.7124 8.34844 49.814 8.34844C49.8893 8.34844 49.968 8.34219 50.0499 8.32969C50.135 8.31406 50.1989 8.30156 50.2415 8.29219L50.2464 9C50.1744 9.02187 50.0793 9.04219 49.9614 9.06094C49.8467 9.08281 49.7075 9.09375 49.5437 9.09375C49.3209 9.09375 49.1161 9.05156 48.9293 8.96719C48.7426 8.88281 48.5935 8.74219 48.4821 8.54531C48.374 8.34531 48.3199 8.07656 48.3199 7.73906V2.69531Z" fill="#333333"/>
<path d="M52.1975 1.8V9H51.2883V1.8H52.1975ZM51.9813 6.27187L51.6029 6.25781C51.6061 5.91094 51.6602 5.59062 51.765 5.29688C51.8699 5 52.0173 4.74219 52.2074 4.52344C52.3974 4.30469 52.6235 4.13594 52.8856 4.01719C53.151 3.89531 53.4442 3.83437 53.7653 3.83437C54.0274 3.83437 54.2633 3.86875 54.473 3.9375C54.6827 4.00312 54.8612 4.10937 55.0087 4.25625C55.1594 4.40312 55.274 4.59375 55.3527 4.82812C55.4313 5.05937 55.4706 5.34219 55.4706 5.67656V9H54.5565V5.66719C54.5565 5.40156 54.5156 5.18906 54.4337 5.02969C54.3517 4.86719 54.2322 4.75 54.0749 4.67812C53.9176 4.60312 53.7243 4.56562 53.495 4.56562C53.2689 4.56562 53.0625 4.61094 52.8757 4.70156C52.6923 4.79219 52.5334 4.91719 52.399 5.07656C52.268 5.23594 52.1648 5.41875 52.0894 5.625C52.0173 5.82812 51.9813 6.04375 51.9813 6.27187Z" fill="#333333"/>
<path fill-rule="evenodd" clip-rule="evenodd" d="M63.2387 0.0389571C62.8957 0.0912915 62.5951 0.172599 62.2885 0.296011C61.0976 0.775371 60.2278 1.83046 59.982 3.09406C59.9161 3.43293 59.9169 4.06809 59.9836 4.38558C60.1187 5.02837 60.4231 5.62818 60.8509 6.09407C61.1082 6.37427 66.9895 11.9226 67.071 11.962C67.1747 12.0121 67.365 12.0128 67.4671 11.9634C67.5104 11.9424 68.508 11.0151 69.6839 9.9025C70.8597 8.78997 72.2375 7.48701 72.7455 7.00703C73.263 6.51811 73.7466 6.03623 73.8451 5.9112C74.8458 4.64183 74.8679 2.93102 73.9011 1.57838C73.6965 1.29211 73.2397 0.850207 72.9535 0.661734C71.8851 -0.0417867 70.4661 -0.197179 69.26 0.25729C68.7215 0.460183 68.3344 0.718633 67.7234 1.28317L67.2712 1.70093L66.804 1.27168C66.3299 0.836083 66.0955 0.658458 65.7334 0.460344C65.4482 0.304227 65.0056 0.145613 64.6704 0.0793155C64.2911 0.00426438 63.5948 -0.0153375 63.2387 0.0389571Z" fill="#F44336"/>
<path d="M81.3048 3.92812V4.59375H78.4298V3.92812H81.3048ZM79.4029 2.69531H80.3121V7.74375C80.3121 7.91562 80.3399 8.04531 80.3956 8.13281C80.4513 8.22031 80.5234 8.27812 80.6119 8.30625C80.7003 8.33437 80.7953 8.34844 80.8969 8.34844C80.9723 8.34844 81.0509 8.34219 81.1328 8.32969C81.218 8.31406 81.2819 8.30156 81.3245 8.29219L81.3294 9C81.2573 9.02187 81.1623 9.04219 81.0443 9.06094C80.9297 9.08281 80.7904 9.09375 80.6266 9.09375C80.4038 9.09375 80.199 9.05156 80.0123 8.96719C79.8255 8.88281 79.6765 8.74219 79.5651 8.54531C79.4569 8.34531 79.4029 8.07656 79.4029 7.73906V2.69531Z" fill="#333333"/>
<path d="M82.0322 6.52031V6.4125C82.0322 6.04687 82.0879 5.70781 82.1993 5.39531C82.3107 5.07969 82.4712 4.80625 82.6809 4.575C82.8906 4.34062 83.1445 4.15937 83.4427 4.03125C83.7408 3.9 84.075 3.83437 84.4452 3.83437C84.8187 3.83437 85.1546 3.9 85.4527 4.03125C85.7541 4.15937 86.0097 4.34062 86.2194 4.575C86.4323 4.80625 86.5945 5.07969 86.7059 5.39531C86.8173 5.70781 86.873 6.04687 86.873 6.4125V6.52031C86.873 6.88594 86.8173 7.225 86.7059 7.5375C86.5945 7.85 86.4323 8.12344 86.2194 8.35781C86.0097 8.58906 85.7558 8.77031 85.4576 8.90156C85.1628 9.02969 84.8286 9.09375 84.4551 9.09375C84.0816 9.09375 83.7457 9.02969 83.4476 8.90156C83.1494 8.77031 82.8939 8.58906 82.6809 8.35781C82.4712 8.12344 82.3107 7.85 82.1993 7.5375C82.0879 7.225 82.0322 6.88594 82.0322 6.52031ZM82.9414 6.4125V6.52031C82.9414 6.77344 82.9725 7.0125 83.0347 7.2375C83.097 7.45937 83.1904 7.65625 83.3149 7.82812C83.4427 8 83.6016 8.13594 83.7916 8.23594C83.9816 8.33281 84.2028 8.38125 84.4551 8.38125C84.7041 8.38125 84.9219 8.33281 85.1087 8.23594C85.2987 8.13594 85.456 8 85.5805 7.82812C85.705 7.65625 85.7984 7.45937 85.8606 7.2375C85.9261 7.0125 85.9589 6.77344 85.9589 6.52031V6.4125C85.9589 6.1625 85.9261 5.92656 85.8606 5.70469C85.7984 5.47969 85.7034 5.28125 85.5756 5.10938C85.4511 4.93437 85.2938 4.79687 85.1038 4.69687C84.917 4.59687 84.6975 4.54688 84.4452 4.54688C84.1962 4.54688 83.9767 4.59687 83.7867 4.69687C83.5999 4.79687 83.4427 4.93437 83.3149 5.10938C83.1904 5.28125 83.097 5.47969 83.0347 5.70469C82.9725 5.92656 82.9414 6.1625 82.9414 6.4125Z" fill="#333333"/>
<path fill-rule="evenodd" clip-rule="evenodd" d="M92.225 7.93644e-09H109V12H92.225V7.93644e-09Z" fill="#FFD700"/>
<path fill-rule="evenodd" clip-rule="evenodd" d="M92.225 7.93644e-09H109V6H92.225V7.93644e-09Z" fill="#0057B8"/>
</svg>
