<svg width="160" height="105" viewBox="0 0 160 105" fill="none" xmlns="http://www.w3.org/2000/svg">
<path d="M28.574 38.9768H86.213C88.0024 38.9768 89.7185 39.6876 90.9838 40.9529C92.2491 42.2182 92.9599 43.9343 92.9599 45.7237V86.9183H21.8271V45.7237C21.8271 43.9343 22.538 42.2182 23.8033 40.9529C25.0686 39.6876 26.7847 38.9768 28.574 38.9768Z" fill="#728BC9"/>
<path d="M119.659 36.4433C119.644 35.6001 119.397 34.7771 118.947 34.0642C118.496 33.3512 117.859 32.7756 117.103 32.3999C116.348 32.0243 115.505 31.863 114.664 31.9337C113.824 32.0044 113.019 32.3044 112.337 32.801C112.337 32.6528 112.351 32.5028 112.351 32.3527C112.351 31.1536 112.073 29.9708 111.538 28.8974C111.004 27.824 110.227 26.8894 109.27 26.1671C108.313 25.4448 107.201 24.9546 106.022 24.7351C104.844 24.5155 103.63 24.5726 102.477 24.9019C101.324 25.2312 100.263 25.8236 99.3779 26.6326C98.4927 27.4416 97.8075 28.445 97.3761 29.5638C96.9447 30.6827 96.7789 31.8864 96.8918 33.0802C97.0047 34.2739 97.3932 35.4252 98.0267 36.4433H119.659Z" fill="#DADADA"/>
<path d="M88.4871 26.5042C89.1688 24.9281 89.2505 23.1571 88.7168 21.5248C88.1832 19.8926 87.0709 18.512 85.5897 17.643C84.1085 16.7741 82.3607 16.477 80.6756 16.8075C78.9904 17.1381 77.4844 18.0736 76.4413 19.4377C75.5262 17.4508 73.9977 15.8098 72.0807 14.7561C70.1637 13.7024 67.9591 13.2914 65.7912 13.5837C63.6233 13.876 61.6063 14.8561 60.0368 16.3799C58.4672 17.9037 57.428 19.8908 57.0717 22.0492C56.2931 21.64 55.4228 21.4363 54.5434 21.4574C53.664 21.4785 52.8045 21.7237 52.0464 22.1698C51.2882 22.6159 50.6565 23.2482 50.211 24.0067C49.7655 24.7652 49.5209 25.6248 49.5005 26.5042H88.4871Z" fill="#DADADA"/>
<path d="M92.9599 79.123H21.8271V86.9184H92.9599V79.123Z" fill="#607AA8"/>
<path d="M38.3922 28.0634H28.6479V40.1462H38.3922V28.0634Z" fill="#728BC9"/>
<path d="M32.2085 59.4397H44.5778C45.5218 59.4402 46.4269 59.8156 47.0942 60.4832C47.7615 61.1509 48.1364 62.0563 48.1364 63.0002V86.9184H28.6479V63.0002C28.6479 62.0559 29.0231 61.1503 29.6908 60.4826C30.3585 59.8148 31.2642 59.4397 32.2085 59.4397Z" fill="#2C3965"/>
<path d="M53.0086 34.4945H43.2644V46.5773H53.0086V34.4945Z" fill="#728BC9"/>
<path d="M56.269 48.1365H64.8965V70.1584H56.269C55.4042 70.1584 54.5749 69.8149 53.9635 69.2034C53.3521 68.592 53.0085 67.7627 53.0085 66.898V51.3969C53.0085 50.9687 53.0929 50.5448 53.2567 50.1492C53.4206 49.7536 53.6607 49.3942 53.9635 49.0914C54.2663 48.7887 54.6257 48.5485 55.0213 48.3847C55.4168 48.2208 55.8408 48.1365 56.269 48.1365Z" fill="#2C3965"/>
<path d="M75.6678 70.1583H67.0403V48.1364H75.6678C76.5325 48.1364 77.3618 48.4799 77.9733 49.0914C78.5847 49.7028 78.9282 50.5321 78.9282 51.3968V66.8979C78.9282 67.3261 78.8439 67.75 78.68 68.1456C78.5162 68.5412 78.276 68.9006 77.9733 69.2034C77.6705 69.5061 77.3111 69.7463 76.9155 69.9101C76.5199 70.074 76.096 70.1583 75.6678 70.1583Z" fill="#2C3965"/>
<path d="M44.0439 76.0049C45.2278 76.0049 46.1876 75.0451 46.1876 73.8611C46.1876 72.6772 45.2278 71.7174 44.0439 71.7174C42.8599 71.7174 41.9001 72.6772 41.9001 73.8611C41.9001 75.0451 42.8599 76.0049 44.0439 76.0049Z" fill="#728BC9"/>
<path d="M118.568 44.4336H76.9013C75.2222 44.4336 73.8611 45.7947 73.8611 47.4738V70.0414C73.8611 71.7204 75.2222 73.0816 76.9013 73.0816H118.568C120.247 73.0816 121.608 71.7204 121.608 70.0414V47.4738C121.608 45.7947 120.247 44.4336 118.568 44.4336Z" fill="#DADADA"/>
<path fill-rule="evenodd" clip-rule="evenodd" d="M77.7131 62.9476C77.7131 62.5994 77.9954 62.3171 78.3436 62.3171H103.094C103.442 62.3171 103.724 62.5994 103.724 62.9476C103.724 63.2958 103.442 63.578 103.094 63.578H78.3436C77.9954 63.578 77.7131 63.2958 77.7131 62.9476Z" fill="#2C3965"/>
<path fill-rule="evenodd" clip-rule="evenodd" d="M77.7131 66.4555C77.7131 66.1073 77.9954 65.8251 78.3436 65.8251H91.8939C92.2421 65.8251 92.5243 66.1073 92.5243 66.4555C92.5243 66.8037 92.2421 67.086 91.8939 67.086H78.3436C77.9954 67.086 77.7131 66.8037 77.7131 66.4555Z" fill="#2C3965"/>
<path fill-rule="evenodd" clip-rule="evenodd" d="M77.7131 50.475C77.7131 50.1269 77.9954 49.8446 78.3436 49.8446H103.094C103.442 49.8446 103.724 50.1269 103.724 50.475C103.724 50.8232 103.442 51.1055 103.094 51.1055H78.3436C77.9954 51.1055 77.7131 50.8232 77.7131 50.475Z" fill="#2C3965"/>
<path fill-rule="evenodd" clip-rule="evenodd" d="M77.7131 53.983C77.7131 53.6348 77.9954 53.3525 78.3436 53.3525H96.7699C97.1181 53.3525 97.4003 53.6348 97.4003 53.983C97.4003 54.3312 97.1181 54.6134 96.7699 54.6134H78.3436C77.9954 54.6134 77.7131 54.3312 77.7131 53.983Z" fill="#2C3965"/>
<path d="M114.615 48.1365H108.722C108.089 48.1365 107.576 48.6495 107.576 49.2824V55.1757C107.576 55.8086 108.089 56.3216 108.722 56.3216H114.615C115.248 56.3216 115.761 55.8086 115.761 55.1757V49.2824C115.761 48.6495 115.248 48.1365 114.615 48.1365Z" fill="#2C3965"/>
<path d="M114.615 60.609H108.722C108.089 60.609 107.576 61.1221 107.576 61.7549V67.6482C107.576 68.2811 108.089 68.7941 108.722 68.7941H114.615C115.248 68.7941 115.761 68.2811 115.761 67.6482V61.7549C115.761 61.1221 115.248 60.609 114.615 60.609Z" fill="#2C3965"/>
<path fill-rule="evenodd" clip-rule="evenodd" d="M113.431 49.1709C113.761 49.2834 113.937 49.6418 113.824 49.9713L112.123 54.9545C112.043 55.1901 111.831 55.3563 111.583 55.3787C111.335 55.401 111.097 55.2753 110.976 55.0578L109.364 52.1677C109.195 51.8636 109.304 51.4796 109.608 51.31C109.912 51.1404 110.296 51.2495 110.465 51.5536L111.387 53.2069L112.631 49.5639C112.744 49.2344 113.102 49.0584 113.431 49.1709Z" fill="#DADADA"/>
<path fill-rule="evenodd" clip-rule="evenodd" d="M113.529 61.6123C113.858 61.7248 114.034 62.0831 113.922 62.4126L112.221 67.3977C112.14 67.6334 111.928 67.7997 111.68 67.822C111.432 67.8444 111.195 67.7187 111.073 67.5012L109.462 64.611C109.292 64.3069 109.401 63.923 109.705 63.7534C110.009 63.5838 110.393 63.6928 110.563 63.9969L111.485 65.6501L112.729 62.0054C112.841 61.6758 113.199 61.4999 113.529 61.6123Z" fill="#DADADA"/>
<path d="M142.071 66.6505C144.761 66.6505 146.943 64.4691 146.943 61.7784C146.943 59.0876 144.761 56.9062 142.071 56.9062C139.38 56.9062 137.198 59.0876 137.198 61.7784C137.198 64.4691 139.38 66.6505 142.071 66.6505Z" fill="#2C3965"/>
<path d="M135.834 35.8587C135.834 31.1229 131.995 27.2838 127.259 27.2838C122.524 27.2838 118.685 31.1229 118.685 35.8587V56.1267C118.685 60.8625 122.524 64.7016 127.259 64.7016C131.995 64.7016 135.834 60.8625 135.834 56.1267V35.8587Z" fill="#2C3965"/>
<path fill-rule="evenodd" clip-rule="evenodd" d="M127.26 38.1973C127.69 38.1973 128.039 38.5463 128.039 38.9768V86.9183C128.039 87.3489 127.69 87.6979 127.26 87.6979C126.829 87.6979 126.48 87.3489 126.48 86.9183V38.9768C126.48 38.5463 126.829 38.1973 127.26 38.1973Z" fill="#728BC9"/>
<path fill-rule="evenodd" clip-rule="evenodd" d="M142.071 61.4294C142.501 61.4294 142.85 61.7785 142.85 62.209V66.7183C142.85 66.7184 142.85 66.7185 142.85 66.7186C142.851 67.5798 142.681 68.4326 142.352 69.2284C142.022 70.0242 141.539 70.7472 140.93 71.3563C140.321 71.9653 139.598 72.4484 138.802 72.7778C138.006 73.1073 137.154 73.2767 136.292 73.2765C136.292 73.2765 136.292 73.2765 136.292 73.2765H127.26C126.829 73.2765 126.48 72.9275 126.48 72.4969C126.48 72.0664 126.829 71.7174 127.26 71.7174H136.293C136.949 71.7176 137.599 71.5885 138.206 71.3373C138.812 71.0862 139.363 70.718 139.828 70.2538C140.292 69.7896 140.66 69.2385 140.911 68.632C141.162 68.0254 141.291 67.3753 141.291 66.7189V62.209C141.291 61.7785 141.64 61.4294 142.071 61.4294Z" fill="#728BC9"/>
</svg>
