<svg width="28" height="26" viewBox="0 0 28 26" fill="none" xmlns="http://www.w3.org/2000/svg">
<path d="M7.95652 1H3.78261C3.04462 1 2.33685 1.28095 1.81501 1.78105C1.29317 2.28115 1 2.95942 1 3.66667V7.66667M26.0435 7.66667V3.66667C26.0435 2.95942 25.7503 2.28115 25.2285 1.78105C24.7066 1.28095 23.9989 1 23.2609 1H19.087M19.087 25H23.2609C23.9989 25 24.7066 24.719 25.2285 24.219C25.7503 23.7189 26.0435 23.0406 26.0435 22.3333V18.3333M1 18.3333V22.3333C1 23.0406 1.29317 23.7189 1.81501 24.219C2.33685 24.719 3.04462 25 3.78261 25H7.95652" stroke="#38B000" stroke-width="2" stroke-linecap="round" stroke-linejoin="round"/>
<path d="M20.5994 19.7826V18.3913C20.5994 17.6533 20.2552 16.9455 19.6426 16.4237C19.03 15.9018 18.1992 15.6086 17.3328 15.6086H10.7997C9.9334 15.6086 9.10255 15.9018 8.48995 16.4237C7.87736 16.9455 7.5332 17.6533 7.5332 18.3913V19.7826" stroke="#38B000" stroke-width="2" stroke-linecap="round" stroke-linejoin="round"/>
<path d="M14.0663 12.4782C15.8704 12.4782 17.3329 11.0766 17.3329 9.34772C17.3329 7.61883 15.8704 6.21729 14.0663 6.21729C12.2623 6.21729 10.7998 7.61883 10.7998 9.34772C10.7998 11.0766 12.2623 12.4782 14.0663 12.4782Z" stroke="#38B000" stroke-width="2" stroke-linecap="round" stroke-linejoin="round"/>
</svg>
