<svg width="13" height="13" viewBox="0 0 13 13" fill="none" xmlns="http://www.w3.org/2000/svg">
<path d="M6.5 0.25C5.26387 0.25 4.0555 0.616556 3.02769 1.30332C1.99988 1.99007 1.1988 2.96619 0.725756 4.10823C0.252708 5.25027 0.128937 6.50693 0.370095 7.71932C0.611252 8.9317 1.20651 10.0453 2.08059 10.9194C2.95466 11.7935 4.06831 12.3888 5.28069 12.6299C6.49307 12.8711 7.74974 12.7473 8.89178 12.2743C10.0338 11.8012 11.0099 11.0001 11.6967 9.97232C12.3834 8.94451 12.75 7.73613 12.75 6.5C12.7482 4.84296 12.0891 3.2543 10.9174 2.08259C9.7457 0.910884 8.15705 0.25182 6.5 0.25ZM6.5 10.25C6.37639 10.25 6.25555 10.2133 6.15277 10.1447C6.04999 10.076 5.96988 9.97838 5.92258 9.86418C5.87527 9.74998 5.8629 9.62431 5.88701 9.50307C5.91113 9.38183 5.97065 9.27047 6.05806 9.18306C6.14547 9.09565 6.25683 9.03613 6.37807 9.01201C6.49931 8.9879 6.62498 9.00027 6.73918 9.04758C6.85338 9.09488 6.951 9.17499 7.01967 9.27777C7.08835 9.38055 7.125 9.50139 7.125 9.625C7.125 9.79076 7.05915 9.94973 6.94194 10.0669C6.82473 10.1842 6.66576 10.25 6.5 10.25ZM7.125 7.75C7.125 7.91576 7.05915 8.07473 6.94194 8.19194C6.82473 8.30915 6.66576 8.375 6.5 8.375C6.33424 8.375 6.17527 8.30915 6.05806 8.19194C5.94085 8.07473 5.875 7.91576 5.875 7.75V3.375C5.875 3.20924 5.94085 3.05027 6.05806 2.93306C6.17527 2.81585 6.33424 2.75 6.5 2.75C6.66576 2.75 6.82473 2.81585 6.94194 2.93306C7.05915 3.05027 7.125 3.20924 7.125 3.375V7.75Z" fill="#003566"/>
</svg>
