<svg
  xmlns="http://www.w3.org/2000/svg"
  width="26"
  height="25"
  fill="none"
  viewBox="0 0 26 25"
>
  {" "}
  <path
    fill="#1C1B1F80"
    fillRule="evenodd"
    d="M19.468.07c-1.22.222-2.36.87-3.116 1.774-.405.484-.552.738-.996 1.728-.7 1.559-1.708 3.271-2.831 4.808l-.331.455c-.005.008-.325-.224-.711-.515-1.754-1.325-3.2-2.116-4.512-2.467-.567-.152-1.407-.15-1.8.004-.835.328-1.26 1.193-1.118 2.272.112.846.617 2.09 1.31 3.228.146.24.248.45.227.47-.022.018-.15.063-.284.099-.426.113-1.055.386-1.513.657-1.645.976-2.748 2.515-3.168 4.425-.137.623-.148 1.92-.02 2.555a6.728 6.728 0 001.932 3.565 6.643 6.643 0 003.416 1.783c.599.119 1.884.119 2.473 0a6.769 6.769 0 004.54-3.229c.234-.4.546-1.13.628-1.472a1.23 1.23 0 01.093-.282c.018-.02.236.084.484.234 1.163.701 2.37 1.188 3.224 1.301.83.11 1.459-.078 1.909-.571.368-.403.467-.7.465-1.391 0-.417-.029-.664-.106-.956-.35-1.31-1.14-2.758-2.45-4.491l-.552-.729.115-.09a43.675 43.675 0 011.923-1.314c1.197-.752 2.434-1.413 3.462-1.85 1.681-.715 2.745-1.916 3.197-3.61.111-.418.127-.57.127-1.258 0-.69-.015-.84-.13-1.27A5.35 5.35 0 0023.301.953C22.216.182 20.736-.159 19.468.071zm1.787 1.545c.987.25 1.863.958 2.357 1.909.516.99.534 2.302.046 3.275-.46.916-1.089 1.486-2.124 1.922-2.293.967-5.686 3.143-7.271 4.664l-.234.224-1.055-1.056-1.055-1.055.49-.57c1.528-1.776 3.3-4.508 4.139-6.385.625-1.397.832-1.722 1.386-2.18a3.683 3.683 0 013.321-.748zM6.968 7.398c1.022.347 2.53 1.247 3.971 2.368l.306.238-.292.33c-.42.476-.515.694-.512 1.175.004.604.06.683 1.521 2.132 1.407 1.396 1.467 1.438 2.07 1.435.415-.002.757-.16 1.165-.537.17-.157.323-.265.341-.24.018.026.24.321.492.657 1.442 1.916 2.246 3.522 2.263 4.52.004.27-.012.343-.098.428-.252.252-1.264.028-2.36-.523C12.408 17.658 8 13.287 6.238 9.863c-.483-.938-.665-1.462-.699-2.009-.023-.374-.014-.441.066-.53.084-.093.133-.1.533-.081.304.015.56.063.83.155zm-.1 6.125c1.138 1.509 3.616 3.986 5.125 5.124.374.282.381.309.233.927-.352 1.467-1.41 2.778-2.765 3.428a5.23 5.23 0 01-5.191-.356c-.374-.247-.947-.794-1.249-1.19-.316-.415-.74-1.29-.868-1.791a5.225 5.225 0 012.022-5.563c.651-.464 1.732-.891 2.28-.9.154-.002.194.028.414.32z"
    clipRule="evenodd"
  ></path>{" "}
</svg>