<svg
  viewBox="0 0 10 13"
  fill="none"
  xmlns="http://www.w3.org/2000/svg"
>
  <path
    fillRule="evenodd"
    clipRule="evenodd"
    d="M4.23598 0.00568841C3.06786 0.123257 2.12897 0.556012 1.34579 1.33784C-0.0342382 2.71549 -0.390406 4.78656 0.451797 6.53629C0.627857 6.90206 4.26407 12.7741 4.39007 12.8962C4.54899 13.0501 4.79872 13.0305 4.93765 12.8532C5.04075 12.7217 8.54078 6.87801 8.66836 6.62444C8.87773 6.20824 9.01477 5.79249 9.10382 5.3034C9.15737 5.00924 9.16387 4.22429 9.11528 3.918C8.95476 2.90617 8.51855 2.04147 7.8137 1.33784C7.11237 0.637713 6.22367 0.189833 5.24355 0.0425224C5.04083 0.0120689 4.40397 -0.0112161 4.23598 0.00568841ZM5.11368 0.792293C5.90758 0.902846 6.70525 1.30167 7.27621 1.87355C7.81322 2.41144 8.16213 3.06121 8.32627 3.82903C8.40913 4.21666 8.40941 4.92095 8.32683 5.3034C8.25062 5.65651 8.14013 5.97414 7.99086 6.26937C7.92371 6.40219 7.14168 7.72143 6.25303 9.20099L4.6373 11.8911L2.95503 9.18475C2.02979 7.69624 1.22176 6.37703 1.15945 6.25313C0.909542 5.75636 0.791082 5.2911 0.768725 4.71873C0.700124 2.96191 1.82108 1.40373 3.51081 0.907066C4.01786 0.758027 4.57896 0.717863 5.11368 0.792293ZM4.16555 2.3169C3.30356 2.48007 2.59459 3.13904 2.36087 3.99426C2.28171 4.28402 2.2813 4.84558 2.36003 5.13817C2.53161 5.77558 2.98047 6.32319 3.5679 6.61186C3.92983 6.78973 4.13919 6.83632 4.57975 6.83713C5.01906 6.83792 5.22466 6.79219 5.59121 6.61206C6.18074 6.32237 6.62733 5.77757 6.79946 5.13817C6.8782 4.84558 6.87779 4.28402 6.79862 3.99426C6.5819 3.2012 5.93646 2.55781 5.15269 2.35356C4.88308 2.28329 4.43162 2.26654 4.16555 2.3169ZM4.89044 3.06909C5.13395 3.1198 5.42063 3.2726 5.61298 3.45423C5.80873 3.63906 5.92874 3.8199 6.02629 4.07708C6.08229 4.22467 6.09156 4.29081 6.09309 4.5535C6.09497 4.87782 6.06841 4.99785 5.93557 5.26527C5.75044 5.63788 5.34637 5.95523 4.93334 6.05241C3.98391 6.27583 3.05426 5.5451 3.05228 4.57381C3.05177 4.32508 3.09012 4.1602 3.20697 3.90895C3.39062 3.51407 3.80049 3.18165 4.2329 3.07692C4.39916 3.03662 4.71644 3.03286 4.89044 3.06909Z"
    fill="#001D3D"
  />
</svg>