<svg width="16" height="16" viewBox="0 0 16 16" fill="none" xmlns="http://www.w3.org/2000/svg">
<g clip-path="url(#clip0_33_8658)">
<path d="M14.041 6.75C14.041 11.125 8.41602 14.875 8.41602 14.875C8.41602 14.875 2.79102 11.125 2.79102 6.75C2.79102 5.25816 3.38365 3.82742 4.43854 2.77252C5.49343 1.71763 6.92417 1.125 8.41602 1.125C9.90786 1.125 11.3386 1.71763 12.3935 2.77252C13.4484 3.82742 14.041 5.25816 14.041 6.75Z" stroke="#003566" stroke-width="1.5" stroke-linecap="round" stroke-linejoin="round"/>
<path d="M8.41602 8.625C9.45155 8.625 10.291 7.78553 10.291 6.75C10.291 5.71447 9.45155 4.875 8.41602 4.875C7.38048 4.875 6.54102 5.71447 6.54102 6.75C6.54102 7.78553 7.38048 8.625 8.41602 8.625Z" stroke="#003566" stroke-width="1.5" stroke-linecap="round" stroke-linejoin="round"/>
</g>
<defs>
<clipPath id="clip0_33_8658">
<rect width="15" height="15" fill="white" transform="translate(0.916016 0.5)"/>
</clipPath>
</defs>
</svg>
