<svg width="16" height="15" viewBox="0 0 16 15" fill="none" xmlns="http://www.w3.org/2000/svg">
<path d="M14.2504 10.5751V12.4501C14.2511 12.6241 14.2154 12.7964 14.1457 12.9559C14.076 13.1154 13.9737 13.2586 13.8454 13.3762C13.7172 13.4939 13.5657 13.5835 13.4009 13.6393C13.236 13.695 13.0612 13.7157 12.8879 13.7001C10.9647 13.4911 9.11726 12.8339 7.49413 11.7813C5.98403 10.8217 4.70372 9.54142 3.74414 8.03131C2.68787 6.40081 2.03054 4.54443 1.82539 2.61256C1.80977 2.43973 1.83031 2.26554 1.8857 2.10108C1.94109 1.93662 2.03012 1.78549 2.14711 1.65732C2.26411 1.52916 2.40651 1.42675 2.56525 1.35664C2.724 1.28652 2.8956 1.25022 3.06914 1.25006H4.94414C5.24745 1.24708 5.54151 1.35448 5.77149 1.55227C6.00147 1.75005 6.15168 2.02471 6.19413 2.32506C6.27327 2.9251 6.42004 3.51426 6.63164 4.08131C6.71572 4.30501 6.73392 4.54813 6.68408 4.78186C6.63423 5.01559 6.51842 5.23013 6.35038 5.40006L5.55664 6.19381C6.44636 7.75853 7.74192 9.05409 9.30663 9.94381L10.1004 9.15006C10.2703 8.98202 10.4849 8.86622 10.7186 8.81637C10.9523 8.76652 11.1954 8.78472 11.4191 8.86881C11.9862 9.0804 12.5753 9.22717 13.1754 9.30631C13.479 9.34914 13.7563 9.50206 13.9545 9.73599C14.1527 9.96992 14.258 10.2685 14.2504 10.5751Z" stroke="#003566" stroke-width="1.5" stroke-linecap="round" stroke-linejoin="round"/>
</svg>
