<svg width="16" height="15" viewBox="0 0 16 15" fill="none" xmlns="http://www.w3.org/2000/svg">
<g clip-path="url(#clip0_33_18580)">
<path d="M8.00066 0C6.01219 0.00215068 4.10579 0.793017 2.69973 2.19907C1.29367 3.60513 0.502804 5.51154 0.500654 7.5C0.421904 13.4831 7.47503 17.1431 12.3132 13.6356C12.3827 13.5894 12.4422 13.5297 12.4883 13.46C12.5344 13.3904 12.566 13.3122 12.5814 13.2301C12.5967 13.148 12.5955 13.0637 12.5777 12.9821C12.5599 12.9005 12.5259 12.8233 12.4778 12.7551C12.4297 12.6869 12.3684 12.6289 12.2975 12.5848C12.2267 12.5406 12.1477 12.5111 12.0652 12.498C11.9827 12.4849 11.8985 12.4884 11.8174 12.5084C11.7363 12.5284 11.6601 12.5644 11.5932 12.6144C7.56316 15.535 1.68815 12.4862 1.75065 7.5C2.09378 -0.79125 13.9088 -0.789375 14.2507 7.5V8.75C14.2507 9.08152 14.119 9.39946 13.8845 9.63388C13.6501 9.8683 13.3322 10 13.0007 10C12.6691 10 12.3512 9.8683 12.1168 9.63388C11.8824 9.39946 11.7507 9.08152 11.7507 8.75V7.5C11.5932 2.54437 4.40753 2.545 4.25066 7.5C4.25793 8.26 4.49531 8.99995 4.93152 9.62235C5.36773 10.2447 5.98228 10.7204 6.69419 10.9865C7.4061 11.2527 8.18194 11.2969 8.91947 11.1133C9.657 10.9297 10.3216 10.5269 10.8257 9.95812C11.0968 10.4366 11.5181 10.8124 12.0245 11.0272C12.5308 11.242 13.0938 11.2838 13.6263 11.1462C14.1588 11.0086 14.631 10.6992 14.9699 10.266C15.3088 9.83281 15.4953 9.29996 15.5007 8.75V7.5C15.4985 5.51154 14.7076 3.60513 13.3016 2.19907C11.8955 0.793017 9.98912 0.00215068 8.00066 0V0ZM8.00066 10C7.33762 10 6.70173 9.73661 6.23289 9.26777C5.76405 8.79892 5.50066 8.16304 5.50066 7.5C5.50066 6.83696 5.76405 6.20107 6.23289 5.73223C6.70173 5.26339 7.33762 5 8.00066 5C8.6637 5 9.29959 5.26339 9.76843 5.73223C10.2373 6.20107 10.5007 6.83696 10.5007 7.5C10.5007 8.16304 10.2373 8.79892 9.76843 9.26777C9.29959 9.73661 8.6637 10 8.00066 10Z" fill="#003566"/>
</g>
<defs>
<clipPath id="clip0_33_18580">
<rect width="15" height="15" fill="white" transform="translate(0.5)"/>
</clipPath>
</defs>
</svg>
