<svg width="22" height="22" viewBox="0 0 22 22" fill="none" xmlns="http://www.w3.org/2000/svg">
<g clip-path="url(#clip0_2843_42024)">
<path d="M17.4167 0H4.58333C3.3682 0.00145554 2.20326 0.484808 1.34403 1.34403C0.484808 2.20326 0.00145554 3.3682 0 4.58333L0 17.4167C0.00145554 18.6318 0.484808 19.7967 1.34403 20.656C2.20326 21.5152 3.3682 21.9985 4.58333 22H17.4167C18.6318 21.9985 19.7967 21.5152 20.656 20.656C21.5152 19.7967 21.9985 18.6318 22 17.4167V4.58333C21.9985 3.3682 21.5152 2.20326 20.656 1.34403C19.7967 0.484808 18.6318 0.00145554 17.4167 0V0ZM6.41667 20.1667V19.25C6.41667 18.0344 6.89955 16.8686 7.75909 16.0091C8.61864 15.1496 9.78442 14.6667 11 14.6667C12.2156 14.6667 13.3814 15.1496 14.2409 16.0091C15.1004 16.8686 15.5833 18.0344 15.5833 19.25V20.1667H6.41667ZM20.1667 17.4167C20.1667 18.146 19.8769 18.8455 19.3612 19.3612C18.8455 19.8769 18.146 20.1667 17.4167 20.1667V19.25C17.4167 17.5482 16.7406 15.9161 15.5373 14.7127C14.3339 13.5094 12.7018 12.8333 11 12.8333C9.29819 12.8333 7.66609 13.5094 6.46273 14.7127C5.25937 15.9161 4.58333 17.5482 4.58333 19.25V20.1667C3.85399 20.1667 3.15451 19.8769 2.63879 19.3612C2.12306 18.8455 1.83333 18.146 1.83333 17.4167V4.58333C1.83333 3.85399 2.12306 3.15451 2.63879 2.63879C3.15451 2.12306 3.85399 1.83333 4.58333 1.83333H17.4167C18.146 1.83333 18.8455 2.12306 19.3612 2.63879C19.8769 3.15451 20.1667 3.85399 20.1667 4.58333V17.4167Z" fill="#0057B8"/>
<path d="M11.0007 3.6665C10.2755 3.6665 9.56654 3.88155 8.96356 4.28445C8.36058 4.68735 7.89062 5.26 7.61309 5.93C7.33557 6.59999 7.26296 7.33724 7.40444 8.0485C7.54592 8.75977 7.89514 9.4131 8.40793 9.9259C8.92072 10.4387 9.57406 10.7879 10.2853 10.9294C10.9966 11.0709 11.7338 10.9983 12.4038 10.7207C13.0738 10.4432 13.6465 9.97324 14.0494 9.37026C14.4523 8.76728 14.6673 8.05837 14.6673 7.33317C14.6673 6.36071 14.281 5.42808 13.5934 4.74045C12.9057 4.05281 11.9731 3.6665 11.0007 3.6665ZM11.0007 9.1665C10.6381 9.1665 10.2836 9.05898 9.98211 8.85753C9.68062 8.65608 9.44563 8.36976 9.30687 8.03476C9.16811 7.69976 9.13181 7.33114 9.20255 6.97551C9.27329 6.61987 9.4479 6.2932 9.70429 6.03681C9.96069 5.78041 10.2874 5.6058 10.643 5.53506C10.9986 5.46432 11.3672 5.50063 11.7022 5.63939C12.0372 5.77815 12.3236 6.01314 12.525 6.31463C12.7265 6.61612 12.834 6.97057 12.834 7.33317C12.834 7.8194 12.6408 8.28572 12.297 8.62953C11.9532 8.97335 11.4869 9.1665 11.0007 9.1665Z" fill="#0057B8"/>
</g>
<defs>
<clipPath id="clip0_2843_42024">
<rect width="22" height="22" fill="white"/>
</clipPath>
</defs>
</svg>
