<svg width="30" height="31" viewBox="0 0 30 31" fill="none" xmlns="http://www.w3.org/2000/svg">
<path d="M15 10.8125C14.0729 10.8125 13.1666 10.5376 12.3958 10.0225C11.6249 9.50744 11.0241 8.77536 10.6693 7.91883C10.3145 7.0623 10.2217 6.1198 10.4026 5.21051C10.5834 4.30123 11.0299 3.466 11.6854 2.81044C12.341 2.15488 13.1762 1.70844 14.0855 1.52757C14.9948 1.3467 15.9373 1.43953 16.7938 1.79432C17.6504 2.1491 18.3824 2.74991 18.8975 3.52077C19.4126 4.29162 19.6875 5.1979 19.6875 6.125C19.6861 7.36778 19.1918 8.55927 18.3131 9.43805C17.4343 10.3168 16.2428 10.8111 15 10.8125ZM15 3.3125C14.4437 3.3125 13.9 3.47745 13.4375 3.78649C12.9749 4.09553 12.6145 4.53479 12.4016 5.0487C12.1887 5.56262 12.133 6.12812 12.2415 6.67369C12.3501 7.21926 12.6179 7.7204 13.0113 8.11374C13.4046 8.50707 13.9057 8.77494 14.4513 8.88346C14.9969 8.99198 15.5624 8.93628 16.0763 8.72341C16.5902 8.51054 17.0295 8.15005 17.3385 7.68754C17.6476 7.22503 17.8125 6.68126 17.8125 6.125C17.8118 5.37931 17.5152 4.66437 16.9879 4.13709C16.4606 3.6098 15.7457 3.31325 15 3.3125Z" fill="currentColor"/>
<path d="M16.8746 29.5629H13.1246C12.876 29.5629 12.6375 29.4641 12.4617 29.2883C12.2859 29.1125 12.1871 28.8741 12.1871 28.6254V24.8754H8.90588C8.76369 24.8754 8.62337 24.843 8.49555 24.7807C8.36773 24.7184 8.25576 24.6278 8.1681 24.5159C8.08044 24.4039 8.01939 24.2735 7.98958 24.1345C7.95977 23.9954 7.96198 23.8514 7.99603 23.7134L10.7781 12.4493C10.9606 11.463 11.4828 10.5717 12.254 9.93023C13.0251 9.28873 13.9965 8.9375 14.9996 8.9375C16.0027 8.9375 16.9741 9.28873 17.7453 9.93023C18.5164 10.5717 19.0386 11.463 19.2212 12.4493L19.396 13.1609C20.4123 13.1998 21.3883 13.5681 22.1768 14.2102C22.9654 14.8524 23.5237 15.7335 23.7676 16.7208C24.0115 17.7081 23.9277 18.7479 23.5288 19.6834C23.13 20.6188 22.4377 21.3992 21.5565 21.9068L22.0032 23.7139C22.0372 23.8519 22.0394 23.9958 22.0095 24.1348C21.9797 24.2738 21.9186 24.4041 21.8309 24.516C21.7433 24.6279 21.6313 24.7184 21.5036 24.7807C21.3758 24.843 21.2355 24.8753 21.0934 24.8754H17.8121V28.6254C17.8121 28.8741 17.7134 29.1125 17.5376 29.2883C17.3617 29.4641 17.1233 29.5629 16.8746 29.5629ZM14.0621 27.6879H15.9371V23.9379C15.9371 23.6893 16.0359 23.4508 16.2117 23.275C16.3875 23.0992 16.626 23.0004 16.8746 23.0004H19.8957L19.5503 21.6035C19.4942 21.3762 19.5253 21.1361 19.6374 20.9305C19.7495 20.7249 19.9344 20.5687 20.1559 20.4926C20.7791 20.2699 21.3039 19.8345 21.6378 19.263C21.9717 18.6915 22.0933 18.0206 21.9813 17.3683C21.8694 16.716 21.5309 16.124 21.0255 15.6966C20.5202 15.2693 19.8802 15.0338 19.2184 15.0317C19.0762 15.0321 18.9341 15.042 18.7932 15.0612C18.5646 15.0917 18.3328 15.0368 18.1421 14.9071C17.9515 14.7773 17.8153 14.5819 17.7596 14.3581L17.394 12.8721C17.3893 12.8534 17.3851 12.8342 17.3818 12.8154C17.2819 12.2535 16.9888 11.7441 16.5531 11.3754C16.2276 11.1033 15.8363 10.9216 15.4185 10.8484C15.0006 10.7752 14.5708 10.8131 14.1723 10.9583C13.7737 11.1036 13.4203 11.351 13.1475 11.6759C12.8747 12.0008 12.692 12.3916 12.6179 12.8093C12.6146 12.8295 12.6099 12.8496 12.6053 12.8698L10.1031 23.0004H13.1246C13.3733 23.0004 13.6117 23.0992 13.7875 23.275C13.9634 23.4508 14.0621 23.6893 14.0621 23.9379V27.6879Z" fill="currentColor"/>
<path d="M19.2195 18.7818C19.1188 18.7822 19.0188 18.7664 18.9232 18.7349L16.1107 17.7974C15.9779 17.7531 15.8567 17.6795 15.756 17.5822C15.6554 17.4848 15.5778 17.3662 15.529 17.2349L14.1227 13.4849C14.0419 13.2535 14.0549 12.9996 14.159 12.7777C14.2631 12.5558 14.45 12.3834 14.6796 12.2976C14.9092 12.2118 15.1633 12.2193 15.3875 12.3186C15.6116 12.4179 15.7879 12.601 15.8787 12.8287L17.1279 16.1568L19.5157 16.9537C19.7278 17.0234 19.9081 17.1665 20.0241 17.3572C20.14 17.548 20.1842 17.7739 20.1484 17.9943C20.1127 18.2146 19.9995 18.415 19.8292 18.5594C19.659 18.7038 19.4427 18.7826 19.2195 18.7818Z" fill="currentColor"/>
</svg>
