<svg width="68" height="21" viewBox="0 0 68 21" fill="none" xmlns="http://www.w3.org/2000/svg">
<path d="M19.3206 15.8701C19.2105 15.9832 19.1017 16.0974 18.9957 16.2147C18.8866 16.3346 18.8297 16.5034 18.7862 16.5826C18.8081 16.9707 18.9589 17.1792 19.2227 17.3006C19.4836 17.4176 19.7257 17.3661 19.9269 17.1657C20.2598 16.8347 20.5904 16.5007 20.9153 16.1601C21.0254 16.0443 21.0893 15.9136 21.107 15.783C21.1328 15.5866 21.0607 15.3878 20.8923 15.2231C20.6096 14.9479 20.2438 14.9479 19.9567 15.2325C19.7434 15.4436 19.5299 15.6534 19.3206 15.8701ZM18.8595 15.7707C19.1953 15.4342 19.5271 15.0937 19.8534 14.7462C19.965 14.6293 20.0179 14.4575 20.0656 14.3717C20.0342 13.9943 19.8833 13.7858 19.6223 13.6633C19.383 13.5501 19.1151 13.6034 18.9194 13.8009C18.4679 14.2559 18.0194 14.7108 17.5734 15.1713C17.5681 15.1768 17.5624 15.1819 17.557 15.1876C17.281 15.4723 17.2905 15.8415 17.5747 16.1221C17.852 16.3958 18.219 16.4082 18.4951 16.1345C18.6177 16.013 18.7386 15.892 18.8595 15.7707ZM17.8223 12.4329C17.3344 12.9248 16.8489 13.4193 16.3649 13.9166C16.2957 13.986 16.2276 14.057 16.1597 14.1263C16.0115 14.2791 15.9191 14.4643 15.9149 14.5773C15.9096 15.0745 16.2235 15.355 16.6123 15.3114C16.8313 15.2868 17.0024 15.1739 17.1508 15.0225C17.1835 14.9902 17.2162 14.9572 17.2486 14.9248C17.7421 14.4247 18.2383 13.9248 18.7237 13.4153C18.842 13.2913 18.9399 13.1277 18.9929 12.9644C19.1152 12.5885 18.8556 12.2206 18.4639 12.1797C18.2069 12.1525 17.9963 12.2588 17.8223 12.4329ZM16.1541 13.5406C16.5811 13.1222 17.0012 12.6957 17.4104 12.26C17.6607 11.9944 17.6239 11.6213 17.356 11.3662C17.3356 11.3474 17.3154 11.3297 17.2949 11.3119C17.4785 11.3528 17.6607 11.4018 17.8386 11.4563C17.8564 11.4617 17.874 11.4672 17.8917 11.474C17.9365 11.5924 17.9705 11.7163 18.0127 11.8418C18.3255 11.7177 18.6109 11.7396 18.8679 11.8828C18.9534 11.9304 19.0365 11.9931 19.1154 12.0665C19.4444 12.3744 19.4783 12.7668 19.3723 13.1809C20.2031 13.3661 20.5022 13.7693 20.4371 14.599C21.1153 14.7462 21.303 14.9275 21.5192 15.6332C21.5206 15.6386 21.5233 15.6439 21.5245 15.6493C21.5435 15.6945 21.5872 15.7364 21.6265 15.7664C21.9052 15.9859 22.3035 15.9435 22.5632 15.674C22.7536 15.4761 22.7877 15.2488 22.6544 15.0118C22.6244 14.9574 22.585 14.9015 22.5362 14.8456C22.0181 14.2558 21.4892 13.674 20.9658 13.0882C20.9046 13.0188 20.8368 12.9506 20.7808 12.877C20.963 12.9277 21.1602 12.9669 21.3654 12.9931C21.3912 12.9971 21.4185 12.9996 21.4443 13.0026C21.9567 13.5788 22.4692 14.1538 22.9846 14.7287C22.9927 14.7367 22.9995 14.7462 23.0077 14.7547C23.2225 14.9944 23.4999 15.0503 23.7811 14.9152C24.053 14.7859 24.2176 14.5227 24.1508 14.2339C24.1128 14.0691 24.0191 13.903 23.9102 13.7693C23.8763 13.7272 23.841 13.685 23.8042 13.6442C23.6139 13.4181 23.4086 13.2041 23.2102 12.9849C23.3667 12.9671 23.5174 12.9455 23.6589 12.9221C23.6739 12.9193 23.6889 12.9181 23.7036 12.9154C23.8003 13.0189 23.8941 13.1239 23.9892 13.2272C23.9919 13.23 23.9946 13.2327 23.996 13.2354C24.0925 13.339 24.1944 13.4168 24.3128 13.4548C24.4108 13.4862 24.5181 13.4903 24.6378 13.4576C25.0306 13.3513 25.2251 12.9698 25.1149 12.6172C26.1797 12.3433 27.3419 11.9455 28.6634 11.4019V11.6119V12.1023H28.6498C28.6185 12.6528 28.5369 13.1868 28.4091 13.7043C27.475 17.4848 24.0667 20.2857 20.0059 20.2857C15.9447 20.2857 12.5364 17.4848 11.6024 13.7043C11.4746 13.1868 11.3931 12.6528 11.3617 12.1023H11.3481V11.6119V11.417C11.3522 11.4155 11.3563 11.4155 11.3605 11.4141C12.3176 11.2303 13.2408 11.1158 14.104 11.0748C14.1191 11.0748 14.134 11.0736 14.149 11.0736C14.3379 11.338 14.5473 11.5898 14.7688 11.8366C14.849 11.9263 14.9347 12.0108 15.0217 12.1022H15.1317C15.1589 12.0722 15.1846 12.0449 15.2092 12.0191C15.3737 11.8542 15.5353 11.6852 15.6986 11.5191C15.8331 11.3842 15.9666 11.2495 16.1051 11.1198C16.1241 11.1213 16.1433 11.1239 16.1623 11.1253C16.3376 11.143 16.5143 11.1676 16.691 11.1948C16.6122 11.2248 16.536 11.2736 16.4653 11.3433C16.2152 11.587 15.9678 11.8322 15.7231 12.0801C15.7149 12.0884 15.7053 12.0966 15.6985 12.1061C15.4838 12.3211 15.2716 12.5377 15.0609 12.7559C14.865 12.9576 14.816 13.204 14.9413 13.4629C14.9873 13.5596 15.0446 13.6398 15.1178 13.7039C15.2428 13.8145 15.4143 13.877 15.652 13.8852C15.7185 13.8524 15.875 13.8157 15.9729 13.719C16.0344 13.6604 16.0944 13.6004 16.1541 13.5406Z" fill="white"/>
<path d="M38.0727 11.5794C38.2292 11.9407 38.3079 12.3765 38.3079 12.886C38.3079 13.4515 38.2102 13.9801 38.0142 14.4718C37.8185 14.965 37.5359 15.3939 37.1644 15.7604C36.7921 16.1269 36.3338 16.4159 35.7901 16.6255C35.2449 16.8353 34.6262 16.9402 33.9343 16.9402C33.5536 16.9402 33.1676 16.9007 32.7732 16.8231C32.3803 16.7442 31.9983 16.6338 31.6299 16.4909C31.2615 16.3492 30.9149 16.1801 30.5912 15.9841C30.2676 15.7879 29.9849 15.5699 29.7456 15.3289L30.5832 14.002C30.6497 13.9079 30.7382 13.8275 30.8469 13.7637C30.9557 13.6982 31.0739 13.6667 31.2032 13.6667C31.3702 13.6667 31.5391 13.7201 31.7102 13.8264C31.8801 13.9325 32.0733 14.0497 32.288 14.1789C32.5027 14.3072 32.7503 14.4256 33.0291 14.532C33.309 14.638 33.638 14.6912 34.0187 14.6912C34.5312 14.6912 34.9311 14.5767 35.2165 14.3507C35.5007 14.1245 35.6434 13.7651 35.6434 13.2717C35.6434 12.987 35.5647 12.7542 35.4082 12.5757C35.2519 12.3959 35.0466 12.2474 34.7936 12.1303C34.5392 12.0129 34.2497 11.9094 33.9263 11.8195C33.6013 11.7296 33.2697 11.6302 32.9285 11.5211C32.5886 11.412 32.2553 11.2786 31.9319 11.1179C31.7021 11.0049 31.4901 10.8674 31.2954 10.7024C32.5558 10.4572 33.7876 10.3169 34.916 10.3768C35.8567 10.4272 36.7228 10.5471 37.4952 10.7024C37.7328 10.9461 37.9245 11.2375 38.0727 11.5794Z" fill="white"/>
<path d="M9.49087 11.7158C9.61179 12.0483 9.6718 12.4392 9.6718 12.8861C9.6718 13.4516 9.57394 13.9802 9.37959 14.472C9.18389 14.9651 8.89952 15.394 8.52846 15.7605C8.1574 16.127 7.69919 16.416 7.15399 16.6256C6.61014 16.8354 5.99165 16.9403 5.29808 16.9403C4.91873 16.9403 4.53275 16.9009 4.13847 16.8232C3.74419 16.7443 3.36348 16.6339 2.99513 16.491C2.62663 16.3493 2.28 16.1802 1.95643 15.9843C1.63136 15.788 1.35016 15.57 1.10938 15.329L1.94814 14.0021C2.01479 13.908 2.10178 13.8276 2.21185 13.7638C2.32071 13.6983 2.43892 13.6669 2.56798 13.6669C2.73534 13.6669 2.90376 13.7202 3.07369 13.8265C3.24497 13.9326 3.43675 14.0498 3.65282 14.179C3.86767 14.3073 4.11374 14.4257 4.39388 14.5321C4.67267 14.6381 5.00302 14.6913 5.38222 14.6913C5.89606 14.6913 6.29592 14.5768 6.57998 14.3508C6.86555 14.1246 7.00834 13.7652 7.00834 13.2718C7.00834 12.9872 6.92948 12.7543 6.77313 12.5758C6.69291 12.4845 6.60049 12.4001 6.49585 12.3251C7.35241 12.1381 8.40467 11.9187 9.49087 11.7158Z" fill="white"/>
<path d="M64.5328 10.0946L67.1257 16.8066H64.9312C64.6851 16.8066 64.4867 16.748 64.3358 16.6335C64.1847 16.5189 64.0705 16.3719 63.993 16.1935L63.2729 14.0603H58.6313L57.9107 16.1935C57.8482 16.3502 57.7379 16.4905 57.579 16.6173C57.4198 16.7425 57.223 16.8066 56.9887 16.8066H54.7769L57.0854 10.8329C57.9962 10.6886 58.9276 10.5481 59.8576 10.4283L59.2839 12.1299H62.6272L61.976 10.2022C62.8468 10.13 63.7052 10.0892 64.5328 10.0946Z" fill="white"/>
<path d="M54.2817 11.28V11.8195C54.2817 12.5701 54.1606 13.2579 53.9172 13.8846C53.6754 14.5111 53.3274 15.0521 52.8745 15.5048C52.4218 15.958 51.8726 16.3112 51.2242 16.5629C50.5756 16.8149 49.847 16.9403 49.0378 16.9403C48.2221 16.9403 47.4909 16.8149 46.8424 16.5629C46.1936 16.3112 45.6446 15.958 45.1918 15.5048C44.7391 15.0521 44.3939 14.5113 44.1531 13.8846C43.9125 13.2581 43.7925 12.5701 43.7925 11.8195V11.0742C44.7008 11.2662 45.6309 11.4543 46.6248 11.5877V11.8112C46.6248 12.2418 46.6788 12.6272 46.7878 12.965C46.8964 13.3043 47.0542 13.5918 47.2609 13.8301C47.4676 14.0685 47.7205 14.2497 48.0196 14.3764C48.3188 14.5016 48.6573 14.5643 49.0377 14.5643C49.4173 14.5643 49.757 14.5016 50.0547 14.3764C50.3538 14.2497 50.6068 14.07 50.8135 13.8343C51.0199 13.5998 51.1776 13.3125 51.2867 12.9733C51.3954 12.6353 51.4496 12.2498 51.4496 11.8193V11.6627C52.3321 11.5728 53.2864 11.4351 54.2817 11.28Z" fill="white"/>
<path d="M23.5949 12.7954C23.153 12.3104 22.7112 11.8268 22.2695 11.3405C22.1822 11.2438 22.1008 11.1648 21.973 11.2698C21.8506 11.3704 21.8535 11.4741 21.9581 11.5899C22.3388 12.0122 22.718 12.436 23.096 12.8598C23.115 12.88 23.134 12.9019 23.153 12.9222C23.1598 12.9289 23.1667 12.9373 23.1734 12.9441C23.1857 12.9578 23.1978 12.9713 23.2102 12.985C23.3667 12.9672 23.5174 12.9456 23.6589 12.9222C23.6739 12.9194 23.6889 12.9182 23.7037 12.9155C23.686 12.8951 23.6684 12.8759 23.6494 12.8555C23.6317 12.835 23.6126 12.8158 23.5949 12.7954Z" fill="white"/>
<path d="M21.3044 12.8445C21.2486 12.7845 21.1945 12.7232 21.1413 12.6632C21.1018 12.6182 21.0638 12.5732 21.0203 12.531C20.932 12.4479 20.8206 12.4437 20.7538 12.5324C20.721 12.5747 20.7036 12.6508 20.709 12.7149C20.709 12.7407 20.7144 12.7638 20.7239 12.783C20.7253 12.7857 20.7266 12.7885 20.728 12.7912C20.7431 12.8211 20.7621 12.85 20.7811 12.8768C20.9632 12.9275 21.1604 12.9667 21.3656 12.9929C21.3914 12.997 21.4187 12.9994 21.4445 13.0024C21.4213 12.9766 21.3982 12.9506 21.3753 12.9247C21.3507 12.8977 21.3263 12.8717 21.3044 12.8445Z" fill="white"/>
<path d="M17.8179 11.3078C17.504 10.7316 16.7453 10.5708 16.2396 10.996C16.2273 11.0055 16.2166 11.0149 16.2057 11.0245C16.1933 11.0354 16.1811 11.0463 16.1701 11.0572C16.1484 11.0777 16.1267 11.0981 16.105 11.1199C16.124 11.1214 16.1431 11.1239 16.1621 11.1253C16.3375 11.143 16.5142 11.1676 16.6909 11.1948C16.6923 11.1948 16.6923 11.1948 16.6923 11.1948C16.752 11.2043 16.8118 11.2153 16.8703 11.2249C16.9424 11.2383 17.0145 11.2519 17.0864 11.2669C17.1557 11.2806 17.2251 11.2954 17.2945 11.3119C17.4781 11.3528 17.6602 11.4018 17.8382 11.4563C17.8559 11.4617 17.8736 11.4672 17.8912 11.474C17.8817 11.4453 17.8709 11.4181 17.8588 11.391C17.8466 11.3625 17.8329 11.335 17.8179 11.3078Z" fill="white"/>
<path d="M28.4091 7.29591C27.475 3.51561 24.0667 0.7146 20.0059 0.7146C15.9447 0.7146 12.5364 3.51546 11.6024 7.29591C11.4623 7.86246 11.3766 8.45106 11.3549 9.05583H11.3481V9.38821V11.2778V11.3471V11.4166C11.3522 11.4151 11.3563 11.4151 11.3605 11.4137C12.3176 11.2299 13.2408 11.1153 14.104 11.0744C14.1191 11.0744 14.134 11.0732 14.149 11.0732C14.1325 11.0514 14.1176 11.0295 14.1013 11.0064C14.0864 10.9845 14.0713 10.9628 14.0565 10.941C13.8758 10.6795 13.7179 10.4042 13.5875 10.114C13.4667 9.84552 13.3701 9.56361 13.3034 9.26387C13.2885 9.19452 13.2749 9.12488 13.2639 9.05553C13.1633 8.43429 13.2356 7.83088 13.4489 7.29561C13.8581 6.25739 14.7935 5.47148 16.0198 5.29033C16.7949 5.17582 17.533 5.23036 18.2333 5.45652C18.697 5.60503 19.1428 5.82969 19.5697 6.13079C19.5942 6.14711 19.6159 6.16629 19.6609 6.20164C19.378 6.40605 19.1062 6.60216 18.8342 6.79705C17.8716 7.49171 16.8438 8.06385 15.7779 8.56664C15.7522 8.58023 15.7262 8.59247 15.6991 8.60471C15.366 8.76138 15.0302 8.90989 14.6916 9.05553C14.6168 9.08695 14.5435 9.11823 14.4686 9.1495C14.3109 9.21492 14.1491 9.28306 14.0063 9.37567C13.7453 9.54729 13.6705 9.79521 13.7862 10.0268C13.8215 10.0977 13.8744 10.1657 13.9453 10.2299C14.2185 10.4778 14.5597 10.5854 14.9131 10.6508C15.1783 10.6999 15.4408 10.7162 15.6989 10.7027C16.0891 10.6808 16.4712 10.5894 16.8451 10.426C17.5113 10.1359 18.1938 9.89749 18.909 9.75986C19.639 9.61815 20.3487 9.69308 21.0503 9.92469C21.7015 10.1413 22.3664 10.2353 23.0515 10.1277C23.1073 10.1182 23.193 10.1536 23.2282 10.1971C23.5912 10.6413 23.9542 11.0868 24.3131 11.5335C24.4667 11.7215 24.6176 11.9108 24.7686 12.1016C24.842 12.1928 24.9141 12.2841 24.9873 12.3767C25.0158 12.4136 25.0418 12.4516 25.0623 12.4897C25.073 12.5104 25.084 12.5322 25.0921 12.5526C25.1016 12.573 25.1084 12.5947 25.1152 12.6166C26.18 12.3427 27.3422 11.9449 28.6637 11.4013V11.3279V11.2543V9.38836V9.05598H28.6569C28.6348 8.45106 28.5491 7.86261 28.4091 7.29591ZM24.3126 10.8895C24.0789 10.6008 23.8478 10.3148 23.6126 10.0246C23.6846 10.0026 23.7389 9.98497 23.7947 9.96865C23.9171 9.93179 24.0014 9.85957 23.9675 9.72209C23.9322 9.5831 23.833 9.54895 23.6914 9.5763C23.3421 9.6458 22.9927 9.71922 22.6407 9.75608C22.1674 9.80639 21.6998 9.72345 21.2565 9.56406C20.1186 9.15403 18.9929 9.22202 17.8713 9.61044C17.435 9.76167 17.0039 9.93194 16.5742 10.1022C16.282 10.2154 15.9908 10.2834 15.6986 10.301C15.3424 10.3255 14.9835 10.2778 14.6233 10.1566C14.5282 10.1238 14.4317 10.0857 14.3501 10.0298C14.2724 9.97545 14.2141 9.89236 14.1475 9.8215C14.2207 9.75744 14.2847 9.67163 14.3691 9.63341C14.8041 9.43731 15.2404 9.24801 15.6756 9.05583H15.6986V9.04631C15.7041 9.04495 15.7081 9.04224 15.7124 9.03952C15.9815 8.92243 16.2508 8.80247 16.5172 8.67995C17.613 8.17731 18.6217 7.53008 19.5748 6.79463C20.1688 6.33822 20.7644 5.87924 21.4673 5.59718C21.5815 5.5508 21.6958 5.50864 21.8112 5.47178C22.7575 5.1598 23.7282 5.12445 24.6894 5.45818C25.6426 5.78784 26.3143 6.46226 26.631 7.29606C26.835 7.8327 26.892 8.43626 26.7817 9.05598C26.7436 9.27263 26.6837 9.492 26.6049 9.70985C26.3534 10.3992 25.9755 11.0135 25.4888 11.5612C25.3842 11.6796 25.2835 11.8009 25.1639 11.9399C24.8743 11.5829 24.5928 11.2342 24.3126 10.8895Z" fill="white"/>
<path d="M33.2516 7.01327C33.5115 6.78711 33.9058 6.67259 34.4373 6.67259C34.7447 6.67259 35.0178 6.71353 35.2587 6.79526C35.498 6.87564 35.7112 6.96704 35.8989 7.06781C36.0866 7.16858 36.2537 7.25983 36.4019 7.34021C36.5501 7.42194 36.6876 7.46288 36.8167 7.46288C36.9623 7.46288 37.0802 7.42874 37.1727 7.36211C37.2639 7.29549 37.3521 7.19457 37.4365 7.05965L38.1394 5.74088C37.9219 5.5407 37.6743 5.35956 37.3982 5.20002C37.1225 5.04063 36.8245 4.90315 36.5065 4.78863C36.1886 4.67426 35.8514 4.58709 35.4965 4.52847C35.1416 4.47001 34.7771 4.43994 34.4034 4.43994C33.733 4.43994 33.1374 4.54207 32.6182 4.74648C32.0988 4.95089 31.661 5.22329 31.3034 5.56518C30.9459 5.90722 30.6753 6.29534 30.4904 6.73272C30.3068 7.16858 30.2144 7.61683 30.2144 8.07581C30.2144 8.64674 30.2919 9.12626 30.4484 9.51439C30.6046 9.90402 30.8099 10.2282 31.0641 10.4884C31.0981 10.5225 31.132 10.5565 31.1659 10.5878C31.2081 10.6272 31.2515 10.6656 31.2951 10.7023C32.5555 10.4571 33.7873 10.3168 34.9157 10.3767C35.8564 10.4271 36.7224 10.547 37.4949 10.7023C37.4837 10.6889 37.4701 10.675 37.4566 10.6614C37.4104 10.6151 37.3626 10.5715 37.3139 10.528C37.0949 10.336 36.853 10.1725 36.5851 10.0403C36.259 9.87683 35.9244 9.73647 35.5845 9.61531C35.2432 9.4955 34.9103 9.38657 34.5826 9.28837C34.2564 9.19032 33.9652 9.08275 33.7125 8.96552C33.4583 8.84843 33.2529 8.70808 33.0966 8.54597C32.9404 8.38386 32.8614 8.1796 32.8614 7.93304C32.8615 7.54583 32.992 7.23929 33.2516 7.01327Z" fill="white"/>
<path d="M4.61551 7.01327C4.87514 6.78711 5.27063 6.67259 5.80091 6.67259C6.10819 6.67259 6.38155 6.71353 6.62219 6.79526C6.86283 6.87564 7.07632 6.96704 7.26389 7.06781C7.4501 7.16858 7.61746 7.25983 7.76552 7.34021C7.91373 7.42194 8.0523 7.46288 8.18016 7.46288C8.3255 7.46288 8.44537 7.42874 8.53629 7.36211C8.62887 7.29549 8.71707 7.19457 8.80015 7.05965L9.50442 5.74088C9.287 5.5407 9.03943 5.35956 8.76336 5.20002C8.48608 5.04063 8.18965 4.90315 7.87016 4.78863C7.55202 4.67426 7.21624 4.58709 6.86147 4.52847C6.50654 4.47001 6.14212 4.43994 5.76834 4.43994C5.09799 4.43994 4.50258 4.54207 3.98315 4.74648C3.46388 4.95089 3.02467 5.22329 2.66703 5.56518C2.3109 5.90722 2.0389 6.29534 1.8554 6.73272C1.67055 7.16858 1.57812 7.61683 1.57812 8.07581C1.57812 8.64674 1.65698 9.12626 1.81349 9.51439C1.96984 9.90402 2.1749 10.2282 2.42941 10.4884C2.68362 10.7486 2.97175 10.9582 3.29667 11.1178C3.62024 11.2785 3.95209 11.4121 4.2933 11.521C4.63466 11.6301 4.96636 11.7294 5.28993 11.8194C5.61485 11.9091 5.90299 12.0126 6.15719 12.1302C6.21841 12.1586 6.27812 12.1886 6.3339 12.2214C6.39105 12.2542 6.44397 12.288 6.49569 12.3251C7.35224 12.1383 8.40451 11.919 9.4907 11.7161C9.47577 11.671 9.45813 11.6287 9.44049 11.5867C9.43914 11.5839 9.43914 11.5825 9.43778 11.5798C9.28157 11.2189 9.07622 10.9137 8.82201 10.6617C8.56765 10.4098 8.27665 10.2027 7.95037 10.0406C7.62409 9.87713 7.28982 9.73677 6.94982 9.61561C6.60847 9.4958 6.27405 9.38688 5.94777 9.28867C5.62149 9.19062 5.33049 9.08306 5.07628 8.96582C4.82222 8.84873 4.61671 8.70838 4.46036 8.54627C4.30401 8.38416 4.22666 8.1799 4.22666 7.93334C4.22666 7.54583 4.35572 7.23929 4.61551 7.01327Z" fill="white"/>
<path d="M64.4796 9.95705L62.4012 4.57471H59.5024L57.1407 10.6859L57.085 10.833C57.9958 10.6887 58.9271 10.5482 59.8571 10.4284L59.9045 10.2867L60.4064 8.79782C60.4907 8.58389 60.5792 8.33325 60.674 8.04182C60.7695 7.75039 60.8593 7.43418 60.942 7.09365C61.0373 7.42874 61.1325 7.74072 61.2275 8.02943C61.3225 8.31709 61.4125 8.56773 61.4955 8.78015L61.9303 10.069L61.9754 10.2024C62.8466 10.1302 63.7049 10.0892 64.5325 10.0948L64.4796 9.95705Z" fill="white"/>
<path d="M51.4497 11.5265V11.6626C52.3322 11.5727 53.2865 11.4351 54.2816 11.2798V11.1409V4.57471H51.4497V11.5265Z" fill="white"/>
<path d="M43.7925 10.9353V11.0741C44.7008 11.2662 45.6309 11.4542 46.6248 11.5877V11.45V4.57471H43.7925V10.9353Z" fill="white"/>
</svg>
